%TF.GenerationSoftware,KiCad,Pcbnew,(6.0.10)*%
%TF.CreationDate,2023-03-01T01:55:48+01:00*%
%TF.ProjectId,kicad,6b696361-642e-46b6-9963-61645f706362,rev?*%
%TF.SameCoordinates,Original*%
%TF.FileFunction,Drillmap*%
%TF.FilePolarity,Positive*%
%FSLAX45Y45*%
G04 Gerber Fmt 4.5, Leading zero omitted, Abs format (unit mm)*
G04 Created by KiCad (PCBNEW (6.0.10)) date 2023-03-01 01:55:48*
%MOMM*%
%LPD*%
G01*
G04 APERTURE LIST*
%ADD10C,0.100000*%
%ADD11C,0.200000*%
%ADD12C,0.040000*%
%ADD13C,0.102000*%
%ADD14C,0.152400*%
G04 APERTURE END LIST*
D10*
X5186680Y-12959080D02*
X13200000Y-13000000D01*
X5171440Y-14442440D02*
X12934000Y-14443000D01*
X5186680Y-12959080D02*
G75*
G03*
X5171440Y-14442440I647449J-748410D01*
G01*
X3734000Y-14443000D02*
G75*
G03*
X3900000Y-13000000I-381220J774903D01*
G01*
X3900000Y-2700000D02*
G75*
G03*
X3400000Y-3200000I0J-500000D01*
G01*
X13700000Y-13500000D02*
G75*
G03*
X13200000Y-13000000I-500000J0D01*
G01*
X13700003Y-18601447D02*
G75*
G03*
X14200000Y-19101447I499997J-3D01*
G01*
X3400000Y-12500000D02*
G75*
G03*
X3900000Y-13000000I500000J0D01*
G01*
X19634000Y-32343000D02*
X19634000Y-19843000D01*
X13434000Y-18843000D02*
G75*
G03*
X13934000Y-19343000I500000J0D01*
G01*
X21300000Y-19100000D02*
G75*
G03*
X21800000Y-18600000I0J500000D01*
G01*
X11434000Y-32843000D02*
X3734000Y-32843000D01*
X21800000Y-3200000D02*
G75*
G03*
X21300000Y-2700000I-500000J0D01*
G01*
X14200000Y-19101447D02*
X18871676Y-19101526D01*
X3734000Y-14443000D02*
G75*
G03*
X3234000Y-14943000I0J-500000D01*
G01*
X19634000Y-19843000D02*
G75*
G03*
X19134000Y-19343000I-500000J0D01*
G01*
X3900000Y-2700000D02*
X21300000Y-2700000D01*
X13434002Y-14942999D02*
G75*
G03*
X13700000Y-14961000I139998J94419D01*
G01*
X3234000Y-32343000D02*
X3234000Y-25443000D01*
X13701586Y-15231190D02*
X13700000Y-18601447D01*
X18870676Y-19343526D02*
X13934000Y-19343000D01*
X19134000Y-32843000D02*
G75*
G03*
X19634000Y-32343000I0J500000D01*
G01*
X3400000Y-12500000D02*
X3400000Y-3200000D01*
X19131781Y-19102601D02*
G75*
G03*
X19134000Y-19343000I125729J-119049D01*
G01*
X21800000Y-3200000D02*
X21800000Y-18600000D01*
X3234000Y-16443000D02*
X3234000Y-14943000D01*
X18870680Y-19343529D02*
G75*
G03*
X18871676Y-19101526I-132750J121550D01*
G01*
X13434000Y-14943000D02*
G75*
G03*
X12934000Y-14443000I-500000J0D01*
G01*
X13701586Y-15231189D02*
G75*
G03*
X13430586Y-15220288I-139930J-104680D01*
G01*
X13430586Y-15220288D02*
X13434000Y-18843000D01*
X3234000Y-32343000D02*
G75*
G03*
X3734000Y-32843000I500000J0D01*
G01*
X13700000Y-14961000D02*
X13700000Y-13500000D01*
X3234000Y-25443000D02*
X3234000Y-16443000D01*
X19131777Y-19102597D02*
X21300000Y-19100000D01*
X11434000Y-32843000D02*
X19134000Y-32843000D01*
D11*
D12*
X3914000Y-26521000D02*
X3954000Y-26561000D01*
X3954000Y-26521000D02*
X3914000Y-26561000D01*
X4164000Y-28173000D02*
X4204000Y-28213000D01*
X4204000Y-28173000D02*
X4164000Y-28213000D01*
X4269500Y-4933000D02*
X4309500Y-4973000D01*
X4309500Y-4933000D02*
X4269500Y-4973000D01*
X4269500Y-6838000D02*
X4309500Y-6878000D01*
X4309500Y-6838000D02*
X4269500Y-6878000D01*
X4269500Y-8743000D02*
X4309500Y-8783000D01*
X4309500Y-8743000D02*
X4269500Y-8783000D01*
X4269500Y-10463000D02*
X4309500Y-10503000D01*
X4309500Y-10463000D02*
X4269500Y-10503000D01*
X4336500Y-26800500D02*
X4376500Y-26840500D01*
X4376500Y-26800500D02*
X4336500Y-26840500D01*
X4362770Y-28123000D02*
X4402770Y-28163000D01*
X4402770Y-28123000D02*
X4362770Y-28163000D01*
X4514000Y-28523000D02*
X4554000Y-28563000D01*
X4554000Y-28523000D02*
X4514000Y-28563000D01*
X4614000Y-28223000D02*
X4654000Y-28263000D01*
X4654000Y-28223000D02*
X4614000Y-28263000D01*
X4677500Y-26886500D02*
X4717500Y-26926500D01*
X4717500Y-26886500D02*
X4677500Y-26926500D01*
X4804500Y-27013500D02*
X4844500Y-27053500D01*
X4844500Y-27013500D02*
X4804500Y-27053500D01*
X4931500Y-27123000D02*
X4971500Y-27163000D01*
X4971500Y-27123000D02*
X4931500Y-27163000D01*
X4931500Y-28045000D02*
X4971500Y-28085000D01*
X4971500Y-28045000D02*
X4931500Y-28085000D01*
X4959000Y-28299000D02*
X4999000Y-28339000D01*
X4999000Y-28299000D02*
X4959000Y-28339000D01*
X4959000Y-29823000D02*
X4999000Y-29863000D01*
X4999000Y-29823000D02*
X4959000Y-29863000D01*
X5058500Y-27223000D02*
X5098500Y-27263000D01*
X5098500Y-27223000D02*
X5058500Y-27263000D01*
X5060000Y-4763000D02*
X5100000Y-4803000D01*
X5100000Y-4763000D02*
X5060000Y-4803000D01*
X5060000Y-6663000D02*
X5100000Y-6703000D01*
X5100000Y-6663000D02*
X5060000Y-6703000D01*
X5060000Y-8563000D02*
X5100000Y-8603000D01*
X5100000Y-8563000D02*
X5060000Y-8603000D01*
X5060000Y-10463000D02*
X5100000Y-10503000D01*
X5100000Y-10463000D02*
X5060000Y-10503000D01*
X5060000Y-12363000D02*
X5100000Y-12403000D01*
X5100000Y-12363000D02*
X5060000Y-12403000D01*
X5139000Y-14964000D02*
X5179000Y-15004000D01*
X5179000Y-14964000D02*
X5139000Y-15004000D01*
X5281000Y-22584000D02*
X5321000Y-22624000D01*
X5321000Y-22584000D02*
X5281000Y-22624000D01*
X5281000Y-24489000D02*
X5321000Y-24529000D01*
X5321000Y-24489000D02*
X5281000Y-24529000D01*
X5289000Y-20679000D02*
X5329000Y-20719000D01*
X5329000Y-20679000D02*
X5289000Y-20719000D01*
X5289000Y-14964000D02*
X5329000Y-15004000D01*
X5329000Y-14964000D02*
X5289000Y-15004000D01*
X5289000Y-16869000D02*
X5329000Y-16909000D01*
X5329000Y-16869000D02*
X5289000Y-16909000D01*
X5289000Y-18774000D02*
X5329000Y-18814000D01*
X5329000Y-18774000D02*
X5289000Y-18814000D01*
X5340000Y-25505000D02*
X5380000Y-25545000D01*
X5380000Y-25505000D02*
X5340000Y-25545000D01*
X5406550Y-25249275D02*
X5446550Y-25289275D01*
X5446550Y-25249275D02*
X5406550Y-25289275D01*
X5834000Y-26521000D02*
X5874000Y-26561000D01*
X5874000Y-26521000D02*
X5834000Y-26561000D01*
X6214000Y-28123000D02*
X6254000Y-28163000D01*
X6254000Y-28123000D02*
X6214000Y-28163000D01*
X6236500Y-26800500D02*
X6276500Y-26840500D01*
X6276500Y-26800500D02*
X6236500Y-26840500D01*
X6414000Y-28223000D02*
X6454000Y-28263000D01*
X6454000Y-28223000D02*
X6414000Y-28263000D01*
X6577500Y-26886500D02*
X6617500Y-26926500D01*
X6617500Y-26886500D02*
X6577500Y-26926500D01*
X6704500Y-27013500D02*
X6744500Y-27053500D01*
X6744500Y-27013500D02*
X6704500Y-27053500D01*
X6831500Y-27123000D02*
X6871500Y-27163000D01*
X6871500Y-27123000D02*
X6831500Y-27163000D01*
X6834980Y-28041520D02*
X6874980Y-28081520D01*
X6874980Y-28041520D02*
X6834980Y-28081520D01*
X6864000Y-28299000D02*
X6904000Y-28339000D01*
X6904000Y-28299000D02*
X6864000Y-28339000D01*
X6914000Y-30204000D02*
X6954000Y-30244000D01*
X6954000Y-30204000D02*
X6914000Y-30244000D01*
X6958500Y-27156000D02*
X6998500Y-27196000D01*
X6998500Y-27156000D02*
X6958500Y-27196000D01*
X6958500Y-28045000D02*
X6998500Y-28085000D01*
X6998500Y-28045000D02*
X6958500Y-28085000D01*
X6965000Y-4763000D02*
X7005000Y-4803000D01*
X7005000Y-4763000D02*
X6965000Y-4803000D01*
X6965000Y-6663000D02*
X7005000Y-6703000D01*
X7005000Y-6663000D02*
X6965000Y-6703000D01*
X6965000Y-8563000D02*
X7005000Y-8603000D01*
X7005000Y-8563000D02*
X6965000Y-8603000D01*
X6965000Y-10463000D02*
X7005000Y-10503000D01*
X7005000Y-10463000D02*
X6965000Y-10503000D01*
X6965000Y-12363000D02*
X7005000Y-12403000D01*
X7005000Y-12363000D02*
X6965000Y-12403000D01*
X7039000Y-14964000D02*
X7079000Y-15004000D01*
X7079000Y-14964000D02*
X7039000Y-15004000D01*
X7157000Y-30197000D02*
X7197000Y-30237000D01*
X7197000Y-30197000D02*
X7157000Y-30237000D01*
X7189000Y-14964000D02*
X7229000Y-15004000D01*
X7229000Y-14964000D02*
X7189000Y-15004000D01*
X7189000Y-18774000D02*
X7229000Y-18814000D01*
X7229000Y-18774000D02*
X7189000Y-18814000D01*
X7189000Y-20679000D02*
X7229000Y-20719000D01*
X7229000Y-20679000D02*
X7189000Y-20719000D01*
X7189000Y-22584000D02*
X7229000Y-22624000D01*
X7229000Y-22584000D02*
X7189000Y-22624000D01*
X7189000Y-24489000D02*
X7229000Y-24529000D01*
X7229000Y-24489000D02*
X7189000Y-24529000D01*
X7189000Y-16869000D02*
X7229000Y-16909000D01*
X7229000Y-16869000D02*
X7189000Y-16909000D01*
X7245000Y-25505000D02*
X7285000Y-25545000D01*
X7285000Y-25505000D02*
X7245000Y-25545000D01*
X7316550Y-25251000D02*
X7356550Y-25291000D01*
X7356550Y-25251000D02*
X7316550Y-25291000D01*
X7694000Y-26521000D02*
X7734000Y-26561000D01*
X7734000Y-26521000D02*
X7694000Y-26561000D01*
X8014000Y-28123000D02*
X8054000Y-28163000D01*
X8054000Y-28123000D02*
X8014000Y-28163000D01*
X8120250Y-26804250D02*
X8160250Y-26844250D01*
X8160250Y-26804250D02*
X8120250Y-26844250D01*
X8214000Y-28223000D02*
X8254000Y-28263000D01*
X8254000Y-28223000D02*
X8214000Y-28263000D01*
X8377500Y-26886500D02*
X8417500Y-26926500D01*
X8417500Y-26886500D02*
X8377500Y-26926500D01*
X8504500Y-26902000D02*
X8544500Y-26942000D01*
X8544500Y-26902000D02*
X8504500Y-26942000D01*
X8631500Y-27029000D02*
X8671500Y-27069000D01*
X8671500Y-27029000D02*
X8631500Y-27069000D01*
X8634980Y-28041520D02*
X8674980Y-28081520D01*
X8674980Y-28041520D02*
X8634980Y-28081520D01*
X8758500Y-27113500D02*
X8798500Y-27153500D01*
X8798500Y-27113500D02*
X8758500Y-27153500D01*
X8758500Y-28045000D02*
X8798500Y-28085000D01*
X8798500Y-28045000D02*
X8758500Y-28085000D01*
X8870000Y-4763000D02*
X8910000Y-4803000D01*
X8910000Y-4763000D02*
X8870000Y-4803000D01*
X8870000Y-6663000D02*
X8910000Y-6703000D01*
X8910000Y-6663000D02*
X8870000Y-6703000D01*
X8870000Y-8563000D02*
X8910000Y-8603000D01*
X8910000Y-8563000D02*
X8870000Y-8603000D01*
X8870000Y-10463000D02*
X8910000Y-10503000D01*
X8910000Y-10463000D02*
X8870000Y-10503000D01*
X8870000Y-12363000D02*
X8910000Y-12403000D01*
X8910000Y-12363000D02*
X8870000Y-12403000D01*
X8939000Y-15091000D02*
X8979000Y-15131000D01*
X8979000Y-15091000D02*
X8939000Y-15131000D01*
X9023000Y-25505000D02*
X9063000Y-25545000D01*
X9063000Y-25505000D02*
X9023000Y-25545000D01*
X9081000Y-20806000D02*
X9121000Y-20846000D01*
X9121000Y-20806000D02*
X9081000Y-20846000D01*
X9089000Y-15091000D02*
X9129000Y-15131000D01*
X9129000Y-15091000D02*
X9089000Y-15131000D01*
X9089000Y-16996000D02*
X9129000Y-17036000D01*
X9129000Y-16996000D02*
X9089000Y-17036000D01*
X9089000Y-18901000D02*
X9129000Y-18941000D01*
X9129000Y-18901000D02*
X9089000Y-18941000D01*
X9089000Y-22711000D02*
X9129000Y-22751000D01*
X9129000Y-22711000D02*
X9089000Y-22751000D01*
X9089000Y-24489000D02*
X9129000Y-24529000D01*
X9129000Y-24489000D02*
X9089000Y-24529000D01*
X9206550Y-25505000D02*
X9246550Y-25545000D01*
X9246550Y-25505000D02*
X9206550Y-25545000D01*
X9214000Y-27537000D02*
X9254000Y-27577000D01*
X9254000Y-27537000D02*
X9214000Y-27577000D01*
X9277000Y-27156000D02*
X9317000Y-27196000D01*
X9317000Y-27156000D02*
X9277000Y-27196000D01*
X9614000Y-26521000D02*
X9654000Y-26561000D01*
X9654000Y-26521000D02*
X9614000Y-26561000D01*
X9969500Y-29750550D02*
X10009500Y-29790550D01*
X10009500Y-29750550D02*
X9969500Y-29790550D01*
X10014000Y-28123000D02*
X10054000Y-28163000D01*
X10054000Y-28123000D02*
X10014000Y-28163000D01*
X10042000Y-26795000D02*
X10082000Y-26835000D01*
X10082000Y-26795000D02*
X10042000Y-26835000D01*
X10168950Y-29823000D02*
X10208950Y-29863000D01*
X10208950Y-29823000D02*
X10168950Y-29863000D01*
X10214000Y-29323000D02*
X10254000Y-29363000D01*
X10254000Y-29323000D02*
X10214000Y-29363000D01*
X10214000Y-28223000D02*
X10254000Y-28263000D01*
X10254000Y-28223000D02*
X10214000Y-28263000D01*
X10377500Y-26886500D02*
X10417500Y-26926500D01*
X10417500Y-26886500D02*
X10377500Y-26926500D01*
X10477500Y-29886500D02*
X10517500Y-29926500D01*
X10517500Y-29886500D02*
X10477500Y-29926500D01*
X10504500Y-26902000D02*
X10544500Y-26942000D01*
X10544500Y-26902000D02*
X10504500Y-26942000D01*
X10631500Y-27029000D02*
X10671500Y-27069000D01*
X10671500Y-27029000D02*
X10631500Y-27069000D01*
X10634980Y-28041520D02*
X10674980Y-28081520D01*
X10674980Y-28041520D02*
X10634980Y-28081520D01*
X10731500Y-29823000D02*
X10771500Y-29863000D01*
X10771500Y-29823000D02*
X10731500Y-29863000D01*
X10758500Y-27113500D02*
X10798500Y-27153500D01*
X10798500Y-27113500D02*
X10758500Y-27153500D01*
X10758500Y-28045000D02*
X10798500Y-28085000D01*
X10798500Y-28045000D02*
X10758500Y-28085000D01*
X10775000Y-4763000D02*
X10815000Y-4803000D01*
X10815000Y-4763000D02*
X10775000Y-4803000D01*
X10775000Y-6663000D02*
X10815000Y-6703000D01*
X10815000Y-6663000D02*
X10775000Y-6703000D01*
X10775000Y-8563000D02*
X10815000Y-8603000D01*
X10815000Y-8563000D02*
X10775000Y-8603000D01*
X10775000Y-10463000D02*
X10815000Y-10503000D01*
X10815000Y-10463000D02*
X10775000Y-10503000D01*
X10775000Y-12363000D02*
X10815000Y-12403000D01*
X10815000Y-12363000D02*
X10775000Y-12403000D01*
X10839000Y-14964000D02*
X10879000Y-15004000D01*
X10879000Y-14964000D02*
X10839000Y-15004000D01*
X10989000Y-16869000D02*
X11029000Y-16909000D01*
X11029000Y-16869000D02*
X10989000Y-16909000D01*
X10989000Y-18774000D02*
X11029000Y-18814000D01*
X11029000Y-18774000D02*
X10989000Y-18814000D01*
X10989000Y-14964000D02*
X11029000Y-15004000D01*
X11029000Y-14964000D02*
X10989000Y-15004000D01*
X10989000Y-20679000D02*
X11029000Y-20719000D01*
X11029000Y-20679000D02*
X10989000Y-20719000D01*
X10989000Y-22584000D02*
X11029000Y-22624000D01*
X11029000Y-22584000D02*
X10989000Y-22624000D01*
X10989000Y-24489000D02*
X11029000Y-24529000D01*
X11029000Y-24489000D02*
X10989000Y-24529000D01*
X11055000Y-25505000D02*
X11095000Y-25545000D01*
X11095000Y-25505000D02*
X11055000Y-25545000D01*
X11182000Y-25251000D02*
X11222000Y-25291000D01*
X11222000Y-25251000D02*
X11182000Y-25291000D01*
X11511000Y-31195450D02*
X11551000Y-31235450D01*
X11551000Y-31195450D02*
X11511000Y-31235450D01*
X11569500Y-29823000D02*
X11609500Y-29863000D01*
X11609500Y-29823000D02*
X11569500Y-29863000D01*
X11734000Y-26521000D02*
X11774000Y-26561000D01*
X11774000Y-26521000D02*
X11734000Y-26561000D01*
X11892108Y-30295550D02*
X11932108Y-30335550D01*
X11932108Y-30295550D02*
X11892108Y-30335550D01*
X11914000Y-28123000D02*
X11954000Y-28163000D01*
X11954000Y-28123000D02*
X11914000Y-28163000D01*
X12014000Y-28223000D02*
X12054000Y-28263000D01*
X12054000Y-28223000D02*
X12014000Y-28263000D01*
X12187750Y-26831750D02*
X12227750Y-26871750D01*
X12227750Y-26831750D02*
X12187750Y-26871750D01*
X12325000Y-28045000D02*
X12365000Y-28085000D01*
X12365000Y-28045000D02*
X12325000Y-28085000D01*
X12331500Y-29823000D02*
X12371500Y-29863000D01*
X12371500Y-29823000D02*
X12331500Y-29863000D01*
X12404500Y-26913500D02*
X12444500Y-26953500D01*
X12444500Y-26913500D02*
X12404500Y-26953500D01*
X12531500Y-27023000D02*
X12571500Y-27063000D01*
X12571500Y-27023000D02*
X12531500Y-27063000D01*
X12609500Y-14933500D02*
X12649500Y-14973500D01*
X12649500Y-14933500D02*
X12609500Y-14973500D01*
X12658500Y-27123000D02*
X12698500Y-27163000D01*
X12698500Y-27123000D02*
X12658500Y-27163000D01*
X12658500Y-28045000D02*
X12698500Y-28085000D01*
X12698500Y-28045000D02*
X12658500Y-28085000D01*
X12680000Y-4763000D02*
X12720000Y-4803000D01*
X12720000Y-4763000D02*
X12680000Y-4803000D01*
X12680000Y-6663000D02*
X12720000Y-6703000D01*
X12720000Y-6663000D02*
X12680000Y-6703000D01*
X12680000Y-8563000D02*
X12720000Y-8603000D01*
X12720000Y-8563000D02*
X12680000Y-8603000D01*
X12680000Y-10455000D02*
X12720000Y-10495000D01*
X12720000Y-10455000D02*
X12680000Y-10495000D01*
X12889000Y-16869000D02*
X12929000Y-16909000D01*
X12929000Y-16869000D02*
X12889000Y-16909000D01*
X12889000Y-18774000D02*
X12929000Y-18814000D01*
X12929000Y-18774000D02*
X12889000Y-18814000D01*
X12889000Y-23600000D02*
X12929000Y-23640000D01*
X12929000Y-23600000D02*
X12889000Y-23640000D01*
X12901500Y-20679000D02*
X12941500Y-20719000D01*
X12941500Y-20679000D02*
X12901500Y-20719000D01*
X13087000Y-15218000D02*
X13127000Y-15258000D01*
X13127000Y-15218000D02*
X13087000Y-15258000D01*
X13569000Y-12213000D02*
X13609000Y-12253000D01*
X13609000Y-12213000D02*
X13569000Y-12253000D01*
X13569000Y-12363000D02*
X13609000Y-12403000D01*
X13609000Y-12363000D02*
X13569000Y-12403000D01*
X14314500Y-10313000D02*
X14354500Y-10353000D01*
X14354500Y-10313000D02*
X14314500Y-10353000D01*
X14585000Y-4605000D02*
X14625000Y-4645000D01*
X14625000Y-4605000D02*
X14585000Y-4645000D01*
X14585000Y-4755000D02*
X14625000Y-4795000D01*
X14625000Y-4755000D02*
X14585000Y-4795000D01*
X14585000Y-6513000D02*
X14625000Y-6553000D01*
X14625000Y-6513000D02*
X14585000Y-6553000D01*
X14585000Y-6663000D02*
X14625000Y-6703000D01*
X14625000Y-6663000D02*
X14585000Y-6703000D01*
X14585000Y-8413000D02*
X14625000Y-8453000D01*
X14625000Y-8413000D02*
X14585000Y-8453000D01*
X14585000Y-8563000D02*
X14625000Y-8603000D01*
X14625000Y-8563000D02*
X14585000Y-8603000D01*
X14585000Y-10463000D02*
X14625000Y-10503000D01*
X14625000Y-10463000D02*
X14585000Y-10503000D01*
X14814000Y-29723000D02*
X14854000Y-29763000D01*
X14854000Y-29723000D02*
X14814000Y-29763000D01*
X15511950Y-3409000D02*
X15551950Y-3449000D01*
X15551950Y-3409000D02*
X15511950Y-3449000D01*
X15511950Y-9080000D02*
X15551950Y-9120000D01*
X15551950Y-9080000D02*
X15511950Y-9120000D01*
X15511950Y-11129000D02*
X15551950Y-11169000D01*
X15551950Y-11129000D02*
X15511950Y-11169000D01*
X15546050Y-5352450D02*
X15586050Y-5392450D01*
X15586050Y-5352450D02*
X15546050Y-5392450D01*
X15571000Y-7252450D02*
X15611000Y-7292450D01*
X15611000Y-7252450D02*
X15571000Y-7292450D01*
X15829500Y-5792500D02*
X15869500Y-5832500D01*
X15869500Y-5792500D02*
X15829500Y-5832500D01*
X15830500Y-11562500D02*
X15870500Y-11602500D01*
X15870500Y-11562500D02*
X15830500Y-11602500D01*
X15859500Y-3862500D02*
X15899500Y-3902500D01*
X15899500Y-3862500D02*
X15859500Y-3902500D01*
X15859500Y-7662500D02*
X15899500Y-7702500D01*
X15899500Y-7662500D02*
X15859500Y-7702500D01*
X15869500Y-9552500D02*
X15909500Y-9592500D01*
X15909500Y-9552500D02*
X15869500Y-9592500D01*
X15932500Y-3989500D02*
X15972500Y-4029500D01*
X15972500Y-3989500D02*
X15932500Y-4029500D01*
X15932500Y-7789500D02*
X15972500Y-7829500D01*
X15972500Y-7789500D02*
X15932500Y-7829500D01*
X15932500Y-9689500D02*
X15972500Y-9729500D01*
X15972500Y-9689500D02*
X15932500Y-9729500D01*
X15932500Y-11689500D02*
X15972500Y-11729500D01*
X15972500Y-11689500D02*
X15932500Y-11729500D01*
X15964500Y-5957500D02*
X16004500Y-5997500D01*
X16004500Y-5957500D02*
X15964500Y-5997500D01*
X16005500Y-4116500D02*
X16045500Y-4156500D01*
X16045500Y-4116500D02*
X16005500Y-4156500D01*
X16005500Y-7916500D02*
X16045500Y-7956500D01*
X16045500Y-7916500D02*
X16005500Y-7956500D01*
X16005500Y-9816500D02*
X16045500Y-9856500D01*
X16045500Y-9816500D02*
X16005500Y-9856500D01*
X16005500Y-11816500D02*
X16045500Y-11856500D01*
X16045500Y-11816500D02*
X16005500Y-11856500D01*
X16037500Y-6084500D02*
X16077500Y-6124500D01*
X16077500Y-6084500D02*
X16037500Y-6124500D01*
X16109000Y-4243500D02*
X16149000Y-4283500D01*
X16149000Y-4243500D02*
X16109000Y-4283500D01*
X16109000Y-9943500D02*
X16149000Y-9983500D01*
X16149000Y-9943500D02*
X16109000Y-9983500D01*
X16110500Y-6211500D02*
X16150500Y-6251500D01*
X16150500Y-6211500D02*
X16110500Y-6251500D01*
X16113500Y-8043500D02*
X16153500Y-8083500D01*
X16153500Y-8043500D02*
X16113500Y-8083500D01*
X16178500Y-11943500D02*
X16218500Y-11983500D01*
X16218500Y-11943500D02*
X16178500Y-11983500D01*
X16204000Y-4393000D02*
X16244000Y-4433000D01*
X16244000Y-4393000D02*
X16204000Y-4433000D01*
X16206500Y-10070500D02*
X16246500Y-10110500D01*
X16246500Y-10070500D02*
X16206500Y-10110500D01*
X16218500Y-6338500D02*
X16258500Y-6378500D01*
X16258500Y-6338500D02*
X16218500Y-6378500D01*
X16225500Y-8231500D02*
X16265500Y-8271500D01*
X16265500Y-8231500D02*
X16225500Y-8271500D01*
X16363000Y-7219000D02*
X16403000Y-7259000D01*
X16403000Y-7219000D02*
X16363000Y-7259000D01*
X16617000Y-11918000D02*
X16657000Y-11958000D01*
X16657000Y-11918000D02*
X16617000Y-11958000D01*
X16744000Y-11664000D02*
X16784000Y-11704000D01*
X16784000Y-11664000D02*
X16744000Y-11704000D01*
X16899500Y-3564500D02*
X16939500Y-3604500D01*
X16939500Y-3564500D02*
X16899500Y-3604500D01*
X16899500Y-9222500D02*
X16939500Y-9262500D01*
X16939500Y-9222500D02*
X16899500Y-9262500D01*
X16900250Y-5538750D02*
X16940250Y-5578750D01*
X16940250Y-5538750D02*
X16900250Y-5578750D01*
X16998000Y-7346000D02*
X17038000Y-7386000D01*
X17038000Y-7346000D02*
X16998000Y-7386000D01*
X16998000Y-11156000D02*
X17038000Y-11196000D01*
X17038000Y-11156000D02*
X16998000Y-11196000D01*
X17070500Y-10070500D02*
X17110500Y-10110500D01*
X17110500Y-10070500D02*
X17070500Y-10110500D01*
X17080000Y-8180000D02*
X17120000Y-8220000D01*
X17120000Y-8180000D02*
X17080000Y-8220000D01*
X17080000Y-9124000D02*
X17120000Y-9164000D01*
X17120000Y-9124000D02*
X17080000Y-9164000D01*
X17080000Y-12080000D02*
X17120000Y-12120000D01*
X17120000Y-12080000D02*
X17080000Y-12120000D01*
X17083500Y-6338500D02*
X17123500Y-6378500D01*
X17123500Y-6338500D02*
X17083500Y-6378500D01*
X17089500Y-3889500D02*
X17129500Y-3929500D01*
X17129500Y-3889500D02*
X17089500Y-3929500D01*
X17089500Y-4370500D02*
X17129500Y-4410500D01*
X17129500Y-4370500D02*
X17089500Y-4410500D01*
X17152450Y-7346000D02*
X17192450Y-7386000D01*
X17192450Y-7346000D02*
X17152450Y-7386000D01*
X17161000Y-6461000D02*
X17201000Y-6501000D01*
X17201000Y-6461000D02*
X17161000Y-6501000D01*
X17161000Y-8299000D02*
X17201000Y-8339000D01*
X17201000Y-8299000D02*
X17161000Y-8339000D01*
X17162500Y-4497500D02*
X17202500Y-4537500D01*
X17202500Y-4497500D02*
X17162500Y-4537500D01*
X17162500Y-12197500D02*
X17202500Y-12237500D01*
X17202500Y-12197500D02*
X17162500Y-12237500D01*
X17180000Y-3380000D02*
X17220000Y-3420000D01*
X17220000Y-3380000D02*
X17180000Y-3420000D01*
X17180000Y-10180000D02*
X17220000Y-10220000D01*
X17220000Y-10180000D02*
X17180000Y-10220000D01*
X17224500Y-12324500D02*
X17264500Y-12364500D01*
X17264500Y-12324500D02*
X17224500Y-12364500D01*
X17252450Y-6061000D02*
X17292450Y-6101000D01*
X17292450Y-6061000D02*
X17252450Y-6101000D01*
X17252450Y-8380000D02*
X17292450Y-8420000D01*
X17292450Y-8380000D02*
X17252450Y-8420000D01*
X17280000Y-9780000D02*
X17320000Y-9820000D01*
X17320000Y-9780000D02*
X17280000Y-9820000D01*
X17324900Y-4080000D02*
X17364900Y-4120000D01*
X17364900Y-4080000D02*
X17324900Y-4120000D01*
X17324900Y-6511000D02*
X17364900Y-6551000D01*
X17364900Y-6511000D02*
X17324900Y-6551000D01*
X17361000Y-7880000D02*
X17401000Y-7920000D01*
X17401000Y-7880000D02*
X17361000Y-7920000D01*
X17361000Y-10261000D02*
X17401000Y-10301000D01*
X17401000Y-10261000D02*
X17361000Y-10301000D01*
X18180000Y-7180000D02*
X18220000Y-7220000D01*
X18220000Y-7180000D02*
X18180000Y-7220000D01*
X18858000Y-9042000D02*
X18898000Y-9082000D01*
X18898000Y-9042000D02*
X18858000Y-9082000D01*
X19280000Y-9255000D02*
X19320000Y-9295000D01*
X19320000Y-9255000D02*
X19280000Y-9295000D01*
X19665000Y-10902000D02*
X19705000Y-10942000D01*
X19705000Y-10902000D02*
X19665000Y-10942000D01*
X19792000Y-9378000D02*
X19832000Y-9418000D01*
X19832000Y-9378000D02*
X19792000Y-9418000D01*
X19792000Y-9943500D02*
X19832000Y-9983500D01*
X19832000Y-9943500D02*
X19792000Y-9983500D01*
X19792000Y-10197500D02*
X19832000Y-10237500D01*
X19832000Y-10197500D02*
X19792000Y-10237500D01*
X19792000Y-11410000D02*
X19832000Y-11450000D01*
X19832000Y-11410000D02*
X19792000Y-11450000D01*
X19792000Y-11797500D02*
X19832000Y-11837500D01*
X19832000Y-11797500D02*
X19792000Y-11837500D01*
X20080000Y-10780000D02*
X20120000Y-10820000D01*
X20120000Y-10780000D02*
X20080000Y-10820000D01*
D10*
X4267000Y-32129000D02*
G75*
G03*
X4267000Y-32129000I-50000J0D01*
G01*
X4267000Y-32383000D02*
G75*
G03*
X4267000Y-32383000I-50000J0D01*
G01*
X4521000Y-32129000D02*
G75*
G03*
X4521000Y-32129000I-50000J0D01*
G01*
X4521000Y-32383000D02*
G75*
G03*
X4521000Y-32383000I-50000J0D01*
G01*
X4775000Y-32129000D02*
G75*
G03*
X4775000Y-32129000I-50000J0D01*
G01*
X4775000Y-32383000D02*
G75*
G03*
X4775000Y-32383000I-50000J0D01*
G01*
X5186750Y-32256000D02*
G75*
G03*
X5186750Y-32256000I-50000J0D01*
G01*
X5440750Y-32256000D02*
G75*
G03*
X5440750Y-32256000I-50000J0D01*
G01*
X5694750Y-32256000D02*
G75*
G03*
X5694750Y-32256000I-50000J0D01*
G01*
X5948750Y-32256000D02*
G75*
G03*
X5948750Y-32256000I-50000J0D01*
G01*
X6202750Y-32256000D02*
G75*
G03*
X6202750Y-32256000I-50000J0D01*
G01*
X6456750Y-32256000D02*
G75*
G03*
X6456750Y-32256000I-50000J0D01*
G01*
X6710750Y-32256000D02*
G75*
G03*
X6710750Y-32256000I-50000J0D01*
G01*
X6964750Y-32256000D02*
G75*
G03*
X6964750Y-32256000I-50000J0D01*
G01*
X7218750Y-32256000D02*
G75*
G03*
X7218750Y-32256000I-50000J0D01*
G01*
X7472750Y-32256000D02*
G75*
G03*
X7472750Y-32256000I-50000J0D01*
G01*
X7726750Y-32256000D02*
G75*
G03*
X7726750Y-32256000I-50000J0D01*
G01*
X7980750Y-32256000D02*
G75*
G03*
X7980750Y-32256000I-50000J0D01*
G01*
X8234750Y-32256000D02*
G75*
G03*
X8234750Y-32256000I-50000J0D01*
G01*
X8488750Y-32256000D02*
G75*
G03*
X8488750Y-32256000I-50000J0D01*
G01*
X8742750Y-32256000D02*
G75*
G03*
X8742750Y-32256000I-50000J0D01*
G01*
X8996750Y-32256000D02*
G75*
G03*
X8996750Y-32256000I-50000J0D01*
G01*
X9729500Y-32127000D02*
G75*
G03*
X9729500Y-32127000I-50000J0D01*
G01*
X9729500Y-32381000D02*
G75*
G03*
X9729500Y-32381000I-50000J0D01*
G01*
X9954500Y-31240000D02*
G75*
G03*
X9954500Y-31240000I-50000J0D01*
G01*
X9954500Y-31494000D02*
G75*
G03*
X9954500Y-31494000I-50000J0D01*
G01*
X9983500Y-32127000D02*
G75*
G03*
X9983500Y-32127000I-50000J0D01*
G01*
X9983500Y-32381000D02*
G75*
G03*
X9983500Y-32381000I-50000J0D01*
G01*
X10208500Y-31240000D02*
G75*
G03*
X10208500Y-31240000I-50000J0D01*
G01*
X10208500Y-31494000D02*
G75*
G03*
X10208500Y-31494000I-50000J0D01*
G01*
X10237500Y-32127000D02*
G75*
G03*
X10237500Y-32127000I-50000J0D01*
G01*
X10237500Y-32381000D02*
G75*
G03*
X10237500Y-32381000I-50000J0D01*
G01*
X14935000Y-28700000D02*
G75*
G03*
X14935000Y-28700000I-50000J0D01*
G01*
X15189000Y-28700000D02*
G75*
G03*
X15189000Y-28700000I-50000J0D01*
G01*
X15256000Y-30065500D02*
G75*
G03*
X15256000Y-30065500I-50000J0D01*
G01*
X15256000Y-30319500D02*
G75*
G03*
X15256000Y-30319500I-50000J0D01*
G01*
X15256000Y-30573500D02*
G75*
G03*
X15256000Y-30573500I-50000J0D01*
G01*
X15256000Y-30827500D02*
G75*
G03*
X15256000Y-30827500I-50000J0D01*
G01*
X15256000Y-31081500D02*
G75*
G03*
X15256000Y-31081500I-50000J0D01*
G01*
X15256000Y-31335500D02*
G75*
G03*
X15256000Y-31335500I-50000J0D01*
G01*
X15256000Y-31589500D02*
G75*
G03*
X15256000Y-31589500I-50000J0D01*
G01*
X15256000Y-31843500D02*
G75*
G03*
X15256000Y-31843500I-50000J0D01*
G01*
X15443000Y-28700000D02*
G75*
G03*
X15443000Y-28700000I-50000J0D01*
G01*
X15697000Y-28700000D02*
G75*
G03*
X15697000Y-28700000I-50000J0D01*
G01*
X15951000Y-28700000D02*
G75*
G03*
X15951000Y-28700000I-50000J0D01*
G01*
X16205000Y-28700000D02*
G75*
G03*
X16205000Y-28700000I-50000J0D01*
G01*
X16242500Y-13341000D02*
G75*
G03*
X16242500Y-13341000I-50000J0D01*
G01*
X16459000Y-28700000D02*
G75*
G03*
X16459000Y-28700000I-50000J0D01*
G01*
X16496500Y-13341000D02*
G75*
G03*
X16496500Y-13341000I-50000J0D01*
G01*
X16713000Y-28700000D02*
G75*
G03*
X16713000Y-28700000I-50000J0D01*
G01*
X16750500Y-13341000D02*
G75*
G03*
X16750500Y-13341000I-50000J0D01*
G01*
X16967000Y-28700000D02*
G75*
G03*
X16967000Y-28700000I-50000J0D01*
G01*
X17004500Y-13341000D02*
G75*
G03*
X17004500Y-13341000I-50000J0D01*
G01*
X17221000Y-28700000D02*
G75*
G03*
X17221000Y-28700000I-50000J0D01*
G01*
X17258500Y-13341000D02*
G75*
G03*
X17258500Y-13341000I-50000J0D01*
G01*
X17475000Y-28700000D02*
G75*
G03*
X17475000Y-28700000I-50000J0D01*
G01*
X17512500Y-13341000D02*
G75*
G03*
X17512500Y-13341000I-50000J0D01*
G01*
X17729000Y-28700000D02*
G75*
G03*
X17729000Y-28700000I-50000J0D01*
G01*
X17766500Y-13341000D02*
G75*
G03*
X17766500Y-13341000I-50000J0D01*
G01*
X17983000Y-28700000D02*
G75*
G03*
X17983000Y-28700000I-50000J0D01*
G01*
X18020500Y-13341000D02*
G75*
G03*
X18020500Y-13341000I-50000J0D01*
G01*
X18237000Y-28700000D02*
G75*
G03*
X18237000Y-28700000I-50000J0D01*
G01*
X18274500Y-13341000D02*
G75*
G03*
X18274500Y-13341000I-50000J0D01*
G01*
X18528500Y-13341000D02*
G75*
G03*
X18528500Y-13341000I-50000J0D01*
G01*
X18592000Y-10033000D02*
G75*
G03*
X18592000Y-10033000I-50000J0D01*
G01*
X18592000Y-10287000D02*
G75*
G03*
X18592000Y-10287000I-50000J0D01*
G01*
X18592000Y-10541000D02*
G75*
G03*
X18592000Y-10541000I-50000J0D01*
G01*
X18592000Y-10795000D02*
G75*
G03*
X18592000Y-10795000I-50000J0D01*
G01*
X18592000Y-11049000D02*
G75*
G03*
X18592000Y-11049000I-50000J0D01*
G01*
X18592000Y-11303000D02*
G75*
G03*
X18592000Y-11303000I-50000J0D01*
G01*
X18592000Y-11557000D02*
G75*
G03*
X18592000Y-11557000I-50000J0D01*
G01*
X18592000Y-11811000D02*
G75*
G03*
X18592000Y-11811000I-50000J0D01*
G01*
X18592000Y-12065000D02*
G75*
G03*
X18592000Y-12065000I-50000J0D01*
G01*
X18592000Y-12319000D02*
G75*
G03*
X18592000Y-12319000I-50000J0D01*
G01*
X18782500Y-13341000D02*
G75*
G03*
X18782500Y-13341000I-50000J0D01*
G01*
X19036500Y-13341000D02*
G75*
G03*
X19036500Y-13341000I-50000J0D01*
G01*
X19290500Y-13341000D02*
G75*
G03*
X19290500Y-13341000I-50000J0D01*
G01*
X20370000Y-9398000D02*
G75*
G03*
X20370000Y-9398000I-50000J0D01*
G01*
X20370000Y-9652000D02*
G75*
G03*
X20370000Y-9652000I-50000J0D01*
G01*
X20624000Y-9398000D02*
G75*
G03*
X20624000Y-9398000I-50000J0D01*
G01*
X20624000Y-9652000D02*
G75*
G03*
X20624000Y-9652000I-50000J0D01*
G01*
X21134000Y-3683000D02*
G75*
G03*
X21134000Y-3683000I-50000J0D01*
G01*
X21134000Y-3937000D02*
G75*
G03*
X21134000Y-3937000I-50000J0D01*
G01*
X21134000Y-4191000D02*
G75*
G03*
X21134000Y-4191000I-50000J0D01*
G01*
X21138000Y-9145500D02*
G75*
G03*
X21138000Y-9145500I-50000J0D01*
G01*
X21138000Y-9399500D02*
G75*
G03*
X21138000Y-9399500I-50000J0D01*
G01*
X21138000Y-9653500D02*
G75*
G03*
X21138000Y-9653500I-50000J0D01*
G01*
X21259000Y-4602750D02*
G75*
G03*
X21259000Y-4602750I-50000J0D01*
G01*
X21259000Y-4856750D02*
G75*
G03*
X21259000Y-4856750I-50000J0D01*
G01*
X21259000Y-5110750D02*
G75*
G03*
X21259000Y-5110750I-50000J0D01*
G01*
X21259000Y-5364750D02*
G75*
G03*
X21259000Y-5364750I-50000J0D01*
G01*
X21259000Y-5618750D02*
G75*
G03*
X21259000Y-5618750I-50000J0D01*
G01*
X21259000Y-5872750D02*
G75*
G03*
X21259000Y-5872750I-50000J0D01*
G01*
X21259000Y-6126750D02*
G75*
G03*
X21259000Y-6126750I-50000J0D01*
G01*
X21259000Y-6380750D02*
G75*
G03*
X21259000Y-6380750I-50000J0D01*
G01*
X21259000Y-6634750D02*
G75*
G03*
X21259000Y-6634750I-50000J0D01*
G01*
X21259000Y-6888750D02*
G75*
G03*
X21259000Y-6888750I-50000J0D01*
G01*
X21259000Y-7142750D02*
G75*
G03*
X21259000Y-7142750I-50000J0D01*
G01*
X21259000Y-7396750D02*
G75*
G03*
X21259000Y-7396750I-50000J0D01*
G01*
X21259000Y-7650750D02*
G75*
G03*
X21259000Y-7650750I-50000J0D01*
G01*
X21259000Y-7904750D02*
G75*
G03*
X21259000Y-7904750I-50000J0D01*
G01*
X21259000Y-8158750D02*
G75*
G03*
X21259000Y-8158750I-50000J0D01*
G01*
X21259000Y-8412750D02*
G75*
G03*
X21259000Y-8412750I-50000J0D01*
G01*
X21388000Y-3683000D02*
G75*
G03*
X21388000Y-3683000I-50000J0D01*
G01*
X21388000Y-3937000D02*
G75*
G03*
X21388000Y-3937000I-50000J0D01*
G01*
X21388000Y-4191000D02*
G75*
G03*
X21388000Y-4191000I-50000J0D01*
G01*
X21392000Y-9145500D02*
G75*
G03*
X21392000Y-9145500I-50000J0D01*
G01*
X21392000Y-9399500D02*
G75*
G03*
X21392000Y-9399500I-50000J0D01*
G01*
X21392000Y-9653500D02*
G75*
G03*
X21392000Y-9653500I-50000J0D01*
G01*
D13*
X3621000Y-29503000D02*
X3621000Y-29605000D01*
X3570000Y-29554000D02*
X3672000Y-29554000D01*
X3621000Y-31281000D02*
X3621000Y-31383000D01*
X3570000Y-31332000D02*
X3672000Y-31332000D01*
X3875000Y-29503000D02*
X3875000Y-29605000D01*
X3824000Y-29554000D02*
X3926000Y-29554000D01*
X3875000Y-31281000D02*
X3875000Y-31383000D01*
X3824000Y-31332000D02*
X3926000Y-31332000D01*
X4129000Y-29503000D02*
X4129000Y-29605000D01*
X4078000Y-29554000D02*
X4180000Y-29554000D01*
X4129000Y-31281000D02*
X4129000Y-31383000D01*
X4078000Y-31332000D02*
X4180000Y-31332000D01*
X4383000Y-29503000D02*
X4383000Y-29605000D01*
X4332000Y-29554000D02*
X4434000Y-29554000D01*
X4383000Y-31281000D02*
X4383000Y-31383000D01*
X4332000Y-31332000D02*
X4434000Y-31332000D01*
X4637000Y-29503000D02*
X4637000Y-29605000D01*
X4586000Y-29554000D02*
X4688000Y-29554000D01*
X4637000Y-31281000D02*
X4637000Y-31383000D01*
X4586000Y-31332000D02*
X4688000Y-31332000D01*
X4891000Y-29503000D02*
X4891000Y-29605000D01*
X4840000Y-29554000D02*
X4942000Y-29554000D01*
X4891000Y-31281000D02*
X4891000Y-31383000D01*
X4840000Y-31332000D02*
X4942000Y-31332000D01*
X5145000Y-29503000D02*
X5145000Y-29605000D01*
X5094000Y-29554000D02*
X5196000Y-29554000D01*
X5145000Y-31281000D02*
X5145000Y-31383000D01*
X5094000Y-31332000D02*
X5196000Y-31332000D01*
X5399000Y-29503000D02*
X5399000Y-29605000D01*
X5348000Y-29554000D02*
X5450000Y-29554000D01*
X5399000Y-31281000D02*
X5399000Y-31383000D01*
X5348000Y-31332000D02*
X5450000Y-31332000D01*
X5653000Y-29503000D02*
X5653000Y-29605000D01*
X5602000Y-29554000D02*
X5704000Y-29554000D01*
X5653000Y-31281000D02*
X5653000Y-31383000D01*
X5602000Y-31332000D02*
X5704000Y-31332000D01*
X5907000Y-29503000D02*
X5907000Y-29605000D01*
X5856000Y-29554000D02*
X5958000Y-29554000D01*
X5907000Y-31281000D02*
X5907000Y-31383000D01*
X5856000Y-31332000D02*
X5958000Y-31332000D01*
X6161000Y-29503000D02*
X6161000Y-29605000D01*
X6110000Y-29554000D02*
X6212000Y-29554000D01*
X6161000Y-31281000D02*
X6161000Y-31383000D01*
X6110000Y-31332000D02*
X6212000Y-31332000D01*
X6415000Y-29503000D02*
X6415000Y-29605000D01*
X6364000Y-29554000D02*
X6466000Y-29554000D01*
X6415000Y-31281000D02*
X6415000Y-31383000D01*
X6364000Y-31332000D02*
X6466000Y-31332000D01*
X6669000Y-29503000D02*
X6669000Y-29605000D01*
X6618000Y-29554000D02*
X6720000Y-29554000D01*
X6669000Y-31281000D02*
X6669000Y-31383000D01*
X6618000Y-31332000D02*
X6720000Y-31332000D01*
X6923000Y-29503000D02*
X6923000Y-29605000D01*
X6872000Y-29554000D02*
X6974000Y-29554000D01*
X6923000Y-31281000D02*
X6923000Y-31383000D01*
X6872000Y-31332000D02*
X6974000Y-31332000D01*
X7177000Y-29503000D02*
X7177000Y-29605000D01*
X7126000Y-29554000D02*
X7228000Y-29554000D01*
X7177000Y-31281000D02*
X7177000Y-31383000D01*
X7126000Y-31332000D02*
X7228000Y-31332000D01*
X7431000Y-29503000D02*
X7431000Y-29605000D01*
X7380000Y-29554000D02*
X7482000Y-29554000D01*
X7431000Y-31281000D02*
X7431000Y-31383000D01*
X7380000Y-31332000D02*
X7482000Y-31332000D01*
X7685000Y-29503000D02*
X7685000Y-29605000D01*
X7634000Y-29554000D02*
X7736000Y-29554000D01*
X7685000Y-31281000D02*
X7685000Y-31383000D01*
X7634000Y-31332000D02*
X7736000Y-31332000D01*
X7939000Y-29503000D02*
X7939000Y-29605000D01*
X7888000Y-29554000D02*
X7990000Y-29554000D01*
X7939000Y-31281000D02*
X7939000Y-31383000D01*
X7888000Y-31332000D02*
X7990000Y-31332000D01*
X8193000Y-29503000D02*
X8193000Y-29605000D01*
X8142000Y-29554000D02*
X8244000Y-29554000D01*
X8193000Y-31281000D02*
X8193000Y-31383000D01*
X8142000Y-31332000D02*
X8244000Y-31332000D01*
X8424000Y-30138000D02*
X8424000Y-30240000D01*
X8373000Y-30189000D02*
X8475000Y-30189000D01*
X8424000Y-30392000D02*
X8424000Y-30494000D01*
X8373000Y-30443000D02*
X8475000Y-30443000D01*
X8424000Y-30646000D02*
X8424000Y-30748000D01*
X8373000Y-30697000D02*
X8475000Y-30697000D01*
X8447000Y-29503000D02*
X8447000Y-29605000D01*
X8396000Y-29554000D02*
X8498000Y-29554000D01*
X8447000Y-31281000D02*
X8447000Y-31383000D01*
X8396000Y-31332000D02*
X8498000Y-31332000D01*
X18573000Y-3036000D02*
X18573000Y-3138000D01*
X18522000Y-3087000D02*
X18624000Y-3087000D01*
X18573000Y-3290000D02*
X18573000Y-3392000D01*
X18522000Y-3341000D02*
X18624000Y-3341000D01*
X18573000Y-3544000D02*
X18573000Y-3646000D01*
X18522000Y-3595000D02*
X18624000Y-3595000D01*
X18573000Y-3798000D02*
X18573000Y-3900000D01*
X18522000Y-3849000D02*
X18624000Y-3849000D01*
X18573000Y-4052000D02*
X18573000Y-4154000D01*
X18522000Y-4103000D02*
X18624000Y-4103000D01*
X18573000Y-4306000D02*
X18573000Y-4408000D01*
X18522000Y-4357000D02*
X18624000Y-4357000D01*
X18573000Y-4560000D02*
X18573000Y-4662000D01*
X18522000Y-4611000D02*
X18624000Y-4611000D01*
X18573000Y-4814000D02*
X18573000Y-4916000D01*
X18522000Y-4865000D02*
X18624000Y-4865000D01*
X18573000Y-5068000D02*
X18573000Y-5170000D01*
X18522000Y-5119000D02*
X18624000Y-5119000D01*
X18573000Y-5322000D02*
X18573000Y-5424000D01*
X18522000Y-5373000D02*
X18624000Y-5373000D01*
X18573000Y-5576000D02*
X18573000Y-5678000D01*
X18522000Y-5627000D02*
X18624000Y-5627000D01*
X18573000Y-5830000D02*
X18573000Y-5932000D01*
X18522000Y-5881000D02*
X18624000Y-5881000D01*
X18573000Y-6084000D02*
X18573000Y-6186000D01*
X18522000Y-6135000D02*
X18624000Y-6135000D01*
X18573000Y-6338000D02*
X18573000Y-6440000D01*
X18522000Y-6389000D02*
X18624000Y-6389000D01*
X18573000Y-6592000D02*
X18573000Y-6694000D01*
X18522000Y-6643000D02*
X18624000Y-6643000D01*
X18573000Y-6846000D02*
X18573000Y-6948000D01*
X18522000Y-6897000D02*
X18624000Y-6897000D01*
X18573000Y-7100000D02*
X18573000Y-7202000D01*
X18522000Y-7151000D02*
X18624000Y-7151000D01*
X18573000Y-7354000D02*
X18573000Y-7456000D01*
X18522000Y-7405000D02*
X18624000Y-7405000D01*
X18573000Y-7608000D02*
X18573000Y-7710000D01*
X18522000Y-7659000D02*
X18624000Y-7659000D01*
X18573000Y-7862000D02*
X18573000Y-7964000D01*
X18522000Y-7913000D02*
X18624000Y-7913000D01*
X19208000Y-7839000D02*
X19208000Y-7941000D01*
X19157000Y-7890000D02*
X19259000Y-7890000D01*
X19462000Y-7839000D02*
X19462000Y-7941000D01*
X19411000Y-7890000D02*
X19513000Y-7890000D01*
X19716000Y-7839000D02*
X19716000Y-7941000D01*
X19665000Y-7890000D02*
X19767000Y-7890000D01*
X20351000Y-3036000D02*
X20351000Y-3138000D01*
X20300000Y-3087000D02*
X20402000Y-3087000D01*
X20351000Y-3290000D02*
X20351000Y-3392000D01*
X20300000Y-3341000D02*
X20402000Y-3341000D01*
X20351000Y-3544000D02*
X20351000Y-3646000D01*
X20300000Y-3595000D02*
X20402000Y-3595000D01*
X20351000Y-3798000D02*
X20351000Y-3900000D01*
X20300000Y-3849000D02*
X20402000Y-3849000D01*
X20351000Y-4052000D02*
X20351000Y-4154000D01*
X20300000Y-4103000D02*
X20402000Y-4103000D01*
X20351000Y-4306000D02*
X20351000Y-4408000D01*
X20300000Y-4357000D02*
X20402000Y-4357000D01*
X20351000Y-4560000D02*
X20351000Y-4662000D01*
X20300000Y-4611000D02*
X20402000Y-4611000D01*
X20351000Y-4814000D02*
X20351000Y-4916000D01*
X20300000Y-4865000D02*
X20402000Y-4865000D01*
X20351000Y-5068000D02*
X20351000Y-5170000D01*
X20300000Y-5119000D02*
X20402000Y-5119000D01*
X20351000Y-5322000D02*
X20351000Y-5424000D01*
X20300000Y-5373000D02*
X20402000Y-5373000D01*
X20351000Y-5576000D02*
X20351000Y-5678000D01*
X20300000Y-5627000D02*
X20402000Y-5627000D01*
X20351000Y-5830000D02*
X20351000Y-5932000D01*
X20300000Y-5881000D02*
X20402000Y-5881000D01*
X20351000Y-6084000D02*
X20351000Y-6186000D01*
X20300000Y-6135000D02*
X20402000Y-6135000D01*
X20351000Y-6338000D02*
X20351000Y-6440000D01*
X20300000Y-6389000D02*
X20402000Y-6389000D01*
X20351000Y-6592000D02*
X20351000Y-6694000D01*
X20300000Y-6643000D02*
X20402000Y-6643000D01*
X20351000Y-6846000D02*
X20351000Y-6948000D01*
X20300000Y-6897000D02*
X20402000Y-6897000D01*
X20351000Y-7100000D02*
X20351000Y-7202000D01*
X20300000Y-7151000D02*
X20402000Y-7151000D01*
X20351000Y-7354000D02*
X20351000Y-7456000D01*
X20300000Y-7405000D02*
X20402000Y-7405000D01*
X20351000Y-7608000D02*
X20351000Y-7710000D01*
X20300000Y-7659000D02*
X20402000Y-7659000D01*
X20351000Y-7862000D02*
X20351000Y-7964000D01*
X20300000Y-7913000D02*
X20402000Y-7913000D01*
D14*
X4234882Y-3999882D02*
X4234882Y-3892118D01*
X4127118Y-3892118D01*
X4127118Y-3999882D01*
X4234882Y-3999882D01*
X4234882Y-5899882D02*
X4234882Y-5792118D01*
X4127118Y-5792118D01*
X4127118Y-5899882D01*
X4234882Y-5899882D01*
X4234882Y-7799882D02*
X4234882Y-7692118D01*
X4127118Y-7692118D01*
X4127118Y-7799882D01*
X4234882Y-7799882D01*
X4234882Y-9699882D02*
X4234882Y-9592118D01*
X4127118Y-9592118D01*
X4127118Y-9699882D01*
X4234882Y-9699882D01*
X4234882Y-11599882D02*
X4234882Y-11492118D01*
X4127118Y-11492118D01*
X4127118Y-11599882D01*
X4234882Y-11599882D01*
X4271882Y-21042882D02*
X4271882Y-20935118D01*
X4164118Y-20935118D01*
X4164118Y-21042882D01*
X4271882Y-21042882D01*
X4271882Y-22942882D02*
X4271882Y-22835118D01*
X4164118Y-22835118D01*
X4164118Y-22942882D01*
X4271882Y-22942882D01*
X4271882Y-24842882D02*
X4271882Y-24735118D01*
X4164118Y-24735118D01*
X4164118Y-24842882D01*
X4271882Y-24842882D01*
X4271882Y-15342882D02*
X4271882Y-15235118D01*
X4164118Y-15235118D01*
X4164118Y-15342882D01*
X4271882Y-15342882D01*
X4271882Y-17242882D02*
X4271882Y-17135118D01*
X4164118Y-17135118D01*
X4164118Y-17242882D01*
X4271882Y-17242882D01*
X4271882Y-19142882D02*
X4271882Y-19035118D01*
X4164118Y-19035118D01*
X4164118Y-19142882D01*
X4271882Y-19142882D01*
X4525882Y-21677882D02*
X4525882Y-21570118D01*
X4418118Y-21570118D01*
X4418118Y-21677882D01*
X4525882Y-21677882D01*
X4525882Y-23577882D02*
X4525882Y-23470118D01*
X4418118Y-23470118D01*
X4418118Y-23577882D01*
X4525882Y-23577882D01*
X4525882Y-25477882D02*
X4525882Y-25370118D01*
X4418118Y-25370118D01*
X4418118Y-25477882D01*
X4525882Y-25477882D01*
X4525882Y-15977882D02*
X4525882Y-15870118D01*
X4418118Y-15870118D01*
X4418118Y-15977882D01*
X4525882Y-15977882D01*
X4525882Y-17877882D02*
X4525882Y-17770118D01*
X4418118Y-17770118D01*
X4418118Y-17877882D01*
X4525882Y-17877882D01*
X4525882Y-19777882D02*
X4525882Y-19670118D01*
X4418118Y-19670118D01*
X4418118Y-19777882D01*
X4525882Y-19777882D01*
X4869882Y-3745882D02*
X4869882Y-3638118D01*
X4762118Y-3638118D01*
X4762118Y-3745882D01*
X4869882Y-3745882D01*
X4869882Y-5645882D02*
X4869882Y-5538118D01*
X4762118Y-5538118D01*
X4762118Y-5645882D01*
X4869882Y-5645882D01*
X4869882Y-7545882D02*
X4869882Y-7438118D01*
X4762118Y-7438118D01*
X4762118Y-7545882D01*
X4869882Y-7545882D01*
X4869882Y-9445882D02*
X4869882Y-9338118D01*
X4762118Y-9338118D01*
X4762118Y-9445882D01*
X4869882Y-9445882D01*
X4869882Y-11345882D02*
X4869882Y-11238118D01*
X4762118Y-11238118D01*
X4762118Y-11345882D01*
X4869882Y-11345882D01*
X6134882Y-3999882D02*
X6134882Y-3892118D01*
X6027118Y-3892118D01*
X6027118Y-3999882D01*
X6134882Y-3999882D01*
X6134882Y-5899882D02*
X6134882Y-5792118D01*
X6027118Y-5792118D01*
X6027118Y-5899882D01*
X6134882Y-5899882D01*
X6134882Y-7799882D02*
X6134882Y-7692118D01*
X6027118Y-7692118D01*
X6027118Y-7799882D01*
X6134882Y-7799882D01*
X6134882Y-9699882D02*
X6134882Y-9592118D01*
X6027118Y-9592118D01*
X6027118Y-9699882D01*
X6134882Y-9699882D01*
X6134882Y-11599882D02*
X6134882Y-11492118D01*
X6027118Y-11492118D01*
X6027118Y-11599882D01*
X6134882Y-11599882D01*
X6171882Y-15342882D02*
X6171882Y-15235118D01*
X6064118Y-15235118D01*
X6064118Y-15342882D01*
X6171882Y-15342882D01*
X6171882Y-17250882D02*
X6171882Y-17143118D01*
X6064118Y-17143118D01*
X6064118Y-17250882D01*
X6171882Y-17250882D01*
X6171882Y-19142882D02*
X6171882Y-19035118D01*
X6064118Y-19035118D01*
X6064118Y-19142882D01*
X6171882Y-19142882D01*
X6171882Y-21042882D02*
X6171882Y-20935118D01*
X6064118Y-20935118D01*
X6064118Y-21042882D01*
X6171882Y-21042882D01*
X6171882Y-22942882D02*
X6171882Y-22835118D01*
X6064118Y-22835118D01*
X6064118Y-22942882D01*
X6171882Y-22942882D01*
X6171882Y-24842882D02*
X6171882Y-24735118D01*
X6064118Y-24735118D01*
X6064118Y-24842882D01*
X6171882Y-24842882D01*
X6425882Y-15977882D02*
X6425882Y-15870118D01*
X6318118Y-15870118D01*
X6318118Y-15977882D01*
X6425882Y-15977882D01*
X6425882Y-17885882D02*
X6425882Y-17778118D01*
X6318118Y-17778118D01*
X6318118Y-17885882D01*
X6425882Y-17885882D01*
X6425882Y-19777882D02*
X6425882Y-19670118D01*
X6318118Y-19670118D01*
X6318118Y-19777882D01*
X6425882Y-19777882D01*
X6425882Y-21677882D02*
X6425882Y-21570118D01*
X6318118Y-21570118D01*
X6318118Y-21677882D01*
X6425882Y-21677882D01*
X6425882Y-23577882D02*
X6425882Y-23470118D01*
X6318118Y-23470118D01*
X6318118Y-23577882D01*
X6425882Y-23577882D01*
X6425882Y-25477882D02*
X6425882Y-25370118D01*
X6318118Y-25370118D01*
X6318118Y-25477882D01*
X6425882Y-25477882D01*
X6769882Y-3745882D02*
X6769882Y-3638118D01*
X6662118Y-3638118D01*
X6662118Y-3745882D01*
X6769882Y-3745882D01*
X6769882Y-5645882D02*
X6769882Y-5538118D01*
X6662118Y-5538118D01*
X6662118Y-5645882D01*
X6769882Y-5645882D01*
X6769882Y-7545882D02*
X6769882Y-7438118D01*
X6662118Y-7438118D01*
X6662118Y-7545882D01*
X6769882Y-7545882D01*
X6769882Y-9445882D02*
X6769882Y-9338118D01*
X6662118Y-9338118D01*
X6662118Y-9445882D01*
X6769882Y-9445882D01*
X6769882Y-11345882D02*
X6769882Y-11238118D01*
X6662118Y-11238118D01*
X6662118Y-11345882D01*
X6769882Y-11345882D01*
X8034882Y-3999882D02*
X8034882Y-3892118D01*
X7927118Y-3892118D01*
X7927118Y-3999882D01*
X8034882Y-3999882D01*
X8034882Y-5899882D02*
X8034882Y-5792118D01*
X7927118Y-5792118D01*
X7927118Y-5899882D01*
X8034882Y-5899882D01*
X8034882Y-7799882D02*
X8034882Y-7692118D01*
X7927118Y-7692118D01*
X7927118Y-7799882D01*
X8034882Y-7799882D01*
X8034882Y-9699882D02*
X8034882Y-9592118D01*
X7927118Y-9592118D01*
X7927118Y-9699882D01*
X8034882Y-9699882D01*
X8034882Y-11599882D02*
X8034882Y-11492118D01*
X7927118Y-11492118D01*
X7927118Y-11599882D01*
X8034882Y-11599882D01*
X8071882Y-15342882D02*
X8071882Y-15235118D01*
X7964118Y-15235118D01*
X7964118Y-15342882D01*
X8071882Y-15342882D01*
X8071882Y-17242882D02*
X8071882Y-17135118D01*
X7964118Y-17135118D01*
X7964118Y-17242882D01*
X8071882Y-17242882D01*
X8071882Y-19142882D02*
X8071882Y-19035118D01*
X7964118Y-19035118D01*
X7964118Y-19142882D01*
X8071882Y-19142882D01*
X8071882Y-21042882D02*
X8071882Y-20935118D01*
X7964118Y-20935118D01*
X7964118Y-21042882D01*
X8071882Y-21042882D01*
X8071882Y-22942882D02*
X8071882Y-22835118D01*
X7964118Y-22835118D01*
X7964118Y-22942882D01*
X8071882Y-22942882D01*
X8071882Y-24842882D02*
X8071882Y-24735118D01*
X7964118Y-24735118D01*
X7964118Y-24842882D01*
X8071882Y-24842882D01*
X8325882Y-15977882D02*
X8325882Y-15870118D01*
X8218118Y-15870118D01*
X8218118Y-15977882D01*
X8325882Y-15977882D01*
X8325882Y-17877882D02*
X8325882Y-17770118D01*
X8218118Y-17770118D01*
X8218118Y-17877882D01*
X8325882Y-17877882D01*
X8325882Y-19777882D02*
X8325882Y-19670118D01*
X8218118Y-19670118D01*
X8218118Y-19777882D01*
X8325882Y-19777882D01*
X8325882Y-21677882D02*
X8325882Y-21570118D01*
X8218118Y-21570118D01*
X8218118Y-21677882D01*
X8325882Y-21677882D01*
X8325882Y-23577882D02*
X8325882Y-23470118D01*
X8218118Y-23470118D01*
X8218118Y-23577882D01*
X8325882Y-23577882D01*
X8325882Y-25477882D02*
X8325882Y-25370118D01*
X8218118Y-25370118D01*
X8218118Y-25477882D01*
X8325882Y-25477882D01*
X8669882Y-3745882D02*
X8669882Y-3638118D01*
X8562118Y-3638118D01*
X8562118Y-3745882D01*
X8669882Y-3745882D01*
X8669882Y-5645882D02*
X8669882Y-5538118D01*
X8562118Y-5538118D01*
X8562118Y-5645882D01*
X8669882Y-5645882D01*
X8669882Y-7545882D02*
X8669882Y-7438118D01*
X8562118Y-7438118D01*
X8562118Y-7545882D01*
X8669882Y-7545882D01*
X8669882Y-9445882D02*
X8669882Y-9338118D01*
X8562118Y-9338118D01*
X8562118Y-9445882D01*
X8669882Y-9445882D01*
X8669882Y-11345882D02*
X8669882Y-11238118D01*
X8562118Y-11238118D01*
X8562118Y-11345882D01*
X8669882Y-11345882D01*
X9934882Y-3999882D02*
X9934882Y-3892118D01*
X9827118Y-3892118D01*
X9827118Y-3999882D01*
X9934882Y-3999882D01*
X9934882Y-5899882D02*
X9934882Y-5792118D01*
X9827118Y-5792118D01*
X9827118Y-5899882D01*
X9934882Y-5899882D01*
X9934882Y-7799882D02*
X9934882Y-7692118D01*
X9827118Y-7692118D01*
X9827118Y-7799882D01*
X9934882Y-7799882D01*
X9934882Y-9699882D02*
X9934882Y-9592118D01*
X9827118Y-9592118D01*
X9827118Y-9699882D01*
X9934882Y-9699882D01*
X9934882Y-11599882D02*
X9934882Y-11492118D01*
X9827118Y-11492118D01*
X9827118Y-11599882D01*
X9934882Y-11599882D01*
X9971882Y-15342882D02*
X9971882Y-15235118D01*
X9864118Y-15235118D01*
X9864118Y-15342882D01*
X9971882Y-15342882D01*
X9971882Y-17242882D02*
X9971882Y-17135118D01*
X9864118Y-17135118D01*
X9864118Y-17242882D01*
X9971882Y-17242882D01*
X9971882Y-19142882D02*
X9971882Y-19035118D01*
X9864118Y-19035118D01*
X9864118Y-19142882D01*
X9971882Y-19142882D01*
X9971882Y-21034882D02*
X9971882Y-20927118D01*
X9864118Y-20927118D01*
X9864118Y-21034882D01*
X9971882Y-21034882D01*
X9971882Y-22942882D02*
X9971882Y-22835118D01*
X9864118Y-22835118D01*
X9864118Y-22942882D01*
X9971882Y-22942882D01*
X9971882Y-24842882D02*
X9971882Y-24735118D01*
X9864118Y-24735118D01*
X9864118Y-24842882D01*
X9971882Y-24842882D01*
X10225882Y-15977882D02*
X10225882Y-15870118D01*
X10118118Y-15870118D01*
X10118118Y-15977882D01*
X10225882Y-15977882D01*
X10225882Y-17877882D02*
X10225882Y-17770118D01*
X10118118Y-17770118D01*
X10118118Y-17877882D01*
X10225882Y-17877882D01*
X10225882Y-19777882D02*
X10225882Y-19670118D01*
X10118118Y-19670118D01*
X10118118Y-19777882D01*
X10225882Y-19777882D01*
X10225882Y-21669882D02*
X10225882Y-21562118D01*
X10118118Y-21562118D01*
X10118118Y-21669882D01*
X10225882Y-21669882D01*
X10225882Y-23577882D02*
X10225882Y-23470118D01*
X10118118Y-23470118D01*
X10118118Y-23577882D01*
X10225882Y-23577882D01*
X10225882Y-25477882D02*
X10225882Y-25370118D01*
X10118118Y-25370118D01*
X10118118Y-25477882D01*
X10225882Y-25477882D01*
X10569882Y-3745882D02*
X10569882Y-3638118D01*
X10462118Y-3638118D01*
X10462118Y-3745882D01*
X10569882Y-3745882D01*
X10569882Y-5645882D02*
X10569882Y-5538118D01*
X10462118Y-5538118D01*
X10462118Y-5645882D01*
X10569882Y-5645882D01*
X10569882Y-7545882D02*
X10569882Y-7438118D01*
X10462118Y-7438118D01*
X10462118Y-7545882D01*
X10569882Y-7545882D01*
X10569882Y-9445882D02*
X10569882Y-9338118D01*
X10462118Y-9338118D01*
X10462118Y-9445882D01*
X10569882Y-9445882D01*
X10569882Y-11345882D02*
X10569882Y-11238118D01*
X10462118Y-11238118D01*
X10462118Y-11345882D01*
X10569882Y-11345882D01*
X11834882Y-3999882D02*
X11834882Y-3892118D01*
X11727118Y-3892118D01*
X11727118Y-3999882D01*
X11834882Y-3999882D01*
X11834882Y-5899882D02*
X11834882Y-5792118D01*
X11727118Y-5792118D01*
X11727118Y-5899882D01*
X11834882Y-5899882D01*
X11834882Y-7799882D02*
X11834882Y-7692118D01*
X11727118Y-7692118D01*
X11727118Y-7799882D01*
X11834882Y-7799882D01*
X11834882Y-9699882D02*
X11834882Y-9592118D01*
X11727118Y-9592118D01*
X11727118Y-9699882D01*
X11834882Y-9699882D01*
X11871882Y-15342882D02*
X11871882Y-15235118D01*
X11764118Y-15235118D01*
X11764118Y-15342882D01*
X11871882Y-15342882D01*
X11871882Y-17242882D02*
X11871882Y-17135118D01*
X11764118Y-17135118D01*
X11764118Y-17242882D01*
X11871882Y-17242882D01*
X11871882Y-19142882D02*
X11871882Y-19035118D01*
X11764118Y-19035118D01*
X11764118Y-19142882D01*
X11871882Y-19142882D01*
X11871882Y-21042882D02*
X11871882Y-20935118D01*
X11764118Y-20935118D01*
X11764118Y-21042882D01*
X11871882Y-21042882D01*
X11871882Y-23890382D02*
X11871882Y-23782618D01*
X11764118Y-23782618D01*
X11764118Y-23890382D01*
X11871882Y-23890382D01*
X12125882Y-15977882D02*
X12125882Y-15870118D01*
X12018118Y-15870118D01*
X12018118Y-15977882D01*
X12125882Y-15977882D01*
X12125882Y-17877882D02*
X12125882Y-17770118D01*
X12018118Y-17770118D01*
X12018118Y-17877882D01*
X12125882Y-17877882D01*
X12125882Y-19777882D02*
X12125882Y-19670118D01*
X12018118Y-19670118D01*
X12018118Y-19777882D01*
X12125882Y-19777882D01*
X12125882Y-21677882D02*
X12125882Y-21570118D01*
X12018118Y-21570118D01*
X12018118Y-21677882D01*
X12125882Y-21677882D01*
X12125882Y-24525382D02*
X12125882Y-24417618D01*
X12018118Y-24417618D01*
X12018118Y-24525382D01*
X12125882Y-24525382D01*
X12469882Y-3745882D02*
X12469882Y-3638118D01*
X12362118Y-3638118D01*
X12362118Y-3745882D01*
X12469882Y-3745882D01*
X12469882Y-5645882D02*
X12469882Y-5538118D01*
X12362118Y-5538118D01*
X12362118Y-5645882D01*
X12469882Y-5645882D01*
X12469882Y-7545882D02*
X12469882Y-7438118D01*
X12362118Y-7438118D01*
X12362118Y-7545882D01*
X12469882Y-7545882D01*
X12469882Y-9445882D02*
X12469882Y-9338118D01*
X12362118Y-9338118D01*
X12362118Y-9445882D01*
X12469882Y-9445882D01*
X12782382Y-11599882D02*
X12782382Y-11492118D01*
X12674618Y-11492118D01*
X12674618Y-11599882D01*
X12782382Y-11599882D01*
X13417382Y-11345882D02*
X13417382Y-11238118D01*
X13309618Y-11238118D01*
X13309618Y-11345882D01*
X13417382Y-11345882D01*
X13734882Y-3999882D02*
X13734882Y-3892118D01*
X13627118Y-3892118D01*
X13627118Y-3999882D01*
X13734882Y-3999882D01*
X13734882Y-5899882D02*
X13734882Y-5792118D01*
X13627118Y-5792118D01*
X13627118Y-5899882D01*
X13734882Y-5899882D01*
X13734882Y-7799882D02*
X13734882Y-7692118D01*
X13627118Y-7692118D01*
X13627118Y-7799882D01*
X13734882Y-7799882D01*
X13734882Y-9699882D02*
X13734882Y-9592118D01*
X13627118Y-9592118D01*
X13627118Y-9699882D01*
X13734882Y-9699882D01*
X14369882Y-3745882D02*
X14369882Y-3638118D01*
X14262118Y-3638118D01*
X14262118Y-3745882D01*
X14369882Y-3745882D01*
X14369882Y-5645882D02*
X14369882Y-5538118D01*
X14262118Y-5538118D01*
X14262118Y-5645882D01*
X14369882Y-5645882D01*
X14369882Y-7545882D02*
X14369882Y-7438118D01*
X14262118Y-7438118D01*
X14262118Y-7545882D01*
X14369882Y-7545882D01*
X14369882Y-9445882D02*
X14369882Y-9338118D01*
X14262118Y-9338118D01*
X14262118Y-9445882D01*
X14369882Y-9445882D01*
D11*
X3486619Y-33158476D02*
X3486619Y-32958476D01*
X3534238Y-32958476D01*
X3562809Y-32968000D01*
X3581857Y-32987048D01*
X3591381Y-33006095D01*
X3600905Y-33044190D01*
X3600905Y-33072762D01*
X3591381Y-33110857D01*
X3581857Y-33129905D01*
X3562809Y-33148952D01*
X3534238Y-33158476D01*
X3486619Y-33158476D01*
X3686619Y-33158476D02*
X3686619Y-33025143D01*
X3686619Y-33063238D02*
X3696143Y-33044190D01*
X3705666Y-33034667D01*
X3724714Y-33025143D01*
X3743762Y-33025143D01*
X3810428Y-33158476D02*
X3810428Y-33025143D01*
X3810428Y-32958476D02*
X3800905Y-32968000D01*
X3810428Y-32977524D01*
X3819952Y-32968000D01*
X3810428Y-32958476D01*
X3810428Y-32977524D01*
X3934238Y-33158476D02*
X3915190Y-33148952D01*
X3905666Y-33129905D01*
X3905666Y-32958476D01*
X4039000Y-33158476D02*
X4019952Y-33148952D01*
X4010428Y-33129905D01*
X4010428Y-32958476D01*
X4267571Y-33158476D02*
X4267571Y-32958476D01*
X4334238Y-33101333D01*
X4400905Y-32958476D01*
X4400905Y-33158476D01*
X4581857Y-33158476D02*
X4581857Y-33053714D01*
X4572333Y-33034667D01*
X4553286Y-33025143D01*
X4515190Y-33025143D01*
X4496143Y-33034667D01*
X4581857Y-33148952D02*
X4562809Y-33158476D01*
X4515190Y-33158476D01*
X4496143Y-33148952D01*
X4486619Y-33129905D01*
X4486619Y-33110857D01*
X4496143Y-33091810D01*
X4515190Y-33082286D01*
X4562809Y-33082286D01*
X4581857Y-33072762D01*
X4677095Y-33025143D02*
X4677095Y-33225143D01*
X4677095Y-33034667D02*
X4696143Y-33025143D01*
X4734238Y-33025143D01*
X4753286Y-33034667D01*
X4762809Y-33044190D01*
X4772333Y-33063238D01*
X4772333Y-33120381D01*
X4762809Y-33139429D01*
X4753286Y-33148952D01*
X4734238Y-33158476D01*
X4696143Y-33158476D01*
X4677095Y-33148952D01*
X4858048Y-33139429D02*
X4867571Y-33148952D01*
X4858048Y-33158476D01*
X4848524Y-33148952D01*
X4858048Y-33139429D01*
X4858048Y-33158476D01*
X4858048Y-33034667D02*
X4867571Y-33044190D01*
X4858048Y-33053714D01*
X4848524Y-33044190D01*
X4858048Y-33034667D01*
X4858048Y-33053714D01*
D12*
X3189000Y-33468000D02*
X3229000Y-33508000D01*
X3229000Y-33468000D02*
X3189000Y-33508000D01*
D11*
X3524714Y-33378476D02*
X3543762Y-33378476D01*
X3562809Y-33388000D01*
X3572333Y-33397524D01*
X3581857Y-33416571D01*
X3591381Y-33454667D01*
X3591381Y-33502286D01*
X3581857Y-33540381D01*
X3572333Y-33559429D01*
X3562809Y-33568952D01*
X3543762Y-33578476D01*
X3524714Y-33578476D01*
X3505666Y-33568952D01*
X3496143Y-33559429D01*
X3486619Y-33540381D01*
X3477095Y-33502286D01*
X3477095Y-33454667D01*
X3486619Y-33416571D01*
X3496143Y-33397524D01*
X3505666Y-33388000D01*
X3524714Y-33378476D01*
X3677095Y-33559429D02*
X3686619Y-33568952D01*
X3677095Y-33578476D01*
X3667571Y-33568952D01*
X3677095Y-33559429D01*
X3677095Y-33578476D01*
X3858047Y-33445143D02*
X3858047Y-33578476D01*
X3810428Y-33368952D02*
X3762809Y-33511810D01*
X3886619Y-33511810D01*
X4000905Y-33378476D02*
X4019952Y-33378476D01*
X4039000Y-33388000D01*
X4048524Y-33397524D01*
X4058047Y-33416571D01*
X4067571Y-33454667D01*
X4067571Y-33502286D01*
X4058047Y-33540381D01*
X4048524Y-33559429D01*
X4039000Y-33568952D01*
X4019952Y-33578476D01*
X4000905Y-33578476D01*
X3981857Y-33568952D01*
X3972333Y-33559429D01*
X3962809Y-33540381D01*
X3953286Y-33502286D01*
X3953286Y-33454667D01*
X3962809Y-33416571D01*
X3972333Y-33397524D01*
X3981857Y-33388000D01*
X4000905Y-33378476D01*
X4191381Y-33378476D02*
X4210428Y-33378476D01*
X4229476Y-33388000D01*
X4239000Y-33397524D01*
X4248524Y-33416571D01*
X4258048Y-33454667D01*
X4258048Y-33502286D01*
X4248524Y-33540381D01*
X4239000Y-33559429D01*
X4229476Y-33568952D01*
X4210428Y-33578476D01*
X4191381Y-33578476D01*
X4172333Y-33568952D01*
X4162809Y-33559429D01*
X4153286Y-33540381D01*
X4143762Y-33502286D01*
X4143762Y-33454667D01*
X4153286Y-33416571D01*
X4162809Y-33397524D01*
X4172333Y-33388000D01*
X4191381Y-33378476D01*
X4343762Y-33578476D02*
X4343762Y-33445143D01*
X4343762Y-33464190D02*
X4353286Y-33454667D01*
X4372333Y-33445143D01*
X4400905Y-33445143D01*
X4419952Y-33454667D01*
X4429476Y-33473714D01*
X4429476Y-33578476D01*
X4429476Y-33473714D02*
X4439000Y-33454667D01*
X4458048Y-33445143D01*
X4486619Y-33445143D01*
X4505667Y-33454667D01*
X4515190Y-33473714D01*
X4515190Y-33578476D01*
X4610428Y-33578476D02*
X4610428Y-33445143D01*
X4610428Y-33464190D02*
X4619952Y-33454667D01*
X4639000Y-33445143D01*
X4667571Y-33445143D01*
X4686619Y-33454667D01*
X4696143Y-33473714D01*
X4696143Y-33578476D01*
X4696143Y-33473714D02*
X4705667Y-33454667D01*
X4724714Y-33445143D01*
X4753286Y-33445143D01*
X4772333Y-33454667D01*
X4781857Y-33473714D01*
X4781857Y-33578476D01*
X5172333Y-33368952D02*
X5000905Y-33626095D01*
X5429476Y-33378476D02*
X5448524Y-33378476D01*
X5467571Y-33388000D01*
X5477095Y-33397524D01*
X5486619Y-33416571D01*
X5496143Y-33454667D01*
X5496143Y-33502286D01*
X5486619Y-33540381D01*
X5477095Y-33559429D01*
X5467571Y-33568952D01*
X5448524Y-33578476D01*
X5429476Y-33578476D01*
X5410428Y-33568952D01*
X5400905Y-33559429D01*
X5391381Y-33540381D01*
X5381857Y-33502286D01*
X5381857Y-33454667D01*
X5391381Y-33416571D01*
X5400905Y-33397524D01*
X5410428Y-33388000D01*
X5429476Y-33378476D01*
X5581857Y-33559429D02*
X5591381Y-33568952D01*
X5581857Y-33578476D01*
X5572333Y-33568952D01*
X5581857Y-33559429D01*
X5581857Y-33578476D01*
X5715190Y-33378476D02*
X5734238Y-33378476D01*
X5753286Y-33388000D01*
X5762809Y-33397524D01*
X5772333Y-33416571D01*
X5781857Y-33454667D01*
X5781857Y-33502286D01*
X5772333Y-33540381D01*
X5762809Y-33559429D01*
X5753286Y-33568952D01*
X5734238Y-33578476D01*
X5715190Y-33578476D01*
X5696143Y-33568952D01*
X5686619Y-33559429D01*
X5677095Y-33540381D01*
X5667571Y-33502286D01*
X5667571Y-33454667D01*
X5677095Y-33416571D01*
X5686619Y-33397524D01*
X5696143Y-33388000D01*
X5715190Y-33378476D01*
X5972333Y-33578476D02*
X5858047Y-33578476D01*
X5915190Y-33578476D02*
X5915190Y-33378476D01*
X5896143Y-33407048D01*
X5877095Y-33426095D01*
X5858047Y-33435619D01*
X6153286Y-33378476D02*
X6058047Y-33378476D01*
X6048524Y-33473714D01*
X6058047Y-33464190D01*
X6077095Y-33454667D01*
X6124714Y-33454667D01*
X6143762Y-33464190D01*
X6153286Y-33473714D01*
X6162809Y-33492762D01*
X6162809Y-33540381D01*
X6153286Y-33559429D01*
X6143762Y-33568952D01*
X6124714Y-33578476D01*
X6077095Y-33578476D01*
X6058047Y-33568952D01*
X6048524Y-33559429D01*
X6229476Y-33378476D02*
X6362809Y-33378476D01*
X6277095Y-33578476D01*
X6429476Y-33378476D02*
X6429476Y-33416571D01*
X6505666Y-33378476D02*
X6505666Y-33416571D01*
X6800905Y-33654667D02*
X6791381Y-33645143D01*
X6772333Y-33616572D01*
X6762809Y-33597524D01*
X6753286Y-33568952D01*
X6743762Y-33521333D01*
X6743762Y-33483238D01*
X6753286Y-33435619D01*
X6762809Y-33407048D01*
X6772333Y-33388000D01*
X6791381Y-33359429D01*
X6800905Y-33349905D01*
X6867571Y-33397524D02*
X6877095Y-33388000D01*
X6896143Y-33378476D01*
X6943762Y-33378476D01*
X6962809Y-33388000D01*
X6972333Y-33397524D01*
X6981857Y-33416571D01*
X6981857Y-33435619D01*
X6972333Y-33464190D01*
X6858047Y-33578476D01*
X6981857Y-33578476D01*
X7172333Y-33578476D02*
X7058047Y-33578476D01*
X7115190Y-33578476D02*
X7115190Y-33378476D01*
X7096143Y-33407048D01*
X7077095Y-33426095D01*
X7058047Y-33435619D01*
X7343762Y-33378476D02*
X7305666Y-33378476D01*
X7286619Y-33388000D01*
X7277095Y-33397524D01*
X7258047Y-33426095D01*
X7248524Y-33464190D01*
X7248524Y-33540381D01*
X7258047Y-33559429D01*
X7267571Y-33568952D01*
X7286619Y-33578476D01*
X7324714Y-33578476D01*
X7343762Y-33568952D01*
X7353286Y-33559429D01*
X7362809Y-33540381D01*
X7362809Y-33492762D01*
X7353286Y-33473714D01*
X7343762Y-33464190D01*
X7324714Y-33454667D01*
X7286619Y-33454667D01*
X7267571Y-33464190D01*
X7258047Y-33473714D01*
X7248524Y-33492762D01*
X7600905Y-33578476D02*
X7600905Y-33378476D01*
X7686619Y-33578476D02*
X7686619Y-33473714D01*
X7677095Y-33454667D01*
X7658047Y-33445143D01*
X7629476Y-33445143D01*
X7610428Y-33454667D01*
X7600905Y-33464190D01*
X7810428Y-33578476D02*
X7791381Y-33568952D01*
X7781857Y-33559429D01*
X7772333Y-33540381D01*
X7772333Y-33483238D01*
X7781857Y-33464190D01*
X7791381Y-33454667D01*
X7810428Y-33445143D01*
X7839000Y-33445143D01*
X7858047Y-33454667D01*
X7867571Y-33464190D01*
X7877095Y-33483238D01*
X7877095Y-33540381D01*
X7867571Y-33559429D01*
X7858047Y-33568952D01*
X7839000Y-33578476D01*
X7810428Y-33578476D01*
X7991381Y-33578476D02*
X7972333Y-33568952D01*
X7962809Y-33549905D01*
X7962809Y-33378476D01*
X8143762Y-33568952D02*
X8124714Y-33578476D01*
X8086619Y-33578476D01*
X8067571Y-33568952D01*
X8058047Y-33549905D01*
X8058047Y-33473714D01*
X8067571Y-33454667D01*
X8086619Y-33445143D01*
X8124714Y-33445143D01*
X8143762Y-33454667D01*
X8153286Y-33473714D01*
X8153286Y-33492762D01*
X8058047Y-33511810D01*
X8229476Y-33568952D02*
X8248524Y-33578476D01*
X8286619Y-33578476D01*
X8305666Y-33568952D01*
X8315190Y-33549905D01*
X8315190Y-33540381D01*
X8305666Y-33521333D01*
X8286619Y-33511810D01*
X8258047Y-33511810D01*
X8239000Y-33502286D01*
X8229476Y-33483238D01*
X8229476Y-33473714D01*
X8239000Y-33454667D01*
X8258047Y-33445143D01*
X8286619Y-33445143D01*
X8305666Y-33454667D01*
X8381857Y-33654667D02*
X8391381Y-33645143D01*
X8410428Y-33616572D01*
X8419952Y-33597524D01*
X8429476Y-33568952D01*
X8439000Y-33521333D01*
X8439000Y-33483238D01*
X8429476Y-33435619D01*
X8419952Y-33407048D01*
X8410428Y-33388000D01*
X8391381Y-33359429D01*
X8381857Y-33349905D01*
D10*
X3229000Y-33752000D02*
G75*
G03*
X3229000Y-33752000I-50000J0D01*
G01*
D11*
X3591381Y-33842476D02*
X3477095Y-33842476D01*
X3534238Y-33842476D02*
X3534238Y-33642476D01*
X3515190Y-33671048D01*
X3496143Y-33690095D01*
X3477095Y-33699619D01*
X3677095Y-33823429D02*
X3686619Y-33832952D01*
X3677095Y-33842476D01*
X3667571Y-33832952D01*
X3677095Y-33823429D01*
X3677095Y-33842476D01*
X3810428Y-33642476D02*
X3829476Y-33642476D01*
X3848524Y-33652000D01*
X3858047Y-33661524D01*
X3867571Y-33680572D01*
X3877095Y-33718667D01*
X3877095Y-33766286D01*
X3867571Y-33804381D01*
X3858047Y-33823429D01*
X3848524Y-33832952D01*
X3829476Y-33842476D01*
X3810428Y-33842476D01*
X3791381Y-33832952D01*
X3781857Y-33823429D01*
X3772333Y-33804381D01*
X3762809Y-33766286D01*
X3762809Y-33718667D01*
X3772333Y-33680572D01*
X3781857Y-33661524D01*
X3791381Y-33652000D01*
X3810428Y-33642476D01*
X4000905Y-33642476D02*
X4019952Y-33642476D01*
X4039000Y-33652000D01*
X4048524Y-33661524D01*
X4058047Y-33680572D01*
X4067571Y-33718667D01*
X4067571Y-33766286D01*
X4058047Y-33804381D01*
X4048524Y-33823429D01*
X4039000Y-33832952D01*
X4019952Y-33842476D01*
X4000905Y-33842476D01*
X3981857Y-33832952D01*
X3972333Y-33823429D01*
X3962809Y-33804381D01*
X3953286Y-33766286D01*
X3953286Y-33718667D01*
X3962809Y-33680572D01*
X3972333Y-33661524D01*
X3981857Y-33652000D01*
X4000905Y-33642476D01*
X4191381Y-33642476D02*
X4210428Y-33642476D01*
X4229476Y-33652000D01*
X4239000Y-33661524D01*
X4248524Y-33680572D01*
X4258048Y-33718667D01*
X4258048Y-33766286D01*
X4248524Y-33804381D01*
X4239000Y-33823429D01*
X4229476Y-33832952D01*
X4210428Y-33842476D01*
X4191381Y-33842476D01*
X4172333Y-33832952D01*
X4162809Y-33823429D01*
X4153286Y-33804381D01*
X4143762Y-33766286D01*
X4143762Y-33718667D01*
X4153286Y-33680572D01*
X4162809Y-33661524D01*
X4172333Y-33652000D01*
X4191381Y-33642476D01*
X4343762Y-33842476D02*
X4343762Y-33709143D01*
X4343762Y-33728191D02*
X4353286Y-33718667D01*
X4372333Y-33709143D01*
X4400905Y-33709143D01*
X4419952Y-33718667D01*
X4429476Y-33737714D01*
X4429476Y-33842476D01*
X4429476Y-33737714D02*
X4439000Y-33718667D01*
X4458048Y-33709143D01*
X4486619Y-33709143D01*
X4505667Y-33718667D01*
X4515190Y-33737714D01*
X4515190Y-33842476D01*
X4610428Y-33842476D02*
X4610428Y-33709143D01*
X4610428Y-33728191D02*
X4619952Y-33718667D01*
X4639000Y-33709143D01*
X4667571Y-33709143D01*
X4686619Y-33718667D01*
X4696143Y-33737714D01*
X4696143Y-33842476D01*
X4696143Y-33737714D02*
X4705667Y-33718667D01*
X4724714Y-33709143D01*
X4753286Y-33709143D01*
X4772333Y-33718667D01*
X4781857Y-33737714D01*
X4781857Y-33842476D01*
X5172333Y-33632952D02*
X5000905Y-33890095D01*
X5429476Y-33642476D02*
X5448524Y-33642476D01*
X5467571Y-33652000D01*
X5477095Y-33661524D01*
X5486619Y-33680572D01*
X5496143Y-33718667D01*
X5496143Y-33766286D01*
X5486619Y-33804381D01*
X5477095Y-33823429D01*
X5467571Y-33832952D01*
X5448524Y-33842476D01*
X5429476Y-33842476D01*
X5410428Y-33832952D01*
X5400905Y-33823429D01*
X5391381Y-33804381D01*
X5381857Y-33766286D01*
X5381857Y-33718667D01*
X5391381Y-33680572D01*
X5400905Y-33661524D01*
X5410428Y-33652000D01*
X5429476Y-33642476D01*
X5581857Y-33823429D02*
X5591381Y-33832952D01*
X5581857Y-33842476D01*
X5572333Y-33832952D01*
X5581857Y-33823429D01*
X5581857Y-33842476D01*
X5715190Y-33642476D02*
X5734238Y-33642476D01*
X5753286Y-33652000D01*
X5762809Y-33661524D01*
X5772333Y-33680572D01*
X5781857Y-33718667D01*
X5781857Y-33766286D01*
X5772333Y-33804381D01*
X5762809Y-33823429D01*
X5753286Y-33832952D01*
X5734238Y-33842476D01*
X5715190Y-33842476D01*
X5696143Y-33832952D01*
X5686619Y-33823429D01*
X5677095Y-33804381D01*
X5667571Y-33766286D01*
X5667571Y-33718667D01*
X5677095Y-33680572D01*
X5686619Y-33661524D01*
X5696143Y-33652000D01*
X5715190Y-33642476D01*
X5848524Y-33642476D02*
X5972333Y-33642476D01*
X5905666Y-33718667D01*
X5934238Y-33718667D01*
X5953286Y-33728191D01*
X5962809Y-33737714D01*
X5972333Y-33756762D01*
X5972333Y-33804381D01*
X5962809Y-33823429D01*
X5953286Y-33832952D01*
X5934238Y-33842476D01*
X5877095Y-33842476D01*
X5858047Y-33832952D01*
X5848524Y-33823429D01*
X6067571Y-33842476D02*
X6105666Y-33842476D01*
X6124714Y-33832952D01*
X6134238Y-33823429D01*
X6153286Y-33794857D01*
X6162809Y-33756762D01*
X6162809Y-33680572D01*
X6153286Y-33661524D01*
X6143762Y-33652000D01*
X6124714Y-33642476D01*
X6086619Y-33642476D01*
X6067571Y-33652000D01*
X6058047Y-33661524D01*
X6048524Y-33680572D01*
X6048524Y-33728191D01*
X6058047Y-33747238D01*
X6067571Y-33756762D01*
X6086619Y-33766286D01*
X6124714Y-33766286D01*
X6143762Y-33756762D01*
X6153286Y-33747238D01*
X6162809Y-33728191D01*
X6334238Y-33709143D02*
X6334238Y-33842476D01*
X6286619Y-33632952D02*
X6239000Y-33775810D01*
X6362809Y-33775810D01*
X6429476Y-33642476D02*
X6429476Y-33680572D01*
X6505666Y-33642476D02*
X6505666Y-33680572D01*
X6800905Y-33918667D02*
X6791381Y-33909143D01*
X6772333Y-33880572D01*
X6762809Y-33861524D01*
X6753286Y-33832952D01*
X6743762Y-33785333D01*
X6743762Y-33747238D01*
X6753286Y-33699619D01*
X6762809Y-33671048D01*
X6772333Y-33652000D01*
X6791381Y-33623429D01*
X6800905Y-33613905D01*
X6981857Y-33842476D02*
X6867571Y-33842476D01*
X6924714Y-33842476D02*
X6924714Y-33642476D01*
X6905666Y-33671048D01*
X6886619Y-33690095D01*
X6867571Y-33699619D01*
X7105666Y-33642476D02*
X7124714Y-33642476D01*
X7143762Y-33652000D01*
X7153286Y-33661524D01*
X7162809Y-33680572D01*
X7172333Y-33718667D01*
X7172333Y-33766286D01*
X7162809Y-33804381D01*
X7153286Y-33823429D01*
X7143762Y-33832952D01*
X7124714Y-33842476D01*
X7105666Y-33842476D01*
X7086619Y-33832952D01*
X7077095Y-33823429D01*
X7067571Y-33804381D01*
X7058047Y-33766286D01*
X7058047Y-33718667D01*
X7067571Y-33680572D01*
X7077095Y-33661524D01*
X7086619Y-33652000D01*
X7105666Y-33642476D01*
X7267571Y-33842476D02*
X7305666Y-33842476D01*
X7324714Y-33832952D01*
X7334238Y-33823429D01*
X7353286Y-33794857D01*
X7362809Y-33756762D01*
X7362809Y-33680572D01*
X7353286Y-33661524D01*
X7343762Y-33652000D01*
X7324714Y-33642476D01*
X7286619Y-33642476D01*
X7267571Y-33652000D01*
X7258047Y-33661524D01*
X7248524Y-33680572D01*
X7248524Y-33728191D01*
X7258047Y-33747238D01*
X7267571Y-33756762D01*
X7286619Y-33766286D01*
X7324714Y-33766286D01*
X7343762Y-33756762D01*
X7353286Y-33747238D01*
X7362809Y-33728191D01*
X7600905Y-33842476D02*
X7600905Y-33642476D01*
X7686619Y-33842476D02*
X7686619Y-33737714D01*
X7677095Y-33718667D01*
X7658047Y-33709143D01*
X7629476Y-33709143D01*
X7610428Y-33718667D01*
X7600905Y-33728191D01*
X7810428Y-33842476D02*
X7791381Y-33832952D01*
X7781857Y-33823429D01*
X7772333Y-33804381D01*
X7772333Y-33747238D01*
X7781857Y-33728191D01*
X7791381Y-33718667D01*
X7810428Y-33709143D01*
X7839000Y-33709143D01*
X7858047Y-33718667D01*
X7867571Y-33728191D01*
X7877095Y-33747238D01*
X7877095Y-33804381D01*
X7867571Y-33823429D01*
X7858047Y-33832952D01*
X7839000Y-33842476D01*
X7810428Y-33842476D01*
X7991381Y-33842476D02*
X7972333Y-33832952D01*
X7962809Y-33813905D01*
X7962809Y-33642476D01*
X8143762Y-33832952D02*
X8124714Y-33842476D01*
X8086619Y-33842476D01*
X8067571Y-33832952D01*
X8058047Y-33813905D01*
X8058047Y-33737714D01*
X8067571Y-33718667D01*
X8086619Y-33709143D01*
X8124714Y-33709143D01*
X8143762Y-33718667D01*
X8153286Y-33737714D01*
X8153286Y-33756762D01*
X8058047Y-33775810D01*
X8229476Y-33832952D02*
X8248524Y-33842476D01*
X8286619Y-33842476D01*
X8305666Y-33832952D01*
X8315190Y-33813905D01*
X8315190Y-33804381D01*
X8305666Y-33785333D01*
X8286619Y-33775810D01*
X8258047Y-33775810D01*
X8239000Y-33766286D01*
X8229476Y-33747238D01*
X8229476Y-33737714D01*
X8239000Y-33718667D01*
X8258047Y-33709143D01*
X8286619Y-33709143D01*
X8305666Y-33718667D01*
X8381857Y-33918667D02*
X8391381Y-33909143D01*
X8410428Y-33880572D01*
X8419952Y-33861524D01*
X8429476Y-33832952D01*
X8439000Y-33785333D01*
X8439000Y-33747238D01*
X8429476Y-33699619D01*
X8419952Y-33671048D01*
X8410428Y-33652000D01*
X8391381Y-33623429D01*
X8381857Y-33613905D01*
D13*
X3178000Y-33965000D02*
X3178000Y-34067000D01*
X3127000Y-34016000D02*
X3229000Y-34016000D01*
D11*
X3591381Y-34106476D02*
X3477095Y-34106476D01*
X3534238Y-34106476D02*
X3534238Y-33906476D01*
X3515190Y-33935048D01*
X3496143Y-33954095D01*
X3477095Y-33963619D01*
X3677095Y-34087429D02*
X3686619Y-34096952D01*
X3677095Y-34106476D01*
X3667571Y-34096952D01*
X3677095Y-34087429D01*
X3677095Y-34106476D01*
X3810428Y-33906476D02*
X3829476Y-33906476D01*
X3848524Y-33916000D01*
X3858047Y-33925524D01*
X3867571Y-33944572D01*
X3877095Y-33982667D01*
X3877095Y-34030286D01*
X3867571Y-34068381D01*
X3858047Y-34087429D01*
X3848524Y-34096952D01*
X3829476Y-34106476D01*
X3810428Y-34106476D01*
X3791381Y-34096952D01*
X3781857Y-34087429D01*
X3772333Y-34068381D01*
X3762809Y-34030286D01*
X3762809Y-33982667D01*
X3772333Y-33944572D01*
X3781857Y-33925524D01*
X3791381Y-33916000D01*
X3810428Y-33906476D01*
X3953286Y-33925524D02*
X3962809Y-33916000D01*
X3981857Y-33906476D01*
X4029476Y-33906476D01*
X4048524Y-33916000D01*
X4058047Y-33925524D01*
X4067571Y-33944572D01*
X4067571Y-33963619D01*
X4058047Y-33992191D01*
X3943762Y-34106476D01*
X4067571Y-34106476D01*
X4191381Y-33906476D02*
X4210428Y-33906476D01*
X4229476Y-33916000D01*
X4239000Y-33925524D01*
X4248524Y-33944572D01*
X4258048Y-33982667D01*
X4258048Y-34030286D01*
X4248524Y-34068381D01*
X4239000Y-34087429D01*
X4229476Y-34096952D01*
X4210428Y-34106476D01*
X4191381Y-34106476D01*
X4172333Y-34096952D01*
X4162809Y-34087429D01*
X4153286Y-34068381D01*
X4143762Y-34030286D01*
X4143762Y-33982667D01*
X4153286Y-33944572D01*
X4162809Y-33925524D01*
X4172333Y-33916000D01*
X4191381Y-33906476D01*
X4343762Y-34106476D02*
X4343762Y-33973143D01*
X4343762Y-33992191D02*
X4353286Y-33982667D01*
X4372333Y-33973143D01*
X4400905Y-33973143D01*
X4419952Y-33982667D01*
X4429476Y-34001714D01*
X4429476Y-34106476D01*
X4429476Y-34001714D02*
X4439000Y-33982667D01*
X4458048Y-33973143D01*
X4486619Y-33973143D01*
X4505667Y-33982667D01*
X4515190Y-34001714D01*
X4515190Y-34106476D01*
X4610428Y-34106476D02*
X4610428Y-33973143D01*
X4610428Y-33992191D02*
X4619952Y-33982667D01*
X4639000Y-33973143D01*
X4667571Y-33973143D01*
X4686619Y-33982667D01*
X4696143Y-34001714D01*
X4696143Y-34106476D01*
X4696143Y-34001714D02*
X4705667Y-33982667D01*
X4724714Y-33973143D01*
X4753286Y-33973143D01*
X4772333Y-33982667D01*
X4781857Y-34001714D01*
X4781857Y-34106476D01*
X5172333Y-33896952D02*
X5000905Y-34154095D01*
X5429476Y-33906476D02*
X5448524Y-33906476D01*
X5467571Y-33916000D01*
X5477095Y-33925524D01*
X5486619Y-33944572D01*
X5496143Y-33982667D01*
X5496143Y-34030286D01*
X5486619Y-34068381D01*
X5477095Y-34087429D01*
X5467571Y-34096952D01*
X5448524Y-34106476D01*
X5429476Y-34106476D01*
X5410428Y-34096952D01*
X5400905Y-34087429D01*
X5391381Y-34068381D01*
X5381857Y-34030286D01*
X5381857Y-33982667D01*
X5391381Y-33944572D01*
X5400905Y-33925524D01*
X5410428Y-33916000D01*
X5429476Y-33906476D01*
X5581857Y-34087429D02*
X5591381Y-34096952D01*
X5581857Y-34106476D01*
X5572333Y-34096952D01*
X5581857Y-34087429D01*
X5581857Y-34106476D01*
X5715190Y-33906476D02*
X5734238Y-33906476D01*
X5753286Y-33916000D01*
X5762809Y-33925524D01*
X5772333Y-33944572D01*
X5781857Y-33982667D01*
X5781857Y-34030286D01*
X5772333Y-34068381D01*
X5762809Y-34087429D01*
X5753286Y-34096952D01*
X5734238Y-34106476D01*
X5715190Y-34106476D01*
X5696143Y-34096952D01*
X5686619Y-34087429D01*
X5677095Y-34068381D01*
X5667571Y-34030286D01*
X5667571Y-33982667D01*
X5677095Y-33944572D01*
X5686619Y-33925524D01*
X5696143Y-33916000D01*
X5715190Y-33906476D01*
X5953286Y-33973143D02*
X5953286Y-34106476D01*
X5905666Y-33896952D02*
X5858047Y-34039810D01*
X5981857Y-34039810D01*
X6096143Y-33906476D02*
X6115190Y-33906476D01*
X6134238Y-33916000D01*
X6143762Y-33925524D01*
X6153286Y-33944572D01*
X6162809Y-33982667D01*
X6162809Y-34030286D01*
X6153286Y-34068381D01*
X6143762Y-34087429D01*
X6134238Y-34096952D01*
X6115190Y-34106476D01*
X6096143Y-34106476D01*
X6077095Y-34096952D01*
X6067571Y-34087429D01*
X6058047Y-34068381D01*
X6048524Y-34030286D01*
X6048524Y-33982667D01*
X6058047Y-33944572D01*
X6067571Y-33925524D01*
X6077095Y-33916000D01*
X6096143Y-33906476D01*
X6239000Y-33925524D02*
X6248524Y-33916000D01*
X6267571Y-33906476D01*
X6315190Y-33906476D01*
X6334238Y-33916000D01*
X6343762Y-33925524D01*
X6353286Y-33944572D01*
X6353286Y-33963619D01*
X6343762Y-33992191D01*
X6229476Y-34106476D01*
X6353286Y-34106476D01*
X6429476Y-33906476D02*
X6429476Y-33944572D01*
X6505666Y-33906476D02*
X6505666Y-33944572D01*
X6800905Y-34182667D02*
X6791381Y-34173143D01*
X6772333Y-34144572D01*
X6762809Y-34125524D01*
X6753286Y-34096952D01*
X6743762Y-34049333D01*
X6743762Y-34011238D01*
X6753286Y-33963619D01*
X6762809Y-33935048D01*
X6772333Y-33916000D01*
X6791381Y-33887429D01*
X6800905Y-33877905D01*
X6905666Y-33992191D02*
X6886619Y-33982667D01*
X6877095Y-33973143D01*
X6867571Y-33954095D01*
X6867571Y-33944572D01*
X6877095Y-33925524D01*
X6886619Y-33916000D01*
X6905666Y-33906476D01*
X6943762Y-33906476D01*
X6962809Y-33916000D01*
X6972333Y-33925524D01*
X6981857Y-33944572D01*
X6981857Y-33954095D01*
X6972333Y-33973143D01*
X6962809Y-33982667D01*
X6943762Y-33992191D01*
X6905666Y-33992191D01*
X6886619Y-34001714D01*
X6877095Y-34011238D01*
X6867571Y-34030286D01*
X6867571Y-34068381D01*
X6877095Y-34087429D01*
X6886619Y-34096952D01*
X6905666Y-34106476D01*
X6943762Y-34106476D01*
X6962809Y-34096952D01*
X6972333Y-34087429D01*
X6981857Y-34068381D01*
X6981857Y-34030286D01*
X6972333Y-34011238D01*
X6962809Y-34001714D01*
X6943762Y-33992191D01*
X7153286Y-33906476D02*
X7115190Y-33906476D01*
X7096143Y-33916000D01*
X7086619Y-33925524D01*
X7067571Y-33954095D01*
X7058047Y-33992191D01*
X7058047Y-34068381D01*
X7067571Y-34087429D01*
X7077095Y-34096952D01*
X7096143Y-34106476D01*
X7134238Y-34106476D01*
X7153286Y-34096952D01*
X7162809Y-34087429D01*
X7172333Y-34068381D01*
X7172333Y-34020762D01*
X7162809Y-34001714D01*
X7153286Y-33992191D01*
X7134238Y-33982667D01*
X7096143Y-33982667D01*
X7077095Y-33992191D01*
X7067571Y-34001714D01*
X7058047Y-34020762D01*
X7410428Y-34106476D02*
X7410428Y-33906476D01*
X7496143Y-34106476D02*
X7496143Y-34001714D01*
X7486619Y-33982667D01*
X7467571Y-33973143D01*
X7439000Y-33973143D01*
X7419952Y-33982667D01*
X7410428Y-33992191D01*
X7619952Y-34106476D02*
X7600905Y-34096952D01*
X7591381Y-34087429D01*
X7581857Y-34068381D01*
X7581857Y-34011238D01*
X7591381Y-33992191D01*
X7600905Y-33982667D01*
X7619952Y-33973143D01*
X7648524Y-33973143D01*
X7667571Y-33982667D01*
X7677095Y-33992191D01*
X7686619Y-34011238D01*
X7686619Y-34068381D01*
X7677095Y-34087429D01*
X7667571Y-34096952D01*
X7648524Y-34106476D01*
X7619952Y-34106476D01*
X7800905Y-34106476D02*
X7781857Y-34096952D01*
X7772333Y-34077905D01*
X7772333Y-33906476D01*
X7953286Y-34096952D02*
X7934238Y-34106476D01*
X7896143Y-34106476D01*
X7877095Y-34096952D01*
X7867571Y-34077905D01*
X7867571Y-34001714D01*
X7877095Y-33982667D01*
X7896143Y-33973143D01*
X7934238Y-33973143D01*
X7953286Y-33982667D01*
X7962809Y-34001714D01*
X7962809Y-34020762D01*
X7867571Y-34039810D01*
X8039000Y-34096952D02*
X8058047Y-34106476D01*
X8096143Y-34106476D01*
X8115190Y-34096952D01*
X8124714Y-34077905D01*
X8124714Y-34068381D01*
X8115190Y-34049333D01*
X8096143Y-34039810D01*
X8067571Y-34039810D01*
X8048524Y-34030286D01*
X8039000Y-34011238D01*
X8039000Y-34001714D01*
X8048524Y-33982667D01*
X8067571Y-33973143D01*
X8096143Y-33973143D01*
X8115190Y-33982667D01*
X8191381Y-34182667D02*
X8200905Y-34173143D01*
X8219952Y-34144572D01*
X8229476Y-34125524D01*
X8239000Y-34096952D01*
X8248524Y-34049333D01*
X8248524Y-34011238D01*
X8239000Y-33963619D01*
X8229476Y-33935048D01*
X8219952Y-33916000D01*
X8200905Y-33887429D01*
X8191381Y-33877905D01*
D14*
X3206682Y-34333882D02*
X3206682Y-34226118D01*
X3098918Y-34226118D01*
X3098918Y-34333882D01*
X3206682Y-34333882D01*
D11*
X3591381Y-34370476D02*
X3477095Y-34370476D01*
X3534238Y-34370476D02*
X3534238Y-34170476D01*
X3515190Y-34199048D01*
X3496143Y-34218095D01*
X3477095Y-34227619D01*
X3677095Y-34351429D02*
X3686619Y-34360952D01*
X3677095Y-34370476D01*
X3667571Y-34360952D01*
X3677095Y-34351429D01*
X3677095Y-34370476D01*
X3867571Y-34170476D02*
X3772333Y-34170476D01*
X3762809Y-34265714D01*
X3772333Y-34256191D01*
X3791381Y-34246667D01*
X3839000Y-34246667D01*
X3858047Y-34256191D01*
X3867571Y-34265714D01*
X3877095Y-34284762D01*
X3877095Y-34332381D01*
X3867571Y-34351429D01*
X3858047Y-34360952D01*
X3839000Y-34370476D01*
X3791381Y-34370476D01*
X3772333Y-34360952D01*
X3762809Y-34351429D01*
X3953286Y-34189524D02*
X3962809Y-34180000D01*
X3981857Y-34170476D01*
X4029476Y-34170476D01*
X4048524Y-34180000D01*
X4058047Y-34189524D01*
X4067571Y-34208572D01*
X4067571Y-34227619D01*
X4058047Y-34256191D01*
X3943762Y-34370476D01*
X4067571Y-34370476D01*
X4239000Y-34237143D02*
X4239000Y-34370476D01*
X4191381Y-34160952D02*
X4143762Y-34303810D01*
X4267571Y-34303810D01*
X4343762Y-34370476D02*
X4343762Y-34237143D01*
X4343762Y-34256191D02*
X4353286Y-34246667D01*
X4372333Y-34237143D01*
X4400905Y-34237143D01*
X4419952Y-34246667D01*
X4429476Y-34265714D01*
X4429476Y-34370476D01*
X4429476Y-34265714D02*
X4439000Y-34246667D01*
X4458048Y-34237143D01*
X4486619Y-34237143D01*
X4505667Y-34246667D01*
X4515190Y-34265714D01*
X4515190Y-34370476D01*
X4610428Y-34370476D02*
X4610428Y-34237143D01*
X4610428Y-34256191D02*
X4619952Y-34246667D01*
X4639000Y-34237143D01*
X4667571Y-34237143D01*
X4686619Y-34246667D01*
X4696143Y-34265714D01*
X4696143Y-34370476D01*
X4696143Y-34265714D02*
X4705667Y-34246667D01*
X4724714Y-34237143D01*
X4753286Y-34237143D01*
X4772333Y-34246667D01*
X4781857Y-34265714D01*
X4781857Y-34370476D01*
X5172333Y-34160952D02*
X5000905Y-34418095D01*
X5429476Y-34170476D02*
X5448524Y-34170476D01*
X5467571Y-34180000D01*
X5477095Y-34189524D01*
X5486619Y-34208572D01*
X5496143Y-34246667D01*
X5496143Y-34294286D01*
X5486619Y-34332381D01*
X5477095Y-34351429D01*
X5467571Y-34360952D01*
X5448524Y-34370476D01*
X5429476Y-34370476D01*
X5410428Y-34360952D01*
X5400905Y-34351429D01*
X5391381Y-34332381D01*
X5381857Y-34294286D01*
X5381857Y-34246667D01*
X5391381Y-34208572D01*
X5400905Y-34189524D01*
X5410428Y-34180000D01*
X5429476Y-34170476D01*
X5581857Y-34351429D02*
X5591381Y-34360952D01*
X5581857Y-34370476D01*
X5572333Y-34360952D01*
X5581857Y-34351429D01*
X5581857Y-34370476D01*
X5715190Y-34170476D02*
X5734238Y-34170476D01*
X5753286Y-34180000D01*
X5762809Y-34189524D01*
X5772333Y-34208572D01*
X5781857Y-34246667D01*
X5781857Y-34294286D01*
X5772333Y-34332381D01*
X5762809Y-34351429D01*
X5753286Y-34360952D01*
X5734238Y-34370476D01*
X5715190Y-34370476D01*
X5696143Y-34360952D01*
X5686619Y-34351429D01*
X5677095Y-34332381D01*
X5667571Y-34294286D01*
X5667571Y-34246667D01*
X5677095Y-34208572D01*
X5686619Y-34189524D01*
X5696143Y-34180000D01*
X5715190Y-34170476D01*
X5953286Y-34170476D02*
X5915190Y-34170476D01*
X5896143Y-34180000D01*
X5886619Y-34189524D01*
X5867571Y-34218095D01*
X5858047Y-34256191D01*
X5858047Y-34332381D01*
X5867571Y-34351429D01*
X5877095Y-34360952D01*
X5896143Y-34370476D01*
X5934238Y-34370476D01*
X5953286Y-34360952D01*
X5962809Y-34351429D01*
X5972333Y-34332381D01*
X5972333Y-34284762D01*
X5962809Y-34265714D01*
X5953286Y-34256191D01*
X5934238Y-34246667D01*
X5896143Y-34246667D01*
X5877095Y-34256191D01*
X5867571Y-34265714D01*
X5858047Y-34284762D01*
X6096143Y-34170476D02*
X6115190Y-34170476D01*
X6134238Y-34180000D01*
X6143762Y-34189524D01*
X6153286Y-34208572D01*
X6162809Y-34246667D01*
X6162809Y-34294286D01*
X6153286Y-34332381D01*
X6143762Y-34351429D01*
X6134238Y-34360952D01*
X6115190Y-34370476D01*
X6096143Y-34370476D01*
X6077095Y-34360952D01*
X6067571Y-34351429D01*
X6058047Y-34332381D01*
X6048524Y-34294286D01*
X6048524Y-34246667D01*
X6058047Y-34208572D01*
X6067571Y-34189524D01*
X6077095Y-34180000D01*
X6096143Y-34170476D01*
X6286619Y-34170476D02*
X6305666Y-34170476D01*
X6324714Y-34180000D01*
X6334238Y-34189524D01*
X6343762Y-34208572D01*
X6353286Y-34246667D01*
X6353286Y-34294286D01*
X6343762Y-34332381D01*
X6334238Y-34351429D01*
X6324714Y-34360952D01*
X6305666Y-34370476D01*
X6286619Y-34370476D01*
X6267571Y-34360952D01*
X6258047Y-34351429D01*
X6248524Y-34332381D01*
X6239000Y-34294286D01*
X6239000Y-34246667D01*
X6248524Y-34208572D01*
X6258047Y-34189524D01*
X6267571Y-34180000D01*
X6286619Y-34170476D01*
X6429476Y-34170476D02*
X6429476Y-34208572D01*
X6505666Y-34170476D02*
X6505666Y-34208572D01*
X6800905Y-34446667D02*
X6791381Y-34437143D01*
X6772333Y-34408572D01*
X6762809Y-34389524D01*
X6753286Y-34360952D01*
X6743762Y-34313333D01*
X6743762Y-34275238D01*
X6753286Y-34227619D01*
X6762809Y-34199048D01*
X6772333Y-34180000D01*
X6791381Y-34151429D01*
X6800905Y-34141905D01*
X6981857Y-34370476D02*
X6867571Y-34370476D01*
X6924714Y-34370476D02*
X6924714Y-34170476D01*
X6905666Y-34199048D01*
X6886619Y-34218095D01*
X6867571Y-34227619D01*
X7172333Y-34370476D02*
X7058047Y-34370476D01*
X7115190Y-34370476D02*
X7115190Y-34170476D01*
X7096143Y-34199048D01*
X7077095Y-34218095D01*
X7058047Y-34227619D01*
X7343762Y-34170476D02*
X7305666Y-34170476D01*
X7286619Y-34180000D01*
X7277095Y-34189524D01*
X7258047Y-34218095D01*
X7248524Y-34256191D01*
X7248524Y-34332381D01*
X7258047Y-34351429D01*
X7267571Y-34360952D01*
X7286619Y-34370476D01*
X7324714Y-34370476D01*
X7343762Y-34360952D01*
X7353286Y-34351429D01*
X7362809Y-34332381D01*
X7362809Y-34284762D01*
X7353286Y-34265714D01*
X7343762Y-34256191D01*
X7324714Y-34246667D01*
X7286619Y-34246667D01*
X7267571Y-34256191D01*
X7258047Y-34265714D01*
X7248524Y-34284762D01*
X7600905Y-34370476D02*
X7600905Y-34170476D01*
X7686619Y-34370476D02*
X7686619Y-34265714D01*
X7677095Y-34246667D01*
X7658047Y-34237143D01*
X7629476Y-34237143D01*
X7610428Y-34246667D01*
X7600905Y-34256191D01*
X7810428Y-34370476D02*
X7791381Y-34360952D01*
X7781857Y-34351429D01*
X7772333Y-34332381D01*
X7772333Y-34275238D01*
X7781857Y-34256191D01*
X7791381Y-34246667D01*
X7810428Y-34237143D01*
X7839000Y-34237143D01*
X7858047Y-34246667D01*
X7867571Y-34256191D01*
X7877095Y-34275238D01*
X7877095Y-34332381D01*
X7867571Y-34351429D01*
X7858047Y-34360952D01*
X7839000Y-34370476D01*
X7810428Y-34370476D01*
X7991381Y-34370476D02*
X7972333Y-34360952D01*
X7962809Y-34341905D01*
X7962809Y-34170476D01*
X8143762Y-34360952D02*
X8124714Y-34370476D01*
X8086619Y-34370476D01*
X8067571Y-34360952D01*
X8058047Y-34341905D01*
X8058047Y-34265714D01*
X8067571Y-34246667D01*
X8086619Y-34237143D01*
X8124714Y-34237143D01*
X8143762Y-34246667D01*
X8153286Y-34265714D01*
X8153286Y-34284762D01*
X8058047Y-34303810D01*
X8229476Y-34360952D02*
X8248524Y-34370476D01*
X8286619Y-34370476D01*
X8305666Y-34360952D01*
X8315190Y-34341905D01*
X8315190Y-34332381D01*
X8305666Y-34313333D01*
X8286619Y-34303810D01*
X8258047Y-34303810D01*
X8239000Y-34294286D01*
X8229476Y-34275238D01*
X8229476Y-34265714D01*
X8239000Y-34246667D01*
X8258047Y-34237143D01*
X8286619Y-34237143D01*
X8305666Y-34246667D01*
X8381857Y-34446667D02*
X8391381Y-34437143D01*
X8410428Y-34408572D01*
X8419952Y-34389524D01*
X8429476Y-34360952D01*
X8439000Y-34313333D01*
X8439000Y-34275238D01*
X8429476Y-34227619D01*
X8419952Y-34199048D01*
X8410428Y-34180000D01*
X8391381Y-34151429D01*
X8381857Y-34141905D01*
M02*
