G04 #@! TF.GenerationSoftware,KiCad,Pcbnew,(6.0.10)*
G04 #@! TF.CreationDate,2023-03-01T01:55:45+01:00*
G04 #@! TF.ProjectId,kicad,6b696361-642e-46b6-9963-61645f706362,rev?*
G04 #@! TF.SameCoordinates,Original*
G04 #@! TF.FileFunction,Profile,NP*
%FSLAX46Y46*%
G04 Gerber Fmt 4.6, Leading zero omitted, Abs format (unit mm)*
G04 Created by KiCad (PCBNEW (6.0.10)) date 2023-03-01 01:55:45*
%MOMM*%
%LPD*%
G01*
G04 APERTURE LIST*
G04 #@! TA.AperFunction,Profile*
%ADD10C,0.100000*%
G04 #@! TD*
G04 APERTURE END LIST*
D10*
X51866800Y-129590800D02*
X132000000Y-130000000D01*
X51714400Y-144424400D02*
X129340000Y-144430001D01*
X51866799Y-129590799D02*
G75*
G03*
X51714400Y-144424400I6474487J-7484102D01*
G01*
X37339999Y-144430001D02*
G75*
G03*
X39000000Y-130000000I-3812201J7749031D01*
G01*
X39000000Y-27000000D02*
G75*
G03*
X34000000Y-32000000I0J-5000000D01*
G01*
X137000000Y-135000000D02*
G75*
G03*
X132000000Y-130000000I-5000000J0D01*
G01*
X137000034Y-186014466D02*
G75*
G03*
X142000000Y-191014466I4999966J-34D01*
G01*
X34000000Y-125000000D02*
G75*
G03*
X39000000Y-130000000I5000000J0D01*
G01*
X196339999Y-323430001D02*
X196339999Y-198430000D01*
X134339999Y-188430001D02*
G75*
G03*
X139339999Y-193430001I5000001J1D01*
G01*
X213000000Y-191000000D02*
G75*
G03*
X218000000Y-186000000I0J5000000D01*
G01*
X114339999Y-328430001D02*
X37339999Y-328430001D01*
X218000000Y-32000000D02*
G75*
G03*
X213000000Y-27000000I-5000000J0D01*
G01*
X142000000Y-191014466D02*
X188716761Y-191015259D01*
X37339999Y-144429999D02*
G75*
G03*
X32339999Y-149430001I1J-5000001D01*
G01*
X196339999Y-198430000D02*
G75*
G03*
X191340000Y-193430001I-4999999J0D01*
G01*
X39000000Y-27000000D02*
X213000000Y-27000000D01*
X134340022Y-149429986D02*
G75*
G03*
X137000000Y-149610000I1399978J944186D01*
G01*
X32339999Y-323430001D02*
X32339999Y-254430001D01*
X137015862Y-152311897D02*
X137000000Y-186014466D01*
X188706761Y-193435259D02*
X139339999Y-193430001D01*
X191339999Y-328429999D02*
G75*
G03*
X196339999Y-323430001I1J4999999D01*
G01*
X34000000Y-125000000D02*
X34000000Y-32000000D01*
X191317806Y-191026008D02*
G75*
G03*
X191340000Y-193430001I1257294J-1190492D01*
G01*
X218000000Y-32000000D02*
X218000000Y-186000000D01*
X32339999Y-164430001D02*
X32339999Y-149430001D01*
X188706798Y-193435293D02*
G75*
G03*
X188716761Y-191015259I-1327502J1215503D01*
G01*
X134339999Y-149430001D02*
G75*
G03*
X129340000Y-144430001I-4999999J1D01*
G01*
X137015865Y-152311895D02*
G75*
G03*
X134305862Y-152202881I-1399303J-1046802D01*
G01*
X134305862Y-152202881D02*
X134339999Y-188430001D01*
X32339999Y-323430001D02*
G75*
G03*
X37339999Y-328430001I5000001J1D01*
G01*
X137000000Y-149610000D02*
X137000000Y-135000000D01*
X32339999Y-254430001D02*
X32339999Y-164430001D01*
X191317765Y-191025969D02*
X213000000Y-191000000D01*
X114339999Y-328430001D02*
X191339999Y-328430001D01*
X63825548Y-45580000D02*
X65414453Y-45580000D01*
X66319999Y-46377157D02*
X66319999Y-47782841D01*
X62920001Y-47782841D02*
X62920001Y-46377157D01*
X65414452Y-48579999D02*
X63825548Y-48579999D01*
X62870520Y-47999721D02*
G75*
G03*
X63573289Y-48648296I450510J-216879D01*
G01*
X66369484Y-46160279D02*
G75*
G03*
X66319999Y-46377156I450505J-216876D01*
G01*
X63825548Y-48580000D02*
G75*
G03*
X63573290Y-48648298I2J-500010D01*
G01*
X63573289Y-45511700D02*
G75*
G03*
X62870516Y-46160279I-252259J-431700D01*
G01*
X66319999Y-47782841D02*
G75*
G03*
X66369484Y-47999719I499990J-2D01*
G01*
X62920013Y-46377157D02*
G75*
G03*
X62870516Y-46160279I-500513J-143D01*
G01*
X65666711Y-48648298D02*
G75*
G03*
X65414452Y-48579999I-252261J-431710D01*
G01*
X63573289Y-45511700D02*
G75*
G03*
X63825547Y-45579999I252261J431710D01*
G01*
X65414453Y-45580000D02*
G75*
G03*
X65666711Y-45511701I-3J500009D01*
G01*
X66369483Y-46160279D02*
G75*
G03*
X65666711Y-45511701I-450514J216878D01*
G01*
X65666711Y-48648298D02*
G75*
G03*
X66369484Y-47999718I252259J431700D01*
G01*
X62870516Y-47999719D02*
G75*
G03*
X62920001Y-47782842I-450866J216959D01*
G01*
X53042840Y-176130000D02*
X51637156Y-176130000D01*
X50839999Y-175224453D02*
X50839999Y-173635548D01*
X53839998Y-173635549D02*
X53839998Y-175224453D01*
X51637156Y-172730002D02*
X53042840Y-172730002D01*
X50771699Y-175476712D02*
G75*
G03*
X51420278Y-176179485I431700J-252259D01*
G01*
X51637156Y-176129988D02*
G75*
G03*
X51420278Y-176179485I143J-500513D01*
G01*
X53259720Y-176179481D02*
G75*
G03*
X53908295Y-175476712I216879J450510D01*
G01*
X53908297Y-173383290D02*
G75*
G03*
X53839998Y-173635549I431710J-252261D01*
G01*
X50839999Y-173635548D02*
G75*
G03*
X50771700Y-173383290I-500009J-3D01*
G01*
X53908297Y-173383290D02*
G75*
G03*
X53259717Y-172680517I-431700J252259D01*
G01*
X51420278Y-172680517D02*
G75*
G03*
X51637155Y-172730002I216876J450505D01*
G01*
X51420278Y-172680518D02*
G75*
G03*
X50771700Y-173383290I-216878J-450514D01*
G01*
X53042840Y-172730002D02*
G75*
G03*
X53259718Y-172680517I2J499990D01*
G01*
X53259718Y-176179485D02*
G75*
G03*
X53042841Y-176130000I-216959J-450866D01*
G01*
X50771699Y-175476712D02*
G75*
G03*
X50839998Y-175224454I-431710J252261D01*
G01*
X53839999Y-175224453D02*
G75*
G03*
X53908297Y-175476711I500010J2D01*
G01*
X108637156Y-229730002D02*
X110042840Y-229730002D01*
X110839998Y-230635549D02*
X110839998Y-232224453D01*
X110042840Y-233130000D02*
X108637156Y-233130000D01*
X107839999Y-232224453D02*
X107839999Y-230635548D01*
X108420278Y-229680518D02*
G75*
G03*
X107771700Y-230383290I-216878J-450514D01*
G01*
X107771699Y-232476712D02*
G75*
G03*
X107839998Y-232224454I-431710J252261D01*
G01*
X110259718Y-233179485D02*
G75*
G03*
X110042841Y-233130000I-216959J-450866D01*
G01*
X110908297Y-230383290D02*
G75*
G03*
X110839998Y-230635549I431710J-252261D01*
G01*
X110908297Y-230383290D02*
G75*
G03*
X110259717Y-229680517I-431700J252259D01*
G01*
X110042840Y-229730002D02*
G75*
G03*
X110259718Y-229680517I2J499990D01*
G01*
X108637156Y-233129988D02*
G75*
G03*
X108420278Y-233179485I143J-500513D01*
G01*
X108420278Y-229680517D02*
G75*
G03*
X108637155Y-229730002I216876J450505D01*
G01*
X107839999Y-230635548D02*
G75*
G03*
X107771700Y-230383290I-500009J-3D01*
G01*
X107771699Y-232476712D02*
G75*
G03*
X108420278Y-233179485I431700J-252259D01*
G01*
X110839999Y-232224453D02*
G75*
G03*
X110908297Y-232476711I500010J2D01*
G01*
X110259720Y-233179481D02*
G75*
G03*
X110908295Y-232476712I216879J450510D01*
G01*
X126839999Y-194224452D02*
X126839999Y-192635547D01*
X127637156Y-191730001D02*
X129042840Y-191730001D01*
X129042840Y-195129999D02*
X127637156Y-195129999D01*
X129839998Y-192635548D02*
X129839998Y-194224452D01*
X127637156Y-195129987D02*
G75*
G03*
X127420278Y-195179484I143J-500513D01*
G01*
X129908297Y-192383289D02*
G75*
G03*
X129259717Y-191680516I-431700J252259D01*
G01*
X126771699Y-194476711D02*
G75*
G03*
X127420278Y-195179484I431700J-252259D01*
G01*
X129839999Y-194224452D02*
G75*
G03*
X129908297Y-194476710I500010J2D01*
G01*
X127420278Y-191680516D02*
G75*
G03*
X127637155Y-191730001I216876J450505D01*
G01*
X129259718Y-195179484D02*
G75*
G03*
X129042841Y-195129999I-216959J-450866D01*
G01*
X129908297Y-192383289D02*
G75*
G03*
X129839998Y-192635548I431710J-252261D01*
G01*
X126771699Y-194476711D02*
G75*
G03*
X126839998Y-194224453I-431710J252261D01*
G01*
X129042840Y-191730001D02*
G75*
G03*
X129259718Y-191680516I2J499990D01*
G01*
X126839999Y-192635547D02*
G75*
G03*
X126771700Y-192383289I-500009J-3D01*
G01*
X129259720Y-195179480D02*
G75*
G03*
X129908295Y-194476711I216879J450510D01*
G01*
X127420278Y-191680517D02*
G75*
G03*
X126771700Y-192383289I-216878J-450514D01*
G01*
X89637156Y-248730002D02*
X91042840Y-248730002D01*
X88839999Y-251224453D02*
X88839999Y-249635548D01*
X91042840Y-252130000D02*
X89637156Y-252130000D01*
X91839998Y-249635549D02*
X91839998Y-251224453D01*
X88839999Y-249635548D02*
G75*
G03*
X88771700Y-249383290I-500009J-3D01*
G01*
X91259718Y-252179485D02*
G75*
G03*
X91042841Y-252130000I-216959J-450866D01*
G01*
X88771699Y-251476712D02*
G75*
G03*
X89420278Y-252179485I431700J-252259D01*
G01*
X91042840Y-248730002D02*
G75*
G03*
X91259718Y-248680517I2J499990D01*
G01*
X89420278Y-248680517D02*
G75*
G03*
X89637155Y-248730002I216876J450505D01*
G01*
X91839999Y-251224453D02*
G75*
G03*
X91908297Y-251476711I500010J2D01*
G01*
X91908297Y-249383290D02*
G75*
G03*
X91259717Y-248680517I-431700J252259D01*
G01*
X88771699Y-251476712D02*
G75*
G03*
X88839998Y-251224454I-431710J252261D01*
G01*
X89637156Y-252129988D02*
G75*
G03*
X89420278Y-252179485I143J-500513D01*
G01*
X91908297Y-249383290D02*
G75*
G03*
X91839998Y-249635549I431710J-252261D01*
G01*
X89420278Y-248680518D02*
G75*
G03*
X88771700Y-249383290I-216878J-450514D01*
G01*
X91259720Y-252179481D02*
G75*
G03*
X91908295Y-251476712I216879J450510D01*
G01*
X129167841Y-214004999D02*
X127762157Y-214004999D01*
X129964999Y-211510548D02*
X129964999Y-213099452D01*
X126965000Y-213099452D02*
X126965000Y-211510547D01*
X127762157Y-210605001D02*
X129167841Y-210605001D01*
X127545279Y-210555517D02*
G75*
G03*
X126896701Y-211258289I-216878J-450514D01*
G01*
X129965000Y-213099452D02*
G75*
G03*
X130033298Y-213351710I500010J2D01*
G01*
X127762157Y-214004987D02*
G75*
G03*
X127545279Y-214054484I143J-500513D01*
G01*
X129167841Y-210605001D02*
G75*
G03*
X129384719Y-210555516I2J499990D01*
G01*
X130033298Y-211258289D02*
G75*
G03*
X129964999Y-211510548I431710J-252261D01*
G01*
X126896700Y-213351711D02*
G75*
G03*
X127545279Y-214054484I431700J-252259D01*
G01*
X126965000Y-211510547D02*
G75*
G03*
X126896701Y-211258289I-500009J-3D01*
G01*
X127545279Y-210555516D02*
G75*
G03*
X127762156Y-210605001I216876J450505D01*
G01*
X129384721Y-214054480D02*
G75*
G03*
X130033296Y-213351711I216879J450510D01*
G01*
X126896700Y-213351711D02*
G75*
G03*
X126964999Y-213099453I-431710J252261D01*
G01*
X130033298Y-211258289D02*
G75*
G03*
X129384718Y-210555516I-431700J252259D01*
G01*
X129384719Y-214054484D02*
G75*
G03*
X129167842Y-214004999I-216959J-450866D01*
G01*
X142319999Y-84377157D02*
X142319999Y-85782841D01*
X141414452Y-86579999D02*
X139825548Y-86579999D01*
X139825548Y-83580000D02*
X141414453Y-83580000D01*
X138920001Y-85782841D02*
X138920001Y-84377157D01*
X139825548Y-86580000D02*
G75*
G03*
X139573290Y-86648298I2J-500010D01*
G01*
X141666711Y-86648298D02*
G75*
G03*
X142369484Y-85999718I252259J431700D01*
G01*
X139573289Y-83511700D02*
G75*
G03*
X138870516Y-84160279I-252259J-431700D01*
G01*
X139573289Y-83511700D02*
G75*
G03*
X139825547Y-83579999I252261J431710D01*
G01*
X141414453Y-83580000D02*
G75*
G03*
X141666711Y-83511701I-3J500009D01*
G01*
X142369484Y-84160279D02*
G75*
G03*
X142319999Y-84377156I450505J-216876D01*
G01*
X138870516Y-85999719D02*
G75*
G03*
X138920001Y-85782842I-450866J216959D01*
G01*
X138920013Y-84377157D02*
G75*
G03*
X138870516Y-84160279I-500513J-143D01*
G01*
X138870520Y-85999721D02*
G75*
G03*
X139573289Y-86648296I450510J-216879D01*
G01*
X142319999Y-85782841D02*
G75*
G03*
X142369484Y-85999719I499990J-2D01*
G01*
X142369483Y-84160279D02*
G75*
G03*
X141666711Y-83511701I-450514J216878D01*
G01*
X141666711Y-86648298D02*
G75*
G03*
X141414452Y-86579999I-252261J-431710D01*
G01*
X89637156Y-229730002D02*
X91042840Y-229730002D01*
X91839998Y-230635549D02*
X91839998Y-232224453D01*
X88839999Y-232224453D02*
X88839999Y-230635548D01*
X91042840Y-233130000D02*
X89637156Y-233130000D01*
X91908297Y-230383290D02*
G75*
G03*
X91839998Y-230635549I431710J-252261D01*
G01*
X88771699Y-232476712D02*
G75*
G03*
X89420278Y-233179485I431700J-252259D01*
G01*
X91042840Y-229730002D02*
G75*
G03*
X91259718Y-229680517I2J499990D01*
G01*
X89637156Y-233129988D02*
G75*
G03*
X89420278Y-233179485I143J-500513D01*
G01*
X91839999Y-232224453D02*
G75*
G03*
X91908297Y-232476711I500010J2D01*
G01*
X89420278Y-229680517D02*
G75*
G03*
X89637155Y-229730002I216876J450505D01*
G01*
X91259720Y-233179481D02*
G75*
G03*
X91908295Y-232476712I216879J450510D01*
G01*
X88839999Y-230635548D02*
G75*
G03*
X88771700Y-230383290I-500009J-3D01*
G01*
X91259718Y-233179485D02*
G75*
G03*
X91042841Y-233130000I-216959J-450866D01*
G01*
X89420278Y-229680518D02*
G75*
G03*
X88771700Y-230383290I-216878J-450514D01*
G01*
X88771699Y-232476712D02*
G75*
G03*
X88839998Y-232224454I-431710J252261D01*
G01*
X91908297Y-230383290D02*
G75*
G03*
X91259717Y-229680517I-431700J252259D01*
G01*
X44825548Y-45580000D02*
X46414453Y-45580000D01*
X46414452Y-48579999D02*
X44825548Y-48579999D01*
X47319999Y-46377157D02*
X47319999Y-47782841D01*
X43920001Y-47782841D02*
X43920001Y-46377157D01*
X47369483Y-46160279D02*
G75*
G03*
X46666711Y-45511701I-450514J216878D01*
G01*
X44825548Y-48580000D02*
G75*
G03*
X44573290Y-48648298I2J-500010D01*
G01*
X43870520Y-47999721D02*
G75*
G03*
X44573289Y-48648296I450510J-216879D01*
G01*
X46666711Y-48648298D02*
G75*
G03*
X47369484Y-47999718I252259J431700D01*
G01*
X46414453Y-45580000D02*
G75*
G03*
X46666711Y-45511701I-3J500009D01*
G01*
X43870516Y-47999719D02*
G75*
G03*
X43920001Y-47782842I-450866J216959D01*
G01*
X44573289Y-45511700D02*
G75*
G03*
X44825547Y-45579999I252261J431710D01*
G01*
X46666711Y-48648298D02*
G75*
G03*
X46414452Y-48579999I-252261J-431710D01*
G01*
X43920013Y-46377157D02*
G75*
G03*
X43870516Y-46160279I-500513J-143D01*
G01*
X47369484Y-46160279D02*
G75*
G03*
X47319999Y-46377156I450505J-216876D01*
G01*
X47319999Y-47782841D02*
G75*
G03*
X47369484Y-47999719I499990J-2D01*
G01*
X44573289Y-45511700D02*
G75*
G03*
X43870516Y-46160279I-252259J-431700D01*
G01*
X53759998Y-230635549D02*
X53759998Y-232224453D01*
X52962840Y-233130000D02*
X51557156Y-233130000D01*
X51557156Y-229730002D02*
X52962840Y-229730002D01*
X50759999Y-232224453D02*
X50759999Y-230635548D01*
X53179718Y-233179485D02*
G75*
G03*
X52962841Y-233130000I-216959J-450866D01*
G01*
X50759999Y-230635548D02*
G75*
G03*
X50691700Y-230383290I-500009J-3D01*
G01*
X53828297Y-230383290D02*
G75*
G03*
X53179717Y-229680517I-431700J252259D01*
G01*
X50691699Y-232476712D02*
G75*
G03*
X51340278Y-233179485I431700J-252259D01*
G01*
X53759999Y-232224453D02*
G75*
G03*
X53828297Y-232476711I500010J2D01*
G01*
X52962840Y-229730002D02*
G75*
G03*
X53179718Y-229680517I2J499990D01*
G01*
X51557156Y-233129988D02*
G75*
G03*
X51340278Y-233179485I143J-500513D01*
G01*
X53828297Y-230383290D02*
G75*
G03*
X53759998Y-230635549I431710J-252261D01*
G01*
X50691699Y-232476712D02*
G75*
G03*
X50759998Y-232224454I-431710J252261D01*
G01*
X53179720Y-233179481D02*
G75*
G03*
X53828295Y-232476712I216879J450510D01*
G01*
X51340278Y-229680517D02*
G75*
G03*
X51557155Y-229730002I216876J450505D01*
G01*
X51340278Y-229680518D02*
G75*
G03*
X50691700Y-230383290I-216878J-450514D01*
G01*
X110839998Y-173510548D02*
X110839998Y-175099452D01*
X107839999Y-175099452D02*
X107839999Y-173510547D01*
X108637156Y-172605001D02*
X110042840Y-172605001D01*
X110042840Y-176004999D02*
X108637156Y-176004999D01*
X107771699Y-175351711D02*
G75*
G03*
X108420278Y-176054484I431700J-252259D01*
G01*
X110042840Y-172605001D02*
G75*
G03*
X110259718Y-172555516I2J499990D01*
G01*
X110259718Y-176054484D02*
G75*
G03*
X110042841Y-176004999I-216959J-450866D01*
G01*
X108420278Y-172555516D02*
G75*
G03*
X108637155Y-172605001I216876J450505D01*
G01*
X107771699Y-175351711D02*
G75*
G03*
X107839998Y-175099453I-431710J252261D01*
G01*
X110259720Y-176054480D02*
G75*
G03*
X110908295Y-175351711I216879J450510D01*
G01*
X110839999Y-175099452D02*
G75*
G03*
X110908297Y-175351710I500010J2D01*
G01*
X110908297Y-173258289D02*
G75*
G03*
X110259717Y-172555516I-431700J252259D01*
G01*
X107839999Y-173510547D02*
G75*
G03*
X107771700Y-173258289I-500009J-3D01*
G01*
X108420278Y-172555517D02*
G75*
G03*
X107771700Y-173258289I-216878J-450514D01*
G01*
X110908297Y-173258289D02*
G75*
G03*
X110839998Y-173510548I431710J-252261D01*
G01*
X108637156Y-176004987D02*
G75*
G03*
X108420278Y-176054484I143J-500513D01*
G01*
X85319999Y-103377157D02*
X85319999Y-104782841D01*
X81920001Y-104782841D02*
X81920001Y-103377157D01*
X82825548Y-102580000D02*
X84414453Y-102580000D01*
X84414452Y-105579999D02*
X82825548Y-105579999D01*
X81870516Y-104999719D02*
G75*
G03*
X81920001Y-104782842I-450866J216959D01*
G01*
X82825548Y-105580000D02*
G75*
G03*
X82573290Y-105648298I2J-500010D01*
G01*
X81920013Y-103377157D02*
G75*
G03*
X81870516Y-103160279I-500513J-143D01*
G01*
X85319999Y-104782841D02*
G75*
G03*
X85369484Y-104999719I499990J-2D01*
G01*
X84666711Y-105648298D02*
G75*
G03*
X84414452Y-105579999I-252261J-431710D01*
G01*
X82573289Y-102511700D02*
G75*
G03*
X81870516Y-103160279I-252259J-431700D01*
G01*
X84666711Y-105648298D02*
G75*
G03*
X85369484Y-104999718I252259J431700D01*
G01*
X85369483Y-103160279D02*
G75*
G03*
X84666711Y-102511701I-450514J216878D01*
G01*
X85369484Y-103160279D02*
G75*
G03*
X85319999Y-103377156I450505J-216876D01*
G01*
X81870520Y-104999721D02*
G75*
G03*
X82573289Y-105648296I450510J-216879D01*
G01*
X84414453Y-102580000D02*
G75*
G03*
X84666711Y-102511701I-3J500009D01*
G01*
X82573289Y-102511700D02*
G75*
G03*
X82825547Y-102579999I252261J431710D01*
G01*
X66319999Y-103377157D02*
X66319999Y-104782841D01*
X62920001Y-104782841D02*
X62920001Y-103377157D01*
X63825548Y-102580000D02*
X65414453Y-102580000D01*
X65414452Y-105579999D02*
X63825548Y-105579999D01*
X66369484Y-103160279D02*
G75*
G03*
X66319999Y-103377156I450505J-216876D01*
G01*
X63825548Y-105580000D02*
G75*
G03*
X63573290Y-105648298I2J-500010D01*
G01*
X65414453Y-102580000D02*
G75*
G03*
X65666711Y-102511701I-3J500009D01*
G01*
X62920013Y-103377157D02*
G75*
G03*
X62870516Y-103160279I-500513J-143D01*
G01*
X66369483Y-103160279D02*
G75*
G03*
X65666711Y-102511701I-450514J216878D01*
G01*
X63573289Y-102511700D02*
G75*
G03*
X62870516Y-103160279I-252259J-431700D01*
G01*
X62870520Y-104999721D02*
G75*
G03*
X63573289Y-105648296I450510J-216879D01*
G01*
X65666711Y-105648298D02*
G75*
G03*
X66369484Y-104999718I252259J431700D01*
G01*
X62870516Y-104999719D02*
G75*
G03*
X62920001Y-104782842I-450866J216959D01*
G01*
X63573289Y-102511700D02*
G75*
G03*
X63825547Y-102579999I252261J431710D01*
G01*
X66319999Y-104782841D02*
G75*
G03*
X66369484Y-104999719I499990J-2D01*
G01*
X65666711Y-105648298D02*
G75*
G03*
X65414452Y-105579999I-252261J-431710D01*
G01*
X84414452Y-86579999D02*
X82825548Y-86579999D01*
X81920001Y-85782841D02*
X81920001Y-84377157D01*
X85319999Y-84377157D02*
X85319999Y-85782841D01*
X82825548Y-83580000D02*
X84414453Y-83580000D01*
X85369483Y-84160279D02*
G75*
G03*
X84666711Y-83511701I-450514J216878D01*
G01*
X82573289Y-83511700D02*
G75*
G03*
X82825547Y-83579999I252261J431710D01*
G01*
X81870520Y-85999721D02*
G75*
G03*
X82573289Y-86648296I450510J-216879D01*
G01*
X85319999Y-85782841D02*
G75*
G03*
X85369484Y-85999719I499990J-2D01*
G01*
X81870516Y-85999719D02*
G75*
G03*
X81920001Y-85782842I-450866J216959D01*
G01*
X81920013Y-84377157D02*
G75*
G03*
X81870516Y-84160279I-500513J-143D01*
G01*
X84666711Y-86648298D02*
G75*
G03*
X84414452Y-86579999I-252261J-431710D01*
G01*
X84414453Y-83580000D02*
G75*
G03*
X84666711Y-83511701I-3J500009D01*
G01*
X82573289Y-83511700D02*
G75*
G03*
X81870516Y-84160279I-252259J-431700D01*
G01*
X84666711Y-86648298D02*
G75*
G03*
X85369484Y-85999718I252259J431700D01*
G01*
X82825548Y-86580000D02*
G75*
G03*
X82573290Y-86648298I2J-500010D01*
G01*
X85369484Y-84160279D02*
G75*
G03*
X85319999Y-84377156I450505J-216876D01*
G01*
X89557157Y-210730001D02*
X90962841Y-210730001D01*
X88760000Y-213224452D02*
X88760000Y-211635547D01*
X91759999Y-211635548D02*
X91759999Y-213224452D01*
X90962841Y-214129999D02*
X89557157Y-214129999D01*
X91828298Y-211383289D02*
G75*
G03*
X91179718Y-210680516I-431700J252259D01*
G01*
X89340279Y-210680516D02*
G75*
G03*
X89557156Y-210730001I216876J450505D01*
G01*
X88691700Y-213476711D02*
G75*
G03*
X89340279Y-214179484I431700J-252259D01*
G01*
X88691700Y-213476711D02*
G75*
G03*
X88759999Y-213224453I-431710J252261D01*
G01*
X88760000Y-211635547D02*
G75*
G03*
X88691701Y-211383289I-500009J-3D01*
G01*
X89557157Y-214129987D02*
G75*
G03*
X89340279Y-214179484I143J-500513D01*
G01*
X91179721Y-214179480D02*
G75*
G03*
X91828296Y-213476711I216879J450510D01*
G01*
X91179719Y-214179484D02*
G75*
G03*
X90962842Y-214129999I-216959J-450866D01*
G01*
X91828298Y-211383289D02*
G75*
G03*
X91759999Y-211635548I431710J-252261D01*
G01*
X90962841Y-210730001D02*
G75*
G03*
X91179719Y-210680516I2J499990D01*
G01*
X91760000Y-213224452D02*
G75*
G03*
X91828298Y-213476710I500010J2D01*
G01*
X89340279Y-210680517D02*
G75*
G03*
X88691701Y-211383289I-216878J-450514D01*
G01*
X62920001Y-85782841D02*
X62920001Y-84377157D01*
X65414452Y-86579999D02*
X63825548Y-86579999D01*
X63825548Y-83580000D02*
X65414453Y-83580000D01*
X66319999Y-84377157D02*
X66319999Y-85782841D01*
X62870520Y-85999721D02*
G75*
G03*
X63573289Y-86648296I450510J-216879D01*
G01*
X63573289Y-83511700D02*
G75*
G03*
X63825547Y-83579999I252261J431710D01*
G01*
X66369484Y-84160279D02*
G75*
G03*
X66319999Y-84377156I450505J-216876D01*
G01*
X63825548Y-86580000D02*
G75*
G03*
X63573290Y-86648298I2J-500010D01*
G01*
X63573289Y-83511700D02*
G75*
G03*
X62870516Y-84160279I-252259J-431700D01*
G01*
X62870516Y-85999719D02*
G75*
G03*
X62920001Y-85782842I-450866J216959D01*
G01*
X66319999Y-85782841D02*
G75*
G03*
X66369484Y-85999719I499990J-2D01*
G01*
X66369483Y-84160279D02*
G75*
G03*
X65666711Y-83511701I-450514J216878D01*
G01*
X65414453Y-83580000D02*
G75*
G03*
X65666711Y-83511701I-3J500009D01*
G01*
X65666711Y-86648298D02*
G75*
G03*
X65414452Y-86579999I-252261J-431710D01*
G01*
X62920013Y-84377157D02*
G75*
G03*
X62870516Y-84160279I-500513J-143D01*
G01*
X65666711Y-86648298D02*
G75*
G03*
X66369484Y-85999718I252259J431700D01*
G01*
X71997840Y-252255000D02*
X70592156Y-252255000D01*
X69794999Y-251349453D02*
X69794999Y-249760548D01*
X72794998Y-249760549D02*
X72794998Y-251349453D01*
X70592156Y-248855002D02*
X71997840Y-248855002D01*
X72214720Y-252304481D02*
G75*
G03*
X72863295Y-251601712I216879J450510D01*
G01*
X70375278Y-248805517D02*
G75*
G03*
X70592155Y-248855002I216876J450505D01*
G01*
X69794999Y-249760548D02*
G75*
G03*
X69726700Y-249508290I-500009J-3D01*
G01*
X69726699Y-251601712D02*
G75*
G03*
X69794998Y-251349454I-431710J252261D01*
G01*
X72863297Y-249508290D02*
G75*
G03*
X72794998Y-249760549I431710J-252261D01*
G01*
X72863297Y-249508290D02*
G75*
G03*
X72214717Y-248805517I-431700J252259D01*
G01*
X72794999Y-251349453D02*
G75*
G03*
X72863297Y-251601711I500010J2D01*
G01*
X69726699Y-251601712D02*
G75*
G03*
X70375278Y-252304485I431700J-252259D01*
G01*
X72214718Y-252304485D02*
G75*
G03*
X71997841Y-252255000I-216959J-450866D01*
G01*
X70592156Y-252254988D02*
G75*
G03*
X70375278Y-252304485I143J-500513D01*
G01*
X70375278Y-248805518D02*
G75*
G03*
X69726700Y-249508290I-216878J-450514D01*
G01*
X71997840Y-248855002D02*
G75*
G03*
X72214718Y-248805517I2J499990D01*
G01*
X110042840Y-195005000D02*
X108637156Y-195005000D01*
X108637156Y-191605002D02*
X110042840Y-191605002D01*
X107839999Y-194099453D02*
X107839999Y-192510548D01*
X110839998Y-192510549D02*
X110839998Y-194099453D01*
X110042840Y-191605002D02*
G75*
G03*
X110259718Y-191555517I2J499990D01*
G01*
X110259720Y-195054481D02*
G75*
G03*
X110908295Y-194351712I216879J450510D01*
G01*
X107771699Y-194351712D02*
G75*
G03*
X108420278Y-195054485I431700J-252259D01*
G01*
X107771699Y-194351712D02*
G75*
G03*
X107839998Y-194099454I-431710J252261D01*
G01*
X107839999Y-192510548D02*
G75*
G03*
X107771700Y-192258290I-500009J-3D01*
G01*
X110839999Y-194099453D02*
G75*
G03*
X110908297Y-194351711I500010J2D01*
G01*
X108420278Y-191555518D02*
G75*
G03*
X107771700Y-192258290I-216878J-450514D01*
G01*
X110908297Y-192258290D02*
G75*
G03*
X110259717Y-191555517I-431700J252259D01*
G01*
X108637156Y-195004988D02*
G75*
G03*
X108420278Y-195054485I143J-500513D01*
G01*
X110908297Y-192258290D02*
G75*
G03*
X110839998Y-192510549I431710J-252261D01*
G01*
X108420278Y-191555517D02*
G75*
G03*
X108637155Y-191605002I216876J450505D01*
G01*
X110259718Y-195054485D02*
G75*
G03*
X110042841Y-195005000I-216959J-450866D01*
G01*
X108637156Y-248730002D02*
X110042840Y-248730002D01*
X110839998Y-249635549D02*
X110839998Y-251224453D01*
X110042840Y-252130000D02*
X108637156Y-252130000D01*
X107839999Y-251224453D02*
X107839999Y-249635548D01*
X107839999Y-249635548D02*
G75*
G03*
X107771700Y-249383290I-500009J-3D01*
G01*
X108420278Y-248680517D02*
G75*
G03*
X108637155Y-248730002I216876J450505D01*
G01*
X110259718Y-252179485D02*
G75*
G03*
X110042841Y-252130000I-216959J-450866D01*
G01*
X107771699Y-251476712D02*
G75*
G03*
X108420278Y-252179485I431700J-252259D01*
G01*
X107771699Y-251476712D02*
G75*
G03*
X107839998Y-251224454I-431710J252261D01*
G01*
X110908297Y-249383290D02*
G75*
G03*
X110839998Y-249635549I431710J-252261D01*
G01*
X110042840Y-248730002D02*
G75*
G03*
X110259718Y-248680517I2J499990D01*
G01*
X110839999Y-251224453D02*
G75*
G03*
X110908297Y-251476711I500010J2D01*
G01*
X108420278Y-248680518D02*
G75*
G03*
X107771700Y-249383290I-216878J-450514D01*
G01*
X110908297Y-249383290D02*
G75*
G03*
X110259717Y-248680517I-431700J252259D01*
G01*
X110259720Y-252179481D02*
G75*
G03*
X110908295Y-251476712I216879J450510D01*
G01*
X108637156Y-252129988D02*
G75*
G03*
X108420278Y-252179485I143J-500513D01*
G01*
X72042840Y-233130000D02*
X70637156Y-233130000D01*
X70637156Y-229730002D02*
X72042840Y-229730002D01*
X72839998Y-230635549D02*
X72839998Y-232224453D01*
X69839999Y-232224453D02*
X69839999Y-230635548D01*
X69771699Y-232476712D02*
G75*
G03*
X69839998Y-232224454I-431710J252261D01*
G01*
X72259718Y-233179485D02*
G75*
G03*
X72042841Y-233130000I-216959J-450866D01*
G01*
X72908297Y-230383290D02*
G75*
G03*
X72839998Y-230635549I431710J-252261D01*
G01*
X70637156Y-233129988D02*
G75*
G03*
X70420278Y-233179485I143J-500513D01*
G01*
X72042840Y-229730002D02*
G75*
G03*
X72259718Y-229680517I2J499990D01*
G01*
X72839999Y-232224453D02*
G75*
G03*
X72908297Y-232476711I500010J2D01*
G01*
X72259720Y-233179481D02*
G75*
G03*
X72908295Y-232476712I216879J450510D01*
G01*
X69771699Y-232476712D02*
G75*
G03*
X70420278Y-233179485I431700J-252259D01*
G01*
X70420278Y-229680518D02*
G75*
G03*
X69771700Y-230383290I-216878J-450514D01*
G01*
X70420278Y-229680517D02*
G75*
G03*
X70637155Y-229730002I216876J450505D01*
G01*
X69839999Y-230635548D02*
G75*
G03*
X69771700Y-230383290I-500009J-3D01*
G01*
X72908297Y-230383290D02*
G75*
G03*
X72259717Y-229680517I-431700J252259D01*
G01*
X84414452Y-67579999D02*
X82825548Y-67579999D01*
X81920001Y-66782841D02*
X81920001Y-65377157D01*
X85319999Y-65377157D02*
X85319999Y-66782841D01*
X82825548Y-64580000D02*
X84414453Y-64580000D01*
X82573289Y-64511700D02*
G75*
G03*
X82825547Y-64579999I252261J431710D01*
G01*
X82573289Y-64511700D02*
G75*
G03*
X81870516Y-65160279I-252259J-431700D01*
G01*
X84666711Y-67648298D02*
G75*
G03*
X84414452Y-67579999I-252261J-431710D01*
G01*
X85319999Y-66782841D02*
G75*
G03*
X85369484Y-66999719I499990J-2D01*
G01*
X81870520Y-66999721D02*
G75*
G03*
X82573289Y-67648296I450510J-216879D01*
G01*
X81870516Y-66999719D02*
G75*
G03*
X81920001Y-66782842I-450866J216959D01*
G01*
X81920013Y-65377157D02*
G75*
G03*
X81870516Y-65160279I-500513J-143D01*
G01*
X84666711Y-67648298D02*
G75*
G03*
X85369484Y-66999718I252259J431700D01*
G01*
X85369484Y-65160279D02*
G75*
G03*
X85319999Y-65377156I450505J-216876D01*
G01*
X84414453Y-64580000D02*
G75*
G03*
X84666711Y-64511701I-3J500009D01*
G01*
X82825548Y-67580000D02*
G75*
G03*
X82573290Y-67648298I2J-500010D01*
G01*
X85369483Y-65160279D02*
G75*
G03*
X84666711Y-64511701I-450514J216878D01*
G01*
X129839998Y-154510548D02*
X129839998Y-156099452D01*
X126839999Y-156099452D02*
X126839999Y-154510547D01*
X129042840Y-157004999D02*
X127637156Y-157004999D01*
X127637156Y-153605001D02*
X129042840Y-153605001D01*
X127420278Y-153555516D02*
G75*
G03*
X127637155Y-153605001I216876J450505D01*
G01*
X129259718Y-157054484D02*
G75*
G03*
X129042841Y-157004999I-216959J-450866D01*
G01*
X126771699Y-156351711D02*
G75*
G03*
X126839998Y-156099453I-431710J252261D01*
G01*
X129908297Y-154258289D02*
G75*
G03*
X129259717Y-153555516I-431700J252259D01*
G01*
X126839999Y-154510547D02*
G75*
G03*
X126771700Y-154258289I-500009J-3D01*
G01*
X127637156Y-157004987D02*
G75*
G03*
X127420278Y-157054484I143J-500513D01*
G01*
X126771699Y-156351711D02*
G75*
G03*
X127420278Y-157054484I431700J-252259D01*
G01*
X127420278Y-153555517D02*
G75*
G03*
X126771700Y-154258289I-216878J-450514D01*
G01*
X129259720Y-157054480D02*
G75*
G03*
X129908295Y-156351711I216879J450510D01*
G01*
X129839999Y-156099452D02*
G75*
G03*
X129908297Y-156351710I500010J2D01*
G01*
X129908297Y-154258289D02*
G75*
G03*
X129839998Y-154510548I431710J-252261D01*
G01*
X129042840Y-153605001D02*
G75*
G03*
X129259718Y-153555516I2J499990D01*
G01*
X104319999Y-65377157D02*
X104319999Y-66782841D01*
X103414452Y-67579999D02*
X101825548Y-67579999D01*
X101825548Y-64580000D02*
X103414453Y-64580000D01*
X100920001Y-66782841D02*
X100920001Y-65377157D01*
X103666711Y-67648298D02*
G75*
G03*
X103414452Y-67579999I-252261J-431710D01*
G01*
X104369483Y-65160279D02*
G75*
G03*
X103666711Y-64511701I-450514J216878D01*
G01*
X100870516Y-66999719D02*
G75*
G03*
X100920001Y-66782842I-450866J216959D01*
G01*
X101825548Y-67580000D02*
G75*
G03*
X101573290Y-67648298I2J-500010D01*
G01*
X100870520Y-66999721D02*
G75*
G03*
X101573289Y-67648296I450510J-216879D01*
G01*
X103414453Y-64580000D02*
G75*
G03*
X103666711Y-64511701I-3J500009D01*
G01*
X100920013Y-65377157D02*
G75*
G03*
X100870516Y-65160279I-500513J-143D01*
G01*
X104319999Y-66782841D02*
G75*
G03*
X104369484Y-66999719I499990J-2D01*
G01*
X101573289Y-64511700D02*
G75*
G03*
X100870516Y-65160279I-252259J-431700D01*
G01*
X101573289Y-64511700D02*
G75*
G03*
X101825547Y-64579999I252261J431710D01*
G01*
X103666711Y-67648298D02*
G75*
G03*
X104369484Y-66999718I252259J431700D01*
G01*
X104369484Y-65160279D02*
G75*
G03*
X104319999Y-65377156I450505J-216876D01*
G01*
X107839999Y-213099453D02*
X107839999Y-211510548D01*
X110839998Y-211510549D02*
X110839998Y-213099453D01*
X108637156Y-210605002D02*
X110042840Y-210605002D01*
X110042840Y-214005000D02*
X108637156Y-214005000D01*
X108420278Y-210555518D02*
G75*
G03*
X107771700Y-211258290I-216878J-450514D01*
G01*
X107771699Y-213351712D02*
G75*
G03*
X107839998Y-213099454I-431710J252261D01*
G01*
X108637156Y-214004988D02*
G75*
G03*
X108420278Y-214054485I143J-500513D01*
G01*
X110259720Y-214054481D02*
G75*
G03*
X110908295Y-213351712I216879J450510D01*
G01*
X110839999Y-213099453D02*
G75*
G03*
X110908297Y-213351711I500010J2D01*
G01*
X110259718Y-214054485D02*
G75*
G03*
X110042841Y-214005000I-216959J-450866D01*
G01*
X108420278Y-210555517D02*
G75*
G03*
X108637155Y-210605002I216876J450505D01*
G01*
X110908297Y-211258290D02*
G75*
G03*
X110839998Y-211510549I431710J-252261D01*
G01*
X107771699Y-213351712D02*
G75*
G03*
X108420278Y-214054485I431700J-252259D01*
G01*
X107839999Y-211510548D02*
G75*
G03*
X107771700Y-211258290I-500009J-3D01*
G01*
X110042840Y-210605002D02*
G75*
G03*
X110259718Y-210555517I2J499990D01*
G01*
X110908297Y-211258290D02*
G75*
G03*
X110259717Y-210555517I-431700J252259D01*
G01*
X44825548Y-64580000D02*
X46414453Y-64580000D01*
X43920001Y-66782841D02*
X43920001Y-65377157D01*
X47319999Y-65377157D02*
X47319999Y-66782841D01*
X46414452Y-67579999D02*
X44825548Y-67579999D01*
X43870516Y-66999719D02*
G75*
G03*
X43920001Y-66782842I-450866J216959D01*
G01*
X44825548Y-67580000D02*
G75*
G03*
X44573290Y-67648298I2J-500010D01*
G01*
X46414453Y-64580000D02*
G75*
G03*
X46666711Y-64511701I-3J500009D01*
G01*
X47369483Y-65160279D02*
G75*
G03*
X46666711Y-64511701I-450514J216878D01*
G01*
X46666711Y-67648298D02*
G75*
G03*
X47369484Y-66999718I252259J431700D01*
G01*
X47369484Y-65160279D02*
G75*
G03*
X47319999Y-65377156I450505J-216876D01*
G01*
X43920013Y-65377157D02*
G75*
G03*
X43870516Y-65160279I-500513J-143D01*
G01*
X46666711Y-67648298D02*
G75*
G03*
X46414452Y-67579999I-252261J-431710D01*
G01*
X43870520Y-66999721D02*
G75*
G03*
X44573289Y-67648296I450510J-216879D01*
G01*
X47319999Y-66782841D02*
G75*
G03*
X47369484Y-66999719I499990J-2D01*
G01*
X44573289Y-64511700D02*
G75*
G03*
X43870516Y-65160279I-252259J-431700D01*
G01*
X44573289Y-64511700D02*
G75*
G03*
X44825547Y-64579999I252261J431710D01*
G01*
X122414452Y-67579999D02*
X120825548Y-67579999D01*
X123319999Y-65377157D02*
X123319999Y-66782841D01*
X119920001Y-66782841D02*
X119920001Y-65377157D01*
X120825548Y-64580000D02*
X122414453Y-64580000D01*
X120573289Y-64511700D02*
G75*
G03*
X119870516Y-65160279I-252259J-431700D01*
G01*
X123369484Y-65160279D02*
G75*
G03*
X123319999Y-65377156I450505J-216876D01*
G01*
X119920013Y-65377157D02*
G75*
G03*
X119870516Y-65160279I-500513J-143D01*
G01*
X119870520Y-66999721D02*
G75*
G03*
X120573289Y-67648296I450510J-216879D01*
G01*
X120573289Y-64511700D02*
G75*
G03*
X120825547Y-64579999I252261J431710D01*
G01*
X123369483Y-65160279D02*
G75*
G03*
X122666711Y-64511701I-450514J216878D01*
G01*
X122414453Y-64580000D02*
G75*
G03*
X122666711Y-64511701I-3J500009D01*
G01*
X123319999Y-66782841D02*
G75*
G03*
X123369484Y-66999719I499990J-2D01*
G01*
X122666711Y-67648298D02*
G75*
G03*
X123369484Y-66999718I252259J431700D01*
G01*
X122666711Y-67648298D02*
G75*
G03*
X122414452Y-67579999I-252261J-431710D01*
G01*
X120825548Y-67580000D02*
G75*
G03*
X120573290Y-67648298I2J-500010D01*
G01*
X119870516Y-66999719D02*
G75*
G03*
X119920001Y-66782842I-450866J216959D01*
G01*
X142319999Y-103377157D02*
X142319999Y-104782841D01*
X138920001Y-104782841D02*
X138920001Y-103377157D01*
X139825548Y-102580000D02*
X141414453Y-102580000D01*
X141414452Y-105579999D02*
X139825548Y-105579999D01*
X141666711Y-105648298D02*
G75*
G03*
X142369484Y-104999718I252259J431700D01*
G01*
X142369483Y-103160279D02*
G75*
G03*
X141666711Y-102511701I-450514J216878D01*
G01*
X141666711Y-105648298D02*
G75*
G03*
X141414452Y-105579999I-252261J-431710D01*
G01*
X138870516Y-104999719D02*
G75*
G03*
X138920001Y-104782842I-450866J216959D01*
G01*
X142369484Y-103160279D02*
G75*
G03*
X142319999Y-103377156I450505J-216876D01*
G01*
X139573289Y-102511700D02*
G75*
G03*
X139825547Y-102579999I252261J431710D01*
G01*
X142319999Y-104782841D02*
G75*
G03*
X142369484Y-104999719I499990J-2D01*
G01*
X139825548Y-105580000D02*
G75*
G03*
X139573290Y-105648298I2J-500010D01*
G01*
X138920013Y-103377157D02*
G75*
G03*
X138870516Y-103160279I-500513J-143D01*
G01*
X141414453Y-102580000D02*
G75*
G03*
X141666711Y-102511701I-3J500009D01*
G01*
X138870520Y-104999721D02*
G75*
G03*
X139573289Y-105648296I450510J-216879D01*
G01*
X139573289Y-102511700D02*
G75*
G03*
X138870516Y-103160279I-252259J-431700D01*
G01*
X88840000Y-175224453D02*
X88840000Y-173635548D01*
X91042841Y-176130000D02*
X89637157Y-176130000D01*
X89637157Y-172730002D02*
X91042841Y-172730002D01*
X91839999Y-173635549D02*
X91839999Y-175224453D01*
X89420279Y-172680518D02*
G75*
G03*
X88771701Y-173383290I-216878J-450514D01*
G01*
X91908298Y-173383290D02*
G75*
G03*
X91259718Y-172680517I-431700J252259D01*
G01*
X88771700Y-175476712D02*
G75*
G03*
X89420279Y-176179485I431700J-252259D01*
G01*
X91259721Y-176179481D02*
G75*
G03*
X91908296Y-175476712I216879J450510D01*
G01*
X91259719Y-176179485D02*
G75*
G03*
X91042842Y-176130000I-216959J-450866D01*
G01*
X91908298Y-173383290D02*
G75*
G03*
X91839999Y-173635549I431710J-252261D01*
G01*
X89637157Y-176129988D02*
G75*
G03*
X89420279Y-176179485I143J-500513D01*
G01*
X91042841Y-172730002D02*
G75*
G03*
X91259719Y-172680517I2J499990D01*
G01*
X91840000Y-175224453D02*
G75*
G03*
X91908298Y-175476711I500010J2D01*
G01*
X88840000Y-173635548D02*
G75*
G03*
X88771701Y-173383290I-500009J-3D01*
G01*
X89420279Y-172680517D02*
G75*
G03*
X89637156Y-172730002I216876J450505D01*
G01*
X88771700Y-175476712D02*
G75*
G03*
X88839999Y-175224454I-431710J252261D01*
G01*
X72042840Y-157129999D02*
X70637156Y-157129999D01*
X69839999Y-156224452D02*
X69839999Y-154635547D01*
X70637156Y-153730001D02*
X72042840Y-153730001D01*
X72839998Y-154635548D02*
X72839998Y-156224452D01*
X69839999Y-154635547D02*
G75*
G03*
X69771700Y-154383289I-500009J-3D01*
G01*
X70420278Y-153680517D02*
G75*
G03*
X69771700Y-154383289I-216878J-450514D01*
G01*
X72839999Y-156224452D02*
G75*
G03*
X72908297Y-156476710I500010J2D01*
G01*
X72259720Y-157179480D02*
G75*
G03*
X72908295Y-156476711I216879J450510D01*
G01*
X70420278Y-153680516D02*
G75*
G03*
X70637155Y-153730001I216876J450505D01*
G01*
X72908297Y-154383289D02*
G75*
G03*
X72839998Y-154635548I431710J-252261D01*
G01*
X70637156Y-157129987D02*
G75*
G03*
X70420278Y-157179484I143J-500513D01*
G01*
X69771699Y-156476711D02*
G75*
G03*
X70420278Y-157179484I431700J-252259D01*
G01*
X72259718Y-157179484D02*
G75*
G03*
X72042841Y-157129999I-216959J-450866D01*
G01*
X72908297Y-154383289D02*
G75*
G03*
X72259717Y-153680516I-431700J252259D01*
G01*
X69771699Y-156476711D02*
G75*
G03*
X69839998Y-156224453I-431710J252261D01*
G01*
X72042840Y-153730001D02*
G75*
G03*
X72259718Y-153680516I2J499990D01*
G01*
X101825548Y-121580000D02*
X103414453Y-121580000D01*
X103414452Y-124579999D02*
X101825548Y-124579999D01*
X104319999Y-122377157D02*
X104319999Y-123782841D01*
X100920001Y-123782841D02*
X100920001Y-122377157D01*
X104369483Y-122160279D02*
G75*
G03*
X103666711Y-121511701I-450514J216878D01*
G01*
X103666711Y-124648298D02*
G75*
G03*
X104369484Y-123999718I252259J431700D01*
G01*
X101573289Y-121511700D02*
G75*
G03*
X100870516Y-122160279I-252259J-431700D01*
G01*
X103666711Y-124648298D02*
G75*
G03*
X103414452Y-124579999I-252261J-431710D01*
G01*
X100870520Y-123999721D02*
G75*
G03*
X101573289Y-124648296I450510J-216879D01*
G01*
X101573289Y-121511700D02*
G75*
G03*
X101825547Y-121579999I252261J431710D01*
G01*
X100920013Y-122377157D02*
G75*
G03*
X100870516Y-122160279I-500513J-143D01*
G01*
X101825548Y-124580000D02*
G75*
G03*
X101573290Y-124648298I2J-500010D01*
G01*
X100870516Y-123999719D02*
G75*
G03*
X100920001Y-123782842I-450866J216959D01*
G01*
X104319999Y-123782841D02*
G75*
G03*
X104369484Y-123999719I499990J-2D01*
G01*
X104369484Y-122160279D02*
G75*
G03*
X104319999Y-122377156I450505J-216876D01*
G01*
X103414453Y-121580000D02*
G75*
G03*
X103666711Y-121511701I-3J500009D01*
G01*
X142319999Y-46297157D02*
X142319999Y-47702841D01*
X139825548Y-45500000D02*
X141414453Y-45500000D01*
X141414452Y-48499999D02*
X139825548Y-48499999D01*
X138920001Y-47702841D02*
X138920001Y-46297157D01*
X141414453Y-45500000D02*
G75*
G03*
X141666711Y-45431701I-3J500009D01*
G01*
X139573289Y-45431700D02*
G75*
G03*
X138870516Y-46080279I-252259J-431700D01*
G01*
X138870516Y-47919719D02*
G75*
G03*
X138920001Y-47702842I-450866J216959D01*
G01*
X141666711Y-48568298D02*
G75*
G03*
X141414452Y-48499999I-252261J-431710D01*
G01*
X141666711Y-48568298D02*
G75*
G03*
X142369484Y-47919718I252259J431700D01*
G01*
X139573289Y-45431700D02*
G75*
G03*
X139825547Y-45499999I252261J431710D01*
G01*
X138870520Y-47919721D02*
G75*
G03*
X139573289Y-48568296I450510J-216879D01*
G01*
X139825548Y-48500000D02*
G75*
G03*
X139573290Y-48568298I2J-500010D01*
G01*
X142369484Y-46080279D02*
G75*
G03*
X142319999Y-46297156I450505J-216876D01*
G01*
X142319999Y-47702841D02*
G75*
G03*
X142369484Y-47919719I499990J-2D01*
G01*
X138920013Y-46297157D02*
G75*
G03*
X138870516Y-46080279I-500513J-143D01*
G01*
X142369483Y-46080279D02*
G75*
G03*
X141666711Y-45431701I-450514J216878D01*
G01*
X129395001Y-123782841D02*
X129395001Y-122377157D01*
X132794999Y-122377157D02*
X132794999Y-123782841D01*
X131889452Y-124579999D02*
X130300548Y-124579999D01*
X130300548Y-121580000D02*
X131889453Y-121580000D01*
X130048289Y-121511700D02*
G75*
G03*
X129345516Y-122160279I-252259J-431700D01*
G01*
X132844483Y-122160279D02*
G75*
G03*
X132141711Y-121511701I-450514J216878D01*
G01*
X130048289Y-121511700D02*
G75*
G03*
X130300547Y-121579999I252261J431710D01*
G01*
X129395013Y-122377157D02*
G75*
G03*
X129345516Y-122160279I-500513J-143D01*
G01*
X129345516Y-123999719D02*
G75*
G03*
X129395001Y-123782842I-450866J216959D01*
G01*
X132794999Y-123782841D02*
G75*
G03*
X132844484Y-123999719I499990J-2D01*
G01*
X132141711Y-124648298D02*
G75*
G03*
X131889452Y-124579999I-252261J-431710D01*
G01*
X131889453Y-121580000D02*
G75*
G03*
X132141711Y-121511701I-3J500009D01*
G01*
X129345520Y-123999721D02*
G75*
G03*
X130048289Y-124648296I450510J-216879D01*
G01*
X132844484Y-122160279D02*
G75*
G03*
X132794999Y-122377156I450505J-216876D01*
G01*
X132141711Y-124648298D02*
G75*
G03*
X132844484Y-123999718I252259J431700D01*
G01*
X130300548Y-124580000D02*
G75*
G03*
X130048290Y-124648298I2J-500010D01*
G01*
X46414452Y-105579999D02*
X44825548Y-105579999D01*
X44825548Y-102580000D02*
X46414453Y-102580000D01*
X43920001Y-104782841D02*
X43920001Y-103377157D01*
X47319999Y-103377157D02*
X47319999Y-104782841D01*
X44825548Y-105580000D02*
G75*
G03*
X44573290Y-105648298I2J-500010D01*
G01*
X46666711Y-105648298D02*
G75*
G03*
X46414452Y-105579999I-252261J-431710D01*
G01*
X47369484Y-103160279D02*
G75*
G03*
X47319999Y-103377156I450505J-216876D01*
G01*
X46666711Y-105648298D02*
G75*
G03*
X47369484Y-104999718I252259J431700D01*
G01*
X43870520Y-104999721D02*
G75*
G03*
X44573289Y-105648296I450510J-216879D01*
G01*
X44573289Y-102511700D02*
G75*
G03*
X44825547Y-102579999I252261J431710D01*
G01*
X43920013Y-103377157D02*
G75*
G03*
X43870516Y-103160279I-500513J-143D01*
G01*
X47319999Y-104782841D02*
G75*
G03*
X47369484Y-104999719I499990J-2D01*
G01*
X47369483Y-103160279D02*
G75*
G03*
X46666711Y-102511701I-450514J216878D01*
G01*
X46414453Y-102580000D02*
G75*
G03*
X46666711Y-102511701I-3J500009D01*
G01*
X43870516Y-104999719D02*
G75*
G03*
X43920001Y-104782842I-450866J216959D01*
G01*
X44573289Y-102511700D02*
G75*
G03*
X43870516Y-103160279I-252259J-431700D01*
G01*
X51637157Y-153855002D02*
X53042841Y-153855002D01*
X53042841Y-157255000D02*
X51637157Y-157255000D01*
X53839999Y-154760549D02*
X53839999Y-156349453D01*
X50840000Y-156349453D02*
X50840000Y-154760548D01*
X51637157Y-157254988D02*
G75*
G03*
X51420279Y-157304485I143J-500513D01*
G01*
X50771700Y-156601712D02*
G75*
G03*
X50839999Y-156349454I-431710J252261D01*
G01*
X50771700Y-156601712D02*
G75*
G03*
X51420279Y-157304485I431700J-252259D01*
G01*
X53908298Y-154508290D02*
G75*
G03*
X53259718Y-153805517I-431700J252259D01*
G01*
X50840000Y-154760548D02*
G75*
G03*
X50771701Y-154508290I-500009J-3D01*
G01*
X53259719Y-157304485D02*
G75*
G03*
X53042842Y-157255000I-216959J-450866D01*
G01*
X53259721Y-157304481D02*
G75*
G03*
X53908296Y-156601712I216879J450510D01*
G01*
X53908298Y-154508290D02*
G75*
G03*
X53839999Y-154760549I431710J-252261D01*
G01*
X51420279Y-153805518D02*
G75*
G03*
X50771701Y-154508290I-216878J-450514D01*
G01*
X53840000Y-156349453D02*
G75*
G03*
X53908298Y-156601711I500010J2D01*
G01*
X51420279Y-153805517D02*
G75*
G03*
X51637156Y-153855002I216876J450505D01*
G01*
X53042841Y-153855002D02*
G75*
G03*
X53259719Y-153805517I2J499990D01*
G01*
X85319999Y-46377157D02*
X85319999Y-47782841D01*
X81920001Y-47782841D02*
X81920001Y-46377157D01*
X82825548Y-45580000D02*
X84414453Y-45580000D01*
X84414452Y-48579999D02*
X82825548Y-48579999D01*
X85319999Y-47782841D02*
G75*
G03*
X85369484Y-47999719I499990J-2D01*
G01*
X82573289Y-45511700D02*
G75*
G03*
X81870516Y-46160279I-252259J-431700D01*
G01*
X84666711Y-48648298D02*
G75*
G03*
X85369484Y-47999718I252259J431700D01*
G01*
X85369484Y-46160279D02*
G75*
G03*
X85319999Y-46377156I450505J-216876D01*
G01*
X81870516Y-47999719D02*
G75*
G03*
X81920001Y-47782842I-450866J216959D01*
G01*
X82825548Y-48580000D02*
G75*
G03*
X82573290Y-48648298I2J-500010D01*
G01*
X82573289Y-45511700D02*
G75*
G03*
X82825547Y-45579999I252261J431710D01*
G01*
X84414453Y-45580000D02*
G75*
G03*
X84666711Y-45511701I-3J500009D01*
G01*
X81920013Y-46377157D02*
G75*
G03*
X81870516Y-46160279I-500513J-143D01*
G01*
X81870520Y-47999721D02*
G75*
G03*
X82573289Y-48648296I450510J-216879D01*
G01*
X85369483Y-46160279D02*
G75*
G03*
X84666711Y-45511701I-450514J216878D01*
G01*
X84666711Y-48648298D02*
G75*
G03*
X84414452Y-48579999I-252261J-431710D01*
G01*
X84414452Y-124579999D02*
X82825548Y-124579999D01*
X82825548Y-121580000D02*
X84414453Y-121580000D01*
X85319999Y-122377157D02*
X85319999Y-123782841D01*
X81920001Y-123782841D02*
X81920001Y-122377157D01*
X82573289Y-121511700D02*
G75*
G03*
X81870516Y-122160279I-252259J-431700D01*
G01*
X81920013Y-122377157D02*
G75*
G03*
X81870516Y-122160279I-500513J-143D01*
G01*
X85369484Y-122160279D02*
G75*
G03*
X85319999Y-122377156I450505J-216876D01*
G01*
X82573289Y-121511700D02*
G75*
G03*
X82825547Y-121579999I252261J431710D01*
G01*
X85369483Y-122160279D02*
G75*
G03*
X84666711Y-121511701I-450514J216878D01*
G01*
X82825548Y-124580000D02*
G75*
G03*
X82573290Y-124648298I2J-500010D01*
G01*
X84666711Y-124648298D02*
G75*
G03*
X84414452Y-124579999I-252261J-431710D01*
G01*
X85319999Y-123782841D02*
G75*
G03*
X85369484Y-123999719I499990J-2D01*
G01*
X81870520Y-123999721D02*
G75*
G03*
X82573289Y-124648296I450510J-216879D01*
G01*
X84414453Y-121580000D02*
G75*
G03*
X84666711Y-121511701I-3J500009D01*
G01*
X81870516Y-123999719D02*
G75*
G03*
X81920001Y-123782842I-450866J216959D01*
G01*
X84666711Y-124648298D02*
G75*
G03*
X85369484Y-123999718I252259J431700D01*
G01*
X53759998Y-249760548D02*
X53759998Y-251349452D01*
X52962840Y-252254999D02*
X51557156Y-252254999D01*
X50759999Y-251349452D02*
X50759999Y-249760547D01*
X51557156Y-248855001D02*
X52962840Y-248855001D01*
X53179720Y-252304480D02*
G75*
G03*
X53828295Y-251601711I216879J450510D01*
G01*
X53179718Y-252304484D02*
G75*
G03*
X52962841Y-252254999I-216959J-450866D01*
G01*
X51557156Y-252254987D02*
G75*
G03*
X51340278Y-252304484I143J-500513D01*
G01*
X53828297Y-249508289D02*
G75*
G03*
X53179717Y-248805516I-431700J252259D01*
G01*
X51340278Y-248805517D02*
G75*
G03*
X50691700Y-249508289I-216878J-450514D01*
G01*
X52962840Y-248855001D02*
G75*
G03*
X53179718Y-248805516I2J499990D01*
G01*
X53759999Y-251349452D02*
G75*
G03*
X53828297Y-251601710I500010J2D01*
G01*
X50691699Y-251601711D02*
G75*
G03*
X51340278Y-252304484I431700J-252259D01*
G01*
X53828297Y-249508289D02*
G75*
G03*
X53759998Y-249760548I431710J-252261D01*
G01*
X50691699Y-251601711D02*
G75*
G03*
X50759998Y-251349453I-431710J252261D01*
G01*
X51340278Y-248805516D02*
G75*
G03*
X51557155Y-248855001I216876J450505D01*
G01*
X50759999Y-249760547D02*
G75*
G03*
X50691700Y-249508289I-500009J-3D01*
G01*
X100920001Y-47782841D02*
X100920001Y-46377157D01*
X101825548Y-45580000D02*
X103414453Y-45580000D01*
X104319999Y-46377157D02*
X104319999Y-47782841D01*
X103414452Y-48579999D02*
X101825548Y-48579999D01*
X103414453Y-45580000D02*
G75*
G03*
X103666711Y-45511701I-3J500009D01*
G01*
X101573289Y-45511700D02*
G75*
G03*
X100870516Y-46160279I-252259J-431700D01*
G01*
X101825548Y-48580000D02*
G75*
G03*
X101573290Y-48648298I2J-500010D01*
G01*
X104319999Y-47782841D02*
G75*
G03*
X104369484Y-47999719I499990J-2D01*
G01*
X103666711Y-48648298D02*
G75*
G03*
X103414452Y-48579999I-252261J-431710D01*
G01*
X104369483Y-46160279D02*
G75*
G03*
X103666711Y-45511701I-450514J216878D01*
G01*
X100920013Y-46377157D02*
G75*
G03*
X100870516Y-46160279I-500513J-143D01*
G01*
X103666711Y-48648298D02*
G75*
G03*
X104369484Y-47999718I252259J431700D01*
G01*
X100870516Y-47999719D02*
G75*
G03*
X100920001Y-47782842I-450866J216959D01*
G01*
X100870520Y-47999721D02*
G75*
G03*
X101573289Y-48648296I450510J-216879D01*
G01*
X101573289Y-45511700D02*
G75*
G03*
X101825547Y-45579999I252261J431710D01*
G01*
X104369484Y-46160279D02*
G75*
G03*
X104319999Y-46377156I450505J-216876D01*
G01*
X91839999Y-192635549D02*
X91839999Y-194224453D01*
X89637157Y-191730002D02*
X91042841Y-191730002D01*
X91042841Y-195130000D02*
X89637157Y-195130000D01*
X88840000Y-194224453D02*
X88840000Y-192635548D01*
X91259719Y-195179485D02*
G75*
G03*
X91042842Y-195130000I-216959J-450866D01*
G01*
X91908298Y-192383290D02*
G75*
G03*
X91259718Y-191680517I-431700J252259D01*
G01*
X91259721Y-195179481D02*
G75*
G03*
X91908296Y-194476712I216879J450510D01*
G01*
X88840000Y-192635548D02*
G75*
G03*
X88771701Y-192383290I-500009J-3D01*
G01*
X88771700Y-194476712D02*
G75*
G03*
X89420279Y-195179485I431700J-252259D01*
G01*
X88771700Y-194476712D02*
G75*
G03*
X88839999Y-194224454I-431710J252261D01*
G01*
X89637157Y-195129988D02*
G75*
G03*
X89420279Y-195179485I143J-500513D01*
G01*
X89420279Y-191680518D02*
G75*
G03*
X88771701Y-192383290I-216878J-450514D01*
G01*
X91042841Y-191730002D02*
G75*
G03*
X91259719Y-191680517I2J499990D01*
G01*
X91908298Y-192383290D02*
G75*
G03*
X91839999Y-192635549I431710J-252261D01*
G01*
X91840000Y-194224453D02*
G75*
G03*
X91908298Y-194476711I500010J2D01*
G01*
X89420279Y-191680517D02*
G75*
G03*
X89637156Y-191730002I216876J450505D01*
G01*
X120825548Y-102500000D02*
X122414453Y-102500000D01*
X119920001Y-104702841D02*
X119920001Y-103297157D01*
X123319999Y-103297157D02*
X123319999Y-104702841D01*
X122414452Y-105499999D02*
X120825548Y-105499999D01*
X123319999Y-104702841D02*
G75*
G03*
X123369484Y-104919719I499990J-2D01*
G01*
X122666711Y-105568298D02*
G75*
G03*
X122414452Y-105499999I-252261J-431710D01*
G01*
X119920013Y-103297157D02*
G75*
G03*
X119870516Y-103080279I-500513J-143D01*
G01*
X119870520Y-104919721D02*
G75*
G03*
X120573289Y-105568296I450510J-216879D01*
G01*
X122666711Y-105568298D02*
G75*
G03*
X123369484Y-104919718I252259J431700D01*
G01*
X119870516Y-104919719D02*
G75*
G03*
X119920001Y-104702842I-450866J216959D01*
G01*
X123369483Y-103080279D02*
G75*
G03*
X122666711Y-102431701I-450514J216878D01*
G01*
X122414453Y-102500000D02*
G75*
G03*
X122666711Y-102431701I-3J500009D01*
G01*
X120573289Y-102431700D02*
G75*
G03*
X119870516Y-103080279I-252259J-431700D01*
G01*
X120825548Y-105500000D02*
G75*
G03*
X120573290Y-105568298I2J-500010D01*
G01*
X120573289Y-102431700D02*
G75*
G03*
X120825547Y-102499999I252261J431710D01*
G01*
X123369484Y-103080279D02*
G75*
G03*
X123319999Y-103297156I450505J-216876D01*
G01*
X103414452Y-105579999D02*
X101825548Y-105579999D01*
X104319999Y-103377157D02*
X104319999Y-104782841D01*
X101825548Y-102580000D02*
X103414453Y-102580000D01*
X100920001Y-104782841D02*
X100920001Y-103377157D01*
X101573289Y-102511700D02*
G75*
G03*
X100870516Y-103160279I-252259J-431700D01*
G01*
X100920013Y-103377157D02*
G75*
G03*
X100870516Y-103160279I-500513J-143D01*
G01*
X103414453Y-102580000D02*
G75*
G03*
X103666711Y-102511701I-3J500009D01*
G01*
X103666711Y-105648298D02*
G75*
G03*
X103414452Y-105579999I-252261J-431710D01*
G01*
X103666711Y-105648298D02*
G75*
G03*
X104369484Y-104999718I252259J431700D01*
G01*
X101573289Y-102511700D02*
G75*
G03*
X101825547Y-102579999I252261J431710D01*
G01*
X104319999Y-104782841D02*
G75*
G03*
X104369484Y-104999719I499990J-2D01*
G01*
X100870520Y-104999721D02*
G75*
G03*
X101573289Y-105648296I450510J-216879D01*
G01*
X101825548Y-105580000D02*
G75*
G03*
X101573290Y-105648298I2J-500010D01*
G01*
X104369483Y-103160279D02*
G75*
G03*
X103666711Y-102511701I-450514J216878D01*
G01*
X104369484Y-103160279D02*
G75*
G03*
X104319999Y-103377156I450505J-216876D01*
G01*
X100870516Y-104999719D02*
G75*
G03*
X100920001Y-104782842I-450866J216959D01*
G01*
X69839999Y-194224453D02*
X69839999Y-192635548D01*
X72839998Y-192635549D02*
X72839998Y-194224453D01*
X70637156Y-191730002D02*
X72042840Y-191730002D01*
X72042840Y-195130000D02*
X70637156Y-195130000D01*
X70420278Y-191680518D02*
G75*
G03*
X69771700Y-192383290I-216878J-450514D01*
G01*
X72259720Y-195179481D02*
G75*
G03*
X72908295Y-194476712I216879J450510D01*
G01*
X69771699Y-194476712D02*
G75*
G03*
X70420278Y-195179485I431700J-252259D01*
G01*
X72042840Y-191730002D02*
G75*
G03*
X72259718Y-191680517I2J499990D01*
G01*
X72908297Y-192383290D02*
G75*
G03*
X72839998Y-192635549I431710J-252261D01*
G01*
X72908297Y-192383290D02*
G75*
G03*
X72259717Y-191680517I-431700J252259D01*
G01*
X70420278Y-191680517D02*
G75*
G03*
X70637155Y-191730002I216876J450505D01*
G01*
X72259718Y-195179485D02*
G75*
G03*
X72042841Y-195130000I-216959J-450866D01*
G01*
X70637156Y-195129988D02*
G75*
G03*
X70420278Y-195179485I143J-500513D01*
G01*
X69771699Y-194476712D02*
G75*
G03*
X69839998Y-194224454I-431710J252261D01*
G01*
X69839999Y-192635548D02*
G75*
G03*
X69771700Y-192383290I-500009J-3D01*
G01*
X72839999Y-194224453D02*
G75*
G03*
X72908297Y-194476711I500010J2D01*
G01*
X127637156Y-172605001D02*
X129042840Y-172605001D01*
X129042840Y-176004999D02*
X127637156Y-176004999D01*
X126839999Y-175099452D02*
X126839999Y-173510547D01*
X129839998Y-173510548D02*
X129839998Y-175099452D01*
X129908297Y-173258289D02*
G75*
G03*
X129839998Y-173510548I431710J-252261D01*
G01*
X129259720Y-176054480D02*
G75*
G03*
X129908295Y-175351711I216879J450510D01*
G01*
X129908297Y-173258289D02*
G75*
G03*
X129259717Y-172555516I-431700J252259D01*
G01*
X126839999Y-173510547D02*
G75*
G03*
X126771700Y-173258289I-500009J-3D01*
G01*
X129042840Y-172605001D02*
G75*
G03*
X129259718Y-172555516I2J499990D01*
G01*
X127420278Y-172555516D02*
G75*
G03*
X127637155Y-172605001I216876J450505D01*
G01*
X126771699Y-175351711D02*
G75*
G03*
X127420278Y-176054484I431700J-252259D01*
G01*
X126771699Y-175351711D02*
G75*
G03*
X126839998Y-175099453I-431710J252261D01*
G01*
X129259718Y-176054484D02*
G75*
G03*
X129042841Y-176004999I-216959J-450866D01*
G01*
X129839999Y-175099452D02*
G75*
G03*
X129908297Y-175351710I500010J2D01*
G01*
X127420278Y-172555517D02*
G75*
G03*
X126771700Y-173258289I-216878J-450514D01*
G01*
X127637156Y-176004987D02*
G75*
G03*
X127420278Y-176054484I143J-500513D01*
G01*
X44825548Y-83580000D02*
X46414453Y-83580000D01*
X43920001Y-85782841D02*
X43920001Y-84377157D01*
X46414452Y-86579999D02*
X44825548Y-86579999D01*
X47319999Y-84377157D02*
X47319999Y-85782841D01*
X46414453Y-83580000D02*
G75*
G03*
X46666711Y-83511701I-3J500009D01*
G01*
X44825548Y-86580000D02*
G75*
G03*
X44573290Y-86648298I2J-500010D01*
G01*
X43870520Y-85999721D02*
G75*
G03*
X44573289Y-86648296I450510J-216879D01*
G01*
X47369483Y-84160279D02*
G75*
G03*
X46666711Y-83511701I-450514J216878D01*
G01*
X46666711Y-86648298D02*
G75*
G03*
X47369484Y-85999718I252259J431700D01*
G01*
X44573289Y-83511700D02*
G75*
G03*
X44825547Y-83579999I252261J431710D01*
G01*
X46666711Y-86648298D02*
G75*
G03*
X46414452Y-86579999I-252261J-431710D01*
G01*
X47319999Y-85782841D02*
G75*
G03*
X47369484Y-85999719I499990J-2D01*
G01*
X43870516Y-85999719D02*
G75*
G03*
X43920001Y-85782842I-450866J216959D01*
G01*
X47369484Y-84160279D02*
G75*
G03*
X47319999Y-84377156I450505J-216876D01*
G01*
X43920013Y-84377157D02*
G75*
G03*
X43870516Y-84160279I-500513J-143D01*
G01*
X44573289Y-83511700D02*
G75*
G03*
X43870516Y-84160279I-252259J-431700D01*
G01*
X91042841Y-157129999D02*
X89637157Y-157129999D01*
X91839999Y-154635548D02*
X91839999Y-156224452D01*
X88840000Y-156224452D02*
X88840000Y-154635547D01*
X89637157Y-153730001D02*
X91042841Y-153730001D01*
X89420279Y-153680517D02*
G75*
G03*
X88771701Y-154383289I-216878J-450514D01*
G01*
X89637157Y-157129987D02*
G75*
G03*
X89420279Y-157179484I143J-500513D01*
G01*
X91259721Y-157179480D02*
G75*
G03*
X91908296Y-156476711I216879J450510D01*
G01*
X88840000Y-154635547D02*
G75*
G03*
X88771701Y-154383289I-500009J-3D01*
G01*
X91908298Y-154383289D02*
G75*
G03*
X91259718Y-153680516I-431700J252259D01*
G01*
X88771700Y-156476711D02*
G75*
G03*
X88839999Y-156224453I-431710J252261D01*
G01*
X89420279Y-153680516D02*
G75*
G03*
X89637156Y-153730001I216876J450505D01*
G01*
X91908298Y-154383289D02*
G75*
G03*
X91839999Y-154635548I431710J-252261D01*
G01*
X91259719Y-157179484D02*
G75*
G03*
X91042842Y-157129999I-216959J-450866D01*
G01*
X91840000Y-156224452D02*
G75*
G03*
X91908298Y-156476710I500010J2D01*
G01*
X91042841Y-153730001D02*
G75*
G03*
X91259719Y-153680516I2J499990D01*
G01*
X88771700Y-156476711D02*
G75*
G03*
X89420279Y-157179484I431700J-252259D01*
G01*
X72839998Y-211635549D02*
X72839998Y-213224453D01*
X72042840Y-214130000D02*
X70637156Y-214130000D01*
X70637156Y-210730002D02*
X72042840Y-210730002D01*
X69839999Y-213224453D02*
X69839999Y-211635548D01*
X70420278Y-210680518D02*
G75*
G03*
X69771700Y-211383290I-216878J-450514D01*
G01*
X72908297Y-211383290D02*
G75*
G03*
X72839998Y-211635549I431710J-252261D01*
G01*
X72259720Y-214179481D02*
G75*
G03*
X72908295Y-213476712I216879J450510D01*
G01*
X69839999Y-211635548D02*
G75*
G03*
X69771700Y-211383290I-500009J-3D01*
G01*
X69771699Y-213476712D02*
G75*
G03*
X69839998Y-213224454I-431710J252261D01*
G01*
X72908297Y-211383290D02*
G75*
G03*
X72259717Y-210680517I-431700J252259D01*
G01*
X69771699Y-213476712D02*
G75*
G03*
X70420278Y-214179485I431700J-252259D01*
G01*
X72259718Y-214179485D02*
G75*
G03*
X72042841Y-214130000I-216959J-450866D01*
G01*
X72042840Y-210730002D02*
G75*
G03*
X72259718Y-210680517I2J499990D01*
G01*
X70637156Y-214129988D02*
G75*
G03*
X70420278Y-214179485I143J-500513D01*
G01*
X70420278Y-210680517D02*
G75*
G03*
X70637155Y-210730002I216876J450505D01*
G01*
X72839999Y-213224453D02*
G75*
G03*
X72908297Y-213476711I500010J2D01*
G01*
X129839998Y-240110549D02*
X129839998Y-241699453D01*
X126839999Y-241699453D02*
X126839999Y-240110548D01*
X127637156Y-239205002D02*
X129042840Y-239205002D01*
X129042840Y-242605000D02*
X127637156Y-242605000D01*
X129259718Y-242654485D02*
G75*
G03*
X129042841Y-242605000I-216959J-450866D01*
G01*
X129839999Y-241699453D02*
G75*
G03*
X129908297Y-241951711I500010J2D01*
G01*
X127420278Y-239155517D02*
G75*
G03*
X127637155Y-239205002I216876J450505D01*
G01*
X126771699Y-241951712D02*
G75*
G03*
X127420278Y-242654485I431700J-252259D01*
G01*
X129042840Y-239205002D02*
G75*
G03*
X129259718Y-239155517I2J499990D01*
G01*
X129908297Y-239858290D02*
G75*
G03*
X129259717Y-239155517I-431700J252259D01*
G01*
X129259720Y-242654481D02*
G75*
G03*
X129908295Y-241951712I216879J450510D01*
G01*
X129908297Y-239858290D02*
G75*
G03*
X129839998Y-240110549I431710J-252261D01*
G01*
X126839999Y-240110548D02*
G75*
G03*
X126771700Y-239858290I-500009J-3D01*
G01*
X126771699Y-241951712D02*
G75*
G03*
X126839998Y-241699454I-431710J252261D01*
G01*
X127420278Y-239155518D02*
G75*
G03*
X126771700Y-239858290I-216878J-450514D01*
G01*
X127637156Y-242604988D02*
G75*
G03*
X127420278Y-242654485I143J-500513D01*
G01*
X44825548Y-121580000D02*
X46414453Y-121580000D01*
X46414452Y-124579999D02*
X44825548Y-124579999D01*
X43920001Y-123782841D02*
X43920001Y-122377157D01*
X47319999Y-122377157D02*
X47319999Y-123782841D01*
X46666711Y-124648298D02*
G75*
G03*
X46414452Y-124579999I-252261J-431710D01*
G01*
X47319999Y-123782841D02*
G75*
G03*
X47369484Y-123999719I499990J-2D01*
G01*
X43870520Y-123999721D02*
G75*
G03*
X44573289Y-124648296I450510J-216879D01*
G01*
X47369483Y-122160279D02*
G75*
G03*
X46666711Y-121511701I-450514J216878D01*
G01*
X46414453Y-121580000D02*
G75*
G03*
X46666711Y-121511701I-3J500009D01*
G01*
X46666711Y-124648298D02*
G75*
G03*
X47369484Y-123999718I252259J431700D01*
G01*
X43920013Y-122377157D02*
G75*
G03*
X43870516Y-122160279I-500513J-143D01*
G01*
X44825548Y-124580000D02*
G75*
G03*
X44573290Y-124648298I2J-500010D01*
G01*
X43870516Y-123999719D02*
G75*
G03*
X43920001Y-123782842I-450866J216959D01*
G01*
X44573289Y-121511700D02*
G75*
G03*
X43870516Y-122160279I-252259J-431700D01*
G01*
X47369484Y-122160279D02*
G75*
G03*
X47319999Y-122377156I450505J-216876D01*
G01*
X44573289Y-121511700D02*
G75*
G03*
X44825547Y-121579999I252261J431710D01*
G01*
X101825548Y-83580000D02*
X103414453Y-83580000D01*
X100920001Y-85782841D02*
X100920001Y-84377157D01*
X104319999Y-84377157D02*
X104319999Y-85782841D01*
X103414452Y-86579999D02*
X101825548Y-86579999D01*
X104369483Y-84160279D02*
G75*
G03*
X103666711Y-83511701I-450514J216878D01*
G01*
X103666711Y-86648298D02*
G75*
G03*
X103414452Y-86579999I-252261J-431710D01*
G01*
X104319999Y-85782841D02*
G75*
G03*
X104369484Y-85999719I499990J-2D01*
G01*
X101825548Y-86580000D02*
G75*
G03*
X101573290Y-86648298I2J-500010D01*
G01*
X100870516Y-85999719D02*
G75*
G03*
X100920001Y-85782842I-450866J216959D01*
G01*
X103666711Y-86648298D02*
G75*
G03*
X104369484Y-85999718I252259J431700D01*
G01*
X100870520Y-85999721D02*
G75*
G03*
X101573289Y-86648296I450510J-216879D01*
G01*
X101573289Y-83511700D02*
G75*
G03*
X100870516Y-84160279I-252259J-431700D01*
G01*
X100920013Y-84377157D02*
G75*
G03*
X100870516Y-84160279I-500513J-143D01*
G01*
X101573289Y-83511700D02*
G75*
G03*
X101825547Y-83579999I252261J431710D01*
G01*
X103414453Y-83580000D02*
G75*
G03*
X103666711Y-83511701I-3J500009D01*
G01*
X104369484Y-84160279D02*
G75*
G03*
X104319999Y-84377156I450505J-216876D01*
G01*
X123319999Y-84377157D02*
X123319999Y-85782841D01*
X122414452Y-86579999D02*
X120825548Y-86579999D01*
X120825548Y-83580000D02*
X122414453Y-83580000D01*
X119920001Y-85782841D02*
X119920001Y-84377157D01*
X122666711Y-86648298D02*
G75*
G03*
X123369484Y-85999718I252259J431700D01*
G01*
X123319999Y-85782841D02*
G75*
G03*
X123369484Y-85999719I499990J-2D01*
G01*
X122414453Y-83580000D02*
G75*
G03*
X122666711Y-83511701I-3J500009D01*
G01*
X119870520Y-85999721D02*
G75*
G03*
X120573289Y-86648296I450510J-216879D01*
G01*
X119920013Y-84377157D02*
G75*
G03*
X119870516Y-84160279I-500513J-143D01*
G01*
X123369484Y-84160279D02*
G75*
G03*
X123319999Y-84377156I450505J-216876D01*
G01*
X120573289Y-83511700D02*
G75*
G03*
X120825547Y-83579999I252261J431710D01*
G01*
X120825548Y-86580000D02*
G75*
G03*
X120573290Y-86648298I2J-500010D01*
G01*
X120573289Y-83511700D02*
G75*
G03*
X119870516Y-84160279I-252259J-431700D01*
G01*
X123369483Y-84160279D02*
G75*
G03*
X122666711Y-83511701I-450514J216878D01*
G01*
X119870516Y-85999719D02*
G75*
G03*
X119920001Y-85782842I-450866J216959D01*
G01*
X122666711Y-86648298D02*
G75*
G03*
X122414452Y-86579999I-252261J-431710D01*
G01*
X53042840Y-214130000D02*
X51637156Y-214130000D01*
X51637156Y-210730002D02*
X53042840Y-210730002D01*
X53839998Y-211635549D02*
X53839998Y-213224453D01*
X50839999Y-213224453D02*
X50839999Y-211635548D01*
X53259720Y-214179481D02*
G75*
G03*
X53908295Y-213476712I216879J450510D01*
G01*
X53042840Y-210730002D02*
G75*
G03*
X53259718Y-210680517I2J499990D01*
G01*
X51637156Y-214129988D02*
G75*
G03*
X51420278Y-214179485I143J-500513D01*
G01*
X51420278Y-210680518D02*
G75*
G03*
X50771700Y-211383290I-216878J-450514D01*
G01*
X50771699Y-213476712D02*
G75*
G03*
X50839998Y-213224454I-431710J252261D01*
G01*
X53259718Y-214179485D02*
G75*
G03*
X53042841Y-214130000I-216959J-450866D01*
G01*
X53908297Y-211383290D02*
G75*
G03*
X53839998Y-211635549I431710J-252261D01*
G01*
X53908297Y-211383290D02*
G75*
G03*
X53259717Y-210680517I-431700J252259D01*
G01*
X50771699Y-213476712D02*
G75*
G03*
X51420278Y-214179485I431700J-252259D01*
G01*
X51420278Y-210680517D02*
G75*
G03*
X51637155Y-210730002I216876J450505D01*
G01*
X50839999Y-211635548D02*
G75*
G03*
X50771700Y-211383290I-500009J-3D01*
G01*
X53839999Y-213224453D02*
G75*
G03*
X53908297Y-213476711I500010J2D01*
G01*
X62920001Y-66782841D02*
X62920001Y-65377157D01*
X66319999Y-65377157D02*
X66319999Y-66782841D01*
X65414452Y-67579999D02*
X63825548Y-67579999D01*
X63825548Y-64580000D02*
X65414453Y-64580000D01*
X62920013Y-65377157D02*
G75*
G03*
X62870516Y-65160279I-500513J-143D01*
G01*
X63825548Y-67580000D02*
G75*
G03*
X63573290Y-67648298I2J-500010D01*
G01*
X66369483Y-65160279D02*
G75*
G03*
X65666711Y-64511701I-450514J216878D01*
G01*
X65666711Y-67648298D02*
G75*
G03*
X65414452Y-67579999I-252261J-431710D01*
G01*
X63573289Y-64511700D02*
G75*
G03*
X62870516Y-65160279I-252259J-431700D01*
G01*
X65666711Y-67648298D02*
G75*
G03*
X66369484Y-66999718I252259J431700D01*
G01*
X63573289Y-64511700D02*
G75*
G03*
X63825547Y-64579999I252261J431710D01*
G01*
X66319999Y-66782841D02*
G75*
G03*
X66369484Y-66999719I499990J-2D01*
G01*
X62870520Y-66999721D02*
G75*
G03*
X63573289Y-67648296I450510J-216879D01*
G01*
X62870516Y-66999719D02*
G75*
G03*
X62920001Y-66782842I-450866J216959D01*
G01*
X66369484Y-65160279D02*
G75*
G03*
X66319999Y-65377156I450505J-216876D01*
G01*
X65414453Y-64580000D02*
G75*
G03*
X65666711Y-64511701I-3J500009D01*
G01*
X50839999Y-194224453D02*
X50839999Y-192635548D01*
X51637156Y-191730002D02*
X53042840Y-191730002D01*
X53839998Y-192635549D02*
X53839998Y-194224453D01*
X53042840Y-195130000D02*
X51637156Y-195130000D01*
X50771699Y-194476712D02*
G75*
G03*
X51420278Y-195179485I431700J-252259D01*
G01*
X53259720Y-195179481D02*
G75*
G03*
X53908295Y-194476712I216879J450510D01*
G01*
X53259718Y-195179485D02*
G75*
G03*
X53042841Y-195130000I-216959J-450866D01*
G01*
X51420278Y-191680517D02*
G75*
G03*
X51637155Y-191730002I216876J450505D01*
G01*
X51420278Y-191680518D02*
G75*
G03*
X50771700Y-192383290I-216878J-450514D01*
G01*
X53908297Y-192383290D02*
G75*
G03*
X53839998Y-192635549I431710J-252261D01*
G01*
X53839999Y-194224453D02*
G75*
G03*
X53908297Y-194476711I500010J2D01*
G01*
X53042840Y-191730002D02*
G75*
G03*
X53259718Y-191680517I2J499990D01*
G01*
X50771699Y-194476712D02*
G75*
G03*
X50839998Y-194224454I-431710J252261D01*
G01*
X51637156Y-195129988D02*
G75*
G03*
X51420278Y-195179485I143J-500513D01*
G01*
X53908297Y-192383290D02*
G75*
G03*
X53259717Y-191680517I-431700J252259D01*
G01*
X50839999Y-192635548D02*
G75*
G03*
X50771700Y-192383290I-500009J-3D01*
G01*
X66319999Y-122377157D02*
X66319999Y-123782841D01*
X63825548Y-121580000D02*
X65414453Y-121580000D01*
X62920001Y-123782841D02*
X62920001Y-122377157D01*
X65414452Y-124579999D02*
X63825548Y-124579999D01*
X62870516Y-123999719D02*
G75*
G03*
X62920001Y-123782842I-450866J216959D01*
G01*
X62920013Y-122377157D02*
G75*
G03*
X62870516Y-122160279I-500513J-143D01*
G01*
X65414453Y-121580000D02*
G75*
G03*
X65666711Y-121511701I-3J500009D01*
G01*
X65666711Y-124648298D02*
G75*
G03*
X66369484Y-123999718I252259J431700D01*
G01*
X63573289Y-121511700D02*
G75*
G03*
X62870516Y-122160279I-252259J-431700D01*
G01*
X66319999Y-123782841D02*
G75*
G03*
X66369484Y-123999719I499990J-2D01*
G01*
X66369484Y-122160279D02*
G75*
G03*
X66319999Y-122377156I450505J-216876D01*
G01*
X63573289Y-121511700D02*
G75*
G03*
X63825547Y-121579999I252261J431710D01*
G01*
X66369483Y-122160279D02*
G75*
G03*
X65666711Y-121511701I-450514J216878D01*
G01*
X62870520Y-123999721D02*
G75*
G03*
X63573289Y-124648296I450510J-216879D01*
G01*
X63825548Y-124580000D02*
G75*
G03*
X63573290Y-124648298I2J-500010D01*
G01*
X65666711Y-124648298D02*
G75*
G03*
X65414452Y-124579999I-252261J-431710D01*
G01*
X120825548Y-45580000D02*
X122414453Y-45580000D01*
X119920001Y-47782841D02*
X119920001Y-46377157D01*
X122414452Y-48579999D02*
X120825548Y-48579999D01*
X123319999Y-46377157D02*
X123319999Y-47782841D01*
X120825548Y-48580000D02*
G75*
G03*
X120573290Y-48648298I2J-500010D01*
G01*
X119920013Y-46377157D02*
G75*
G03*
X119870516Y-46160279I-500513J-143D01*
G01*
X120573289Y-45511700D02*
G75*
G03*
X119870516Y-46160279I-252259J-431700D01*
G01*
X122414453Y-45580000D02*
G75*
G03*
X122666711Y-45511701I-3J500009D01*
G01*
X119870520Y-47999721D02*
G75*
G03*
X120573289Y-48648296I450510J-216879D01*
G01*
X122666711Y-48648298D02*
G75*
G03*
X122414452Y-48579999I-252261J-431710D01*
G01*
X123369483Y-46160279D02*
G75*
G03*
X122666711Y-45511701I-450514J216878D01*
G01*
X119870516Y-47999719D02*
G75*
G03*
X119920001Y-47782842I-450866J216959D01*
G01*
X120573289Y-45511700D02*
G75*
G03*
X120825547Y-45579999I252261J431710D01*
G01*
X123369484Y-46160279D02*
G75*
G03*
X123319999Y-46377156I450505J-216876D01*
G01*
X122666711Y-48648298D02*
G75*
G03*
X123369484Y-47999718I252259J431700D01*
G01*
X123319999Y-47782841D02*
G75*
G03*
X123369484Y-47999719I499990J-2D01*
G01*
X69839999Y-175224453D02*
X69839999Y-173635548D01*
X72042840Y-176130000D02*
X70637156Y-176130000D01*
X72839998Y-173635549D02*
X72839998Y-175224453D01*
X70637156Y-172730002D02*
X72042840Y-172730002D01*
X70420278Y-172680518D02*
G75*
G03*
X69771700Y-173383290I-216878J-450514D01*
G01*
X72259718Y-176179485D02*
G75*
G03*
X72042841Y-176130000I-216959J-450866D01*
G01*
X69771699Y-175476712D02*
G75*
G03*
X69839998Y-175224454I-431710J252261D01*
G01*
X72042840Y-172730002D02*
G75*
G03*
X72259718Y-172680517I2J499990D01*
G01*
X72908297Y-173383290D02*
G75*
G03*
X72839998Y-173635549I431710J-252261D01*
G01*
X72839999Y-175224453D02*
G75*
G03*
X72908297Y-175476711I500010J2D01*
G01*
X72259720Y-176179481D02*
G75*
G03*
X72908295Y-175476712I216879J450510D01*
G01*
X70420278Y-172680517D02*
G75*
G03*
X70637155Y-172730002I216876J450505D01*
G01*
X69771699Y-175476712D02*
G75*
G03*
X70420278Y-176179485I431700J-252259D01*
G01*
X70637156Y-176129988D02*
G75*
G03*
X70420278Y-176179485I143J-500513D01*
G01*
X72908297Y-173383290D02*
G75*
G03*
X72259717Y-172680517I-431700J252259D01*
G01*
X69839999Y-173635548D02*
G75*
G03*
X69771700Y-173383290I-500009J-3D01*
G01*
X110042841Y-157005000D02*
X108637157Y-157005000D01*
X110839999Y-154510549D02*
X110839999Y-156099453D01*
X108637157Y-153605002D02*
X110042841Y-153605002D01*
X107840000Y-156099453D02*
X107840000Y-154510548D01*
X107840000Y-154510548D02*
G75*
G03*
X107771701Y-154258290I-500009J-3D01*
G01*
X110840000Y-156099453D02*
G75*
G03*
X110908298Y-156351711I500010J2D01*
G01*
X108420279Y-153555518D02*
G75*
G03*
X107771701Y-154258290I-216878J-450514D01*
G01*
X110042841Y-153605002D02*
G75*
G03*
X110259719Y-153555517I2J499990D01*
G01*
X108637157Y-157004988D02*
G75*
G03*
X108420279Y-157054485I143J-500513D01*
G01*
X110908298Y-154258290D02*
G75*
G03*
X110839999Y-154510549I431710J-252261D01*
G01*
X110259719Y-157054485D02*
G75*
G03*
X110042842Y-157005000I-216959J-450866D01*
G01*
X107771700Y-156351712D02*
G75*
G03*
X108420279Y-157054485I431700J-252259D01*
G01*
X110259721Y-157054481D02*
G75*
G03*
X110908296Y-156351712I216879J450510D01*
G01*
X110908298Y-154258290D02*
G75*
G03*
X110259718Y-153555517I-431700J252259D01*
G01*
X108420279Y-153555517D02*
G75*
G03*
X108637156Y-153605002I216876J450505D01*
G01*
X107771700Y-156351712D02*
G75*
G03*
X107839999Y-156099454I-431710J252261D01*
G01*
X141414452Y-67579999D02*
X139825548Y-67579999D01*
X142319999Y-65377157D02*
X142319999Y-66782841D01*
X139825548Y-64580000D02*
X141414453Y-64580000D01*
X138920001Y-66782841D02*
X138920001Y-65377157D01*
X142369484Y-65160279D02*
G75*
G03*
X142319999Y-65377156I450505J-216876D01*
G01*
X141414453Y-64580000D02*
G75*
G03*
X141666711Y-64511701I-3J500009D01*
G01*
X142319999Y-66782841D02*
G75*
G03*
X142369484Y-66999719I499990J-2D01*
G01*
X138870516Y-66999719D02*
G75*
G03*
X138920001Y-66782842I-450866J216959D01*
G01*
X142369483Y-65160279D02*
G75*
G03*
X141666711Y-64511701I-450514J216878D01*
G01*
X138870520Y-66999721D02*
G75*
G03*
X139573289Y-67648296I450510J-216879D01*
G01*
X139573289Y-64511700D02*
G75*
G03*
X138870516Y-65160279I-252259J-431700D01*
G01*
X139573289Y-64511700D02*
G75*
G03*
X139825547Y-64579999I252261J431710D01*
G01*
X138920013Y-65377157D02*
G75*
G03*
X138870516Y-65160279I-500513J-143D01*
G01*
X141666711Y-67648298D02*
G75*
G03*
X142369484Y-66999718I252259J431700D01*
G01*
X141666711Y-67648298D02*
G75*
G03*
X141414452Y-67579999I-252261J-431710D01*
G01*
X139825548Y-67580000D02*
G75*
G03*
X139573290Y-67648298I2J-500010D01*
G01*
M02*
