M48
; DRILL file {KiCad (6.0.10)} date Tue Feb 21 21:25:02 2023
; FORMAT={-:-/ absolute / metric / decimal}
; #@! TF.CreationDate,2023-02-21T21:25:02+01:00
; #@! TF.GenerationSoftware,Kicad,Pcbnew,(6.0.10)
; #@! TF.FileFunction,NonPlated,1,2,NPTH
FMAT,2
METRIC
; #@! TA.AperFunction,NonPlated,NPTH,ComponentDrill
T1C1.500
; #@! TA.AperFunction,NonPlated,NPTH,ComponentDrill
T2C1.600
; #@! TA.AperFunction,NonPlated,NPTH,ComponentDrill
T3C1.750
; #@! TA.AperFunction,NonPlated,NPTH,ComponentDrill
T4C1.800
; #@! TA.AperFunction,NonPlated,NPTH,ComponentDrill
T5C2.200
; #@! TA.AperFunction,NonPlated,NPTH,ComponentDrill
T6C3.988
%
G90
G05
T1
X39.37Y-302.005
X39.37Y-306.855
X192.195Y-34.03
X197.045Y-34.03
T2
X120.34Y-316.18
X120.34Y-323.18
X205.75Y-115.0
X212.75Y-115.0
T3
X40.54Y-42.0
X40.54Y-61.0
X40.54Y-80.0
X40.54Y-99.0
X40.54Y-118.0
X47.26Y-207.35
X47.26Y-217.51
X47.26Y-226.35
X47.26Y-236.51
X47.26Y-245.35
X47.26Y-255.51
X47.26Y-150.35
X47.26Y-160.51
X47.26Y-169.35
X47.26Y-179.51
X47.26Y-188.35
X47.26Y-198.51
X50.7Y-42.0
X50.7Y-61.0
X50.7Y-80.0
X50.7Y-99.0
X50.7Y-118.0
X59.54Y-42.0
X59.54Y-61.0
X59.54Y-80.0
X59.54Y-99.0
X59.54Y-118.0
X66.26Y-150.35
X66.26Y-160.51
X66.26Y-169.43
X66.26Y-179.59
X66.26Y-188.35
X66.26Y-198.51
X66.26Y-207.35
X66.26Y-217.51
X66.26Y-226.35
X66.26Y-236.51
X66.26Y-245.35
X66.26Y-255.51
X69.7Y-42.0
X69.7Y-61.0
X69.7Y-80.0
X69.7Y-99.0
X69.7Y-118.0
X78.54Y-42.0
X78.54Y-61.0
X78.54Y-80.0
X78.54Y-99.0
X78.54Y-118.0
X85.26Y-150.35
X85.26Y-160.51
X85.26Y-169.35
X85.26Y-179.51
X85.26Y-188.35
X85.26Y-198.51
X85.26Y-207.35
X85.26Y-217.51
X85.26Y-226.35
X85.26Y-236.51
X85.26Y-245.35
X85.26Y-255.51
X88.7Y-42.0
X88.7Y-61.0
X88.7Y-80.0
X88.7Y-99.0
X88.7Y-118.0
X97.54Y-42.0
X97.54Y-61.0
X97.54Y-80.0
X97.54Y-99.0
X97.54Y-118.0
X104.26Y-150.35
X104.26Y-160.51
X104.26Y-169.35
X104.26Y-179.51
X104.26Y-188.35
X104.26Y-198.51
X104.26Y-207.27
X104.26Y-217.43
X104.26Y-226.35
X104.26Y-236.51
X104.26Y-245.35
X104.26Y-255.51
X107.7Y-42.0
X107.7Y-61.0
X107.7Y-80.0
X107.7Y-99.0
X107.7Y-118.0
X116.54Y-42.0
X116.54Y-61.0
X116.54Y-80.0
X116.54Y-99.0
X123.26Y-150.35
X123.26Y-160.51
X123.26Y-169.35
X123.26Y-179.51
X123.26Y-188.35
X123.26Y-198.51
X123.26Y-207.35
X123.26Y-217.51
X123.26Y-235.825
X123.26Y-245.985
X126.015Y-118.0
X126.7Y-42.0
X126.7Y-61.0
X126.7Y-80.0
X126.7Y-99.0
X135.54Y-42.0
X135.54Y-61.0
X135.54Y-80.0
X135.54Y-99.0
X136.175Y-118.0
X145.7Y-42.0
X145.7Y-61.0
X145.7Y-80.0
X145.7Y-99.0
T4
X36.34Y-301.705
X36.34Y-307.155
X191.895Y-31.0
X197.345Y-31.0
T5
X36.34Y-148.43
X37.34Y-323.43
X38.0Y-126.0
X39.0Y-32.0
X129.759Y-148.933
X134.34Y-195.43
X142.0Y-186.064
X144.0Y-128.27
X191.34Y-323.43
X191.34Y-198.43
X213.0Y-32.0
X213.0Y-186.0
T6
X45.62Y-42.0
X45.62Y-61.0
X45.62Y-80.0
X45.62Y-99.0
X45.62Y-118.0
X47.26Y-212.43
X47.26Y-231.43
X47.26Y-250.43
X47.26Y-155.43
X47.26Y-174.43
X47.26Y-193.43
X64.62Y-42.0
X64.62Y-61.0
X64.62Y-80.0
X64.62Y-99.0
X64.62Y-118.0
X66.26Y-155.43
X66.26Y-174.51
X66.26Y-193.43
X66.26Y-212.43
X66.26Y-231.43
X66.26Y-250.43
X83.62Y-42.0
X83.62Y-61.0
X83.62Y-80.0
X83.62Y-99.0
X83.62Y-118.0
X85.26Y-155.43
X85.26Y-174.43
X85.26Y-193.43
X85.26Y-212.43
X85.26Y-231.43
X85.26Y-250.43
X102.62Y-42.0
X102.62Y-61.0
X102.62Y-80.0
X102.62Y-99.0
X102.62Y-118.0
X104.26Y-155.43
X104.26Y-174.43
X104.26Y-193.43
X104.26Y-212.35
X104.26Y-231.43
X104.26Y-250.43
X121.62Y-42.0
X121.62Y-61.0
X121.62Y-80.0
X121.62Y-99.0
X123.26Y-155.43
X123.26Y-174.43
X123.26Y-193.43
X123.26Y-212.43
X123.26Y-240.905
X131.095Y-118.0
X140.62Y-42.0
X140.62Y-61.0
X140.62Y-80.0
X140.62Y-99.0
T0
M30
