G04 #@! TF.GenerationSoftware,KiCad,Pcbnew,(6.0.10)*
G04 #@! TF.CreationDate,2023-03-01T01:55:45+01:00*
G04 #@! TF.ProjectId,kicad,6b696361-642e-46b6-9963-61645f706362,rev?*
G04 #@! TF.SameCoordinates,Original*
G04 #@! TF.FileFunction,Soldermask,Top*
G04 #@! TF.FilePolarity,Negative*
%FSLAX46Y46*%
G04 Gerber Fmt 4.6, Leading zero omitted, Abs format (unit mm)*
G04 Created by KiCad (PCBNEW (6.0.10)) date 2023-03-01 01:55:45*
%MOMM*%
%LPD*%
G01*
G04 APERTURE LIST*
G04 Aperture macros list*
%AMRoundRect*
0 Rectangle with rounded corners*
0 $1 Rounding radius*
0 $2 $3 $4 $5 $6 $7 $8 $9 X,Y pos of 4 corners*
0 Add a 4 corners polygon primitive as box body*
4,1,4,$2,$3,$4,$5,$6,$7,$8,$9,$2,$3,0*
0 Add four circle primitives for the rounded corners*
1,1,$1+$1,$2,$3*
1,1,$1+$1,$4,$5*
1,1,$1+$1,$6,$7*
1,1,$1+$1,$8,$9*
0 Add four rect primitives between the rounded corners*
20,1,$1+$1,$2,$3,$4,$5,0*
20,1,$1+$1,$4,$5,$6,$7,0*
20,1,$1+$1,$6,$7,$8,$9,0*
20,1,$1+$1,$8,$9,$2,$3,0*%
G04 Aperture macros list end*
%ADD10C,1.600000*%
%ADD11R,2.500000X1.200000*%
%ADD12RoundRect,0.250000X-0.625000X0.400000X-0.625000X-0.400000X0.625000X-0.400000X0.625000X0.400000X0*%
%ADD13RoundRect,0.250000X-0.400000X-0.625000X0.400000X-0.625000X0.400000X0.625000X-0.400000X0.625000X0*%
%ADD14C,3.987800*%
%ADD15C,1.750000*%
%ADD16R,1.700000X1.700000*%
%ADD17O,1.700000X1.700000*%
%ADD18RoundRect,0.250000X0.412500X0.650000X-0.412500X0.650000X-0.412500X-0.650000X0.412500X-0.650000X0*%
%ADD19RoundRect,0.150000X-0.725000X-0.150000X0.725000X-0.150000X0.725000X0.150000X-0.725000X0.150000X0*%
%ADD20RoundRect,0.150000X0.587500X0.150000X-0.587500X0.150000X-0.587500X-0.150000X0.587500X-0.150000X0*%
%ADD21C,2.200000*%
%ADD22O,1.500000X1.500000*%
%ADD23O,1.800000X1.800000*%
%ADD24R,3.500000X1.700000*%
%ADD25R,1.700000X3.500000*%
%ADD26RoundRect,0.150000X0.150000X-0.725000X0.150000X0.725000X-0.150000X0.725000X-0.150000X-0.725000X0*%
%ADD27RoundRect,0.250000X-0.412500X-0.650000X0.412500X-0.650000X0.412500X0.650000X-0.412500X0.650000X0*%
%ADD28RoundRect,0.150000X-0.150000X0.725000X-0.150000X-0.725000X0.150000X-0.725000X0.150000X0.725000X0*%
%ADD29RoundRect,0.150000X-0.150000X0.587500X-0.150000X-0.587500X0.150000X-0.587500X0.150000X0.587500X0*%
%ADD30RoundRect,0.250000X-0.650000X0.412500X-0.650000X-0.412500X0.650000X-0.412500X0.650000X0.412500X0*%
%ADD31RoundRect,0.250000X0.650000X-0.412500X0.650000X0.412500X-0.650000X0.412500X-0.650000X-0.412500X0*%
%ADD32R,1.200000X2.500000*%
G04 APERTURE END LIST*
D10*
X120340000Y-323180001D03*
X120340000Y-316180001D03*
D11*
X117090000Y-318580001D03*
X117090000Y-321580001D03*
X123590000Y-313480001D03*
X117090000Y-314580001D03*
D12*
X117539999Y-263880000D03*
X117539999Y-266980000D03*
D13*
X154070000Y-65800000D03*
X157170000Y-65800000D03*
D14*
X45620000Y-42000000D03*
D15*
X50700000Y-42000000D03*
X40540000Y-42000000D03*
X85259999Y-217510000D03*
D14*
X85259999Y-212430000D03*
D15*
X85259999Y-207350000D03*
D16*
X205740000Y-93980000D03*
D17*
X203200000Y-93980000D03*
X205740000Y-96520000D03*
X203200000Y-96520000D03*
D12*
X61339999Y-263880000D03*
X61339999Y-266980000D03*
X48339999Y-263880000D03*
X48339999Y-266980000D03*
D13*
X154069999Y-97000000D03*
X157169999Y-97000000D03*
D18*
X176822500Y-74600000D03*
X173697500Y-74600000D03*
D12*
X99450000Y-263880000D03*
X99450000Y-266980000D03*
D15*
X104260000Y-245350001D03*
D14*
X104260000Y-250430001D03*
D15*
X104260000Y-255510001D03*
D19*
X190425000Y-94555000D03*
X190425000Y-95825000D03*
X190425000Y-97095000D03*
X190425000Y-98365000D03*
X190425000Y-99635000D03*
X190425000Y-100905000D03*
X190425000Y-102175000D03*
X190425000Y-103445000D03*
X195575000Y-103445000D03*
X195575000Y-102175000D03*
X195575000Y-100905000D03*
X195575000Y-99635000D03*
X195575000Y-98365000D03*
X195575000Y-97095000D03*
X195575000Y-95825000D03*
X195575000Y-94555000D03*
D12*
X129540000Y-263880000D03*
X129540000Y-266980000D03*
D20*
X171557500Y-71950000D03*
X171557500Y-70050000D03*
X169682500Y-71000000D03*
D13*
X154070000Y-59800000D03*
X157170000Y-59800000D03*
D12*
X111449999Y-263880000D03*
X111449999Y-266980000D03*
D21*
X134340000Y-195430001D03*
D15*
X116540000Y-61000000D03*
D14*
X121620000Y-61000000D03*
D15*
X126700000Y-61000000D03*
D16*
X152059999Y-318435001D03*
D17*
X152059999Y-315895001D03*
X152059999Y-313355001D03*
X152059999Y-310815001D03*
X152059999Y-308275001D03*
X152059999Y-305735001D03*
X152059999Y-303195001D03*
X152059999Y-300655001D03*
D22*
X197045000Y-34030000D03*
D23*
X191895000Y-31000000D03*
X197345000Y-31000000D03*
D22*
X192195000Y-34030000D03*
D24*
X184830000Y-30870000D03*
D17*
X185730000Y-30870000D03*
D24*
X184830000Y-33410000D03*
D17*
X185730000Y-33410000D03*
D16*
X185730000Y-35950000D03*
D24*
X184830000Y-35950000D03*
X184830000Y-38490000D03*
D17*
X185730000Y-38490000D03*
D24*
X184830000Y-41030000D03*
D17*
X185730000Y-41030000D03*
X185730000Y-43570000D03*
D24*
X184830000Y-43570000D03*
X184830000Y-46110000D03*
D17*
X185730000Y-46110000D03*
D24*
X184830000Y-48650000D03*
D16*
X185730000Y-48650000D03*
D24*
X184830000Y-51190000D03*
D17*
X185730000Y-51190000D03*
D24*
X184830000Y-53730000D03*
D17*
X185730000Y-53730000D03*
D24*
X184830000Y-56270000D03*
D17*
X185730000Y-56270000D03*
X185730000Y-58810000D03*
D24*
X184830000Y-58810000D03*
X184830000Y-61350000D03*
D16*
X185730000Y-61350000D03*
D17*
X185730000Y-63890000D03*
D24*
X184830000Y-63890000D03*
X184830000Y-66430000D03*
D17*
X185730000Y-66430000D03*
X185730000Y-68970000D03*
D24*
X184830000Y-68970000D03*
D17*
X185730000Y-71510000D03*
D24*
X184830000Y-71510000D03*
X184830000Y-74050000D03*
D16*
X185730000Y-74050000D03*
D17*
X185730000Y-76590000D03*
D24*
X184830000Y-76590000D03*
X184830000Y-79130000D03*
D17*
X185730000Y-79130000D03*
D24*
X204410000Y-79130000D03*
D17*
X203510000Y-79130000D03*
X203510000Y-76590000D03*
D24*
X204410000Y-76590000D03*
X204410000Y-74050000D03*
D16*
X203510000Y-74050000D03*
D24*
X204410000Y-71510000D03*
D17*
X203510000Y-71510000D03*
D24*
X204410000Y-68970000D03*
D17*
X203510000Y-68970000D03*
D24*
X204410000Y-66430000D03*
D17*
X203510000Y-66430000D03*
D24*
X204410000Y-63890000D03*
D17*
X203510000Y-63890000D03*
D24*
X204410000Y-61350000D03*
D16*
X203510000Y-61350000D03*
D24*
X204410000Y-58810000D03*
D17*
X203510000Y-58810000D03*
X203510000Y-56270000D03*
D24*
X204410000Y-56270000D03*
X204410000Y-53730000D03*
D17*
X203510000Y-53730000D03*
D24*
X204410000Y-51190000D03*
D17*
X203510000Y-51190000D03*
D24*
X204410000Y-48650000D03*
D16*
X203510000Y-48650000D03*
D24*
X204410000Y-46110000D03*
D17*
X203510000Y-46110000D03*
D24*
X204410000Y-43570000D03*
D17*
X203510000Y-43570000D03*
D24*
X204410000Y-41030000D03*
D17*
X203510000Y-41030000D03*
D24*
X204410000Y-38490000D03*
D17*
X203510000Y-38490000D03*
D16*
X203510000Y-35950000D03*
D24*
X204410000Y-35950000D03*
X204410000Y-33410000D03*
D17*
X203510000Y-33410000D03*
D24*
X204410000Y-30870000D03*
D17*
X203510000Y-30870000D03*
X192080000Y-78900000D03*
D25*
X192080000Y-79800000D03*
D16*
X194620000Y-78900000D03*
D25*
X194620000Y-79800000D03*
X197160000Y-79800000D03*
D17*
X197160000Y-78900000D03*
D14*
X47260000Y-174430001D03*
D15*
X47260000Y-169350001D03*
X47260000Y-179510001D03*
D14*
X64620000Y-80000000D03*
D15*
X59540000Y-80000000D03*
X69700000Y-80000000D03*
D26*
X115895000Y-306005000D03*
X117165000Y-306005000D03*
X118435000Y-306005000D03*
X119705000Y-306005000D03*
X120975000Y-306005000D03*
X122245000Y-306005000D03*
X123515000Y-306005000D03*
X124785000Y-306005000D03*
X124785000Y-300855000D03*
X123515000Y-300855000D03*
X122245000Y-300855000D03*
X120975000Y-300855000D03*
X119705000Y-300855000D03*
X118435000Y-300855000D03*
X117165000Y-300855000D03*
X115895000Y-300855000D03*
D12*
X126539999Y-263880000D03*
X126539999Y-266980000D03*
D15*
X47260000Y-198510001D03*
D14*
X47260000Y-193430001D03*
D15*
X47260000Y-188350001D03*
D19*
X164045000Y-94555000D03*
X164045000Y-95825000D03*
X164045000Y-97095000D03*
X164045000Y-98365000D03*
X164045000Y-99635000D03*
X164045000Y-100905000D03*
X164045000Y-102175000D03*
X164045000Y-103445000D03*
X169195000Y-103445000D03*
X169195000Y-102175000D03*
X169195000Y-100905000D03*
X169195000Y-99635000D03*
X169195000Y-98365000D03*
X169195000Y-97095000D03*
X169195000Y-95825000D03*
X169195000Y-94555000D03*
D15*
X50700000Y-118000000D03*
X40540000Y-118000000D03*
D14*
X45620000Y-118000000D03*
D15*
X97540000Y-80000000D03*
X107700000Y-80000000D03*
D14*
X102620000Y-80000000D03*
D13*
X154070000Y-75800000D03*
X157170000Y-75800000D03*
D14*
X83620000Y-61000000D03*
D15*
X88700000Y-61000000D03*
X78540000Y-61000000D03*
X47259999Y-207350000D03*
D14*
X47259999Y-212430000D03*
D15*
X47259999Y-217510000D03*
D12*
X120540000Y-263880000D03*
X120540000Y-266980000D03*
X77139999Y-263880000D03*
X77139999Y-266980000D03*
D14*
X64620000Y-99000000D03*
D15*
X59540000Y-99000000D03*
X69700000Y-99000000D03*
D12*
X70339999Y-263880000D03*
X70339999Y-266980000D03*
D14*
X66259999Y-155430001D03*
D15*
X66259999Y-160510001D03*
X66259999Y-150350001D03*
D27*
X166077500Y-90170000D03*
X169202500Y-90170000D03*
D21*
X38000000Y-126000000D03*
D13*
X154070000Y-84800000D03*
X157170000Y-84800000D03*
X154070000Y-117490000D03*
X157170000Y-117490000D03*
D15*
X47260000Y-150350000D03*
D14*
X47260000Y-155430000D03*
D15*
X47260000Y-160510000D03*
X66259999Y-179590001D03*
D14*
X66259999Y-174510001D03*
D15*
X66259999Y-169430001D03*
D16*
X192405000Y-133410000D03*
D17*
X189865000Y-133410000D03*
X187325000Y-133410000D03*
X184785000Y-133410000D03*
X182245000Y-133410000D03*
X179705000Y-133410000D03*
X177165000Y-133410000D03*
X174625000Y-133410000D03*
X172085000Y-133410000D03*
X169545000Y-133410000D03*
X167005000Y-133410000D03*
X164465000Y-133410000D03*
X161925000Y-133410000D03*
D19*
X164045000Y-75555000D03*
X164045000Y-76825000D03*
X164045000Y-78095000D03*
X164045000Y-79365000D03*
X164045000Y-80635000D03*
X164045000Y-81905000D03*
X164045000Y-83175000D03*
X164045000Y-84445000D03*
X169195000Y-84445000D03*
X169195000Y-83175000D03*
X169195000Y-81905000D03*
X169195000Y-80635000D03*
X169195000Y-79365000D03*
X169195000Y-78095000D03*
X169195000Y-76825000D03*
X169195000Y-75555000D03*
D15*
X97540000Y-42000000D03*
D14*
X102620000Y-42000000D03*
D15*
X107700000Y-42000000D03*
D12*
X102449999Y-263880000D03*
X102449999Y-266980000D03*
D16*
X212090000Y-46027500D03*
D17*
X212090000Y-48567500D03*
X212090000Y-51107500D03*
X212090000Y-53647500D03*
X212090000Y-56187500D03*
X212090000Y-58727500D03*
X212090000Y-61267500D03*
X212090000Y-63807500D03*
X212090000Y-66347500D03*
X212090000Y-68887500D03*
X212090000Y-71427500D03*
X212090000Y-73967500D03*
X212090000Y-76507500D03*
X212090000Y-79047500D03*
X212090000Y-81587500D03*
X212090000Y-84127500D03*
D15*
X85259999Y-226350001D03*
D14*
X85259999Y-231430001D03*
D15*
X85259999Y-236510001D03*
D21*
X213000000Y-186000000D03*
D15*
X50700000Y-61000000D03*
D14*
X45620000Y-61000000D03*
D15*
X40540000Y-61000000D03*
D28*
X87785000Y-273855000D03*
X86515000Y-273855000D03*
X85245000Y-273855000D03*
X83975000Y-273855000D03*
X82705000Y-273855000D03*
X81435000Y-273855000D03*
X80165000Y-273855000D03*
X78895000Y-273855000D03*
X78895000Y-279005000D03*
X80165000Y-279005000D03*
X81435000Y-279005000D03*
X82705000Y-279005000D03*
X83975000Y-279005000D03*
X85245000Y-279005000D03*
X86515000Y-279005000D03*
X87785000Y-279005000D03*
D14*
X104259999Y-155430000D03*
D15*
X104259999Y-150350000D03*
X104259999Y-160510000D03*
D16*
X51367499Y-322560001D03*
D17*
X53907499Y-322560001D03*
X56447499Y-322560001D03*
X58987499Y-322560001D03*
X61527499Y-322560001D03*
X64067499Y-322560001D03*
X66607499Y-322560001D03*
X69147499Y-322560001D03*
X71687499Y-322560001D03*
X74227499Y-322560001D03*
X76767499Y-322560001D03*
X79307499Y-322560001D03*
X81847499Y-322560001D03*
X84387499Y-322560001D03*
X86927499Y-322560001D03*
X89467499Y-322560001D03*
D29*
X92290000Y-273492500D03*
X90390000Y-273492500D03*
X91340000Y-275367500D03*
D21*
X144000000Y-128270000D03*
D13*
X154070000Y-94000000D03*
X157170000Y-94000000D03*
D12*
X58539999Y-263880000D03*
X58539999Y-266980000D03*
D28*
X69785000Y-273855000D03*
X68515000Y-273855000D03*
X67245000Y-273855000D03*
X65975000Y-273855000D03*
X64705000Y-273855000D03*
X63435000Y-273855000D03*
X62165000Y-273855000D03*
X60895000Y-273855000D03*
X60895000Y-279005000D03*
X62165000Y-279005000D03*
X63435000Y-279005000D03*
X64705000Y-279005000D03*
X65975000Y-279005000D03*
X67245000Y-279005000D03*
X68515000Y-279005000D03*
X69785000Y-279005000D03*
D13*
X154070000Y-49200000D03*
X157170000Y-49200000D03*
D14*
X83620000Y-99000000D03*
D15*
X78540000Y-99000000D03*
X88700000Y-99000000D03*
D30*
X129799999Y-275765001D03*
X129799999Y-278890001D03*
D19*
X190425000Y-110555000D03*
X190425000Y-111825000D03*
X190425000Y-113095000D03*
X190425000Y-114365000D03*
X190425000Y-115635000D03*
X190425000Y-116905000D03*
X190425000Y-118175000D03*
X190425000Y-119445000D03*
X195575000Y-119445000D03*
X195575000Y-118175000D03*
X195575000Y-116905000D03*
X195575000Y-115635000D03*
X195575000Y-114365000D03*
X195575000Y-113095000D03*
X195575000Y-111825000D03*
X195575000Y-110555000D03*
D13*
X154070000Y-78800000D03*
X157170000Y-78800000D03*
D27*
X191477500Y-107480000D03*
X194602500Y-107480000D03*
X164807500Y-111760000D03*
X167932500Y-111760000D03*
D15*
X66259999Y-198510000D03*
X66259999Y-188350000D03*
D14*
X66259999Y-193430000D03*
D12*
X89140000Y-263880000D03*
X89140000Y-266980000D03*
D13*
X154070000Y-123490000D03*
X157170000Y-123490000D03*
D30*
X72650000Y-275570000D03*
X72650000Y-278695000D03*
D16*
X96794999Y-321270001D03*
D17*
X96794999Y-323810001D03*
X99334999Y-321270001D03*
X99334999Y-323810001D03*
X101874999Y-321270001D03*
X101874999Y-323810001D03*
D15*
X123259999Y-179510001D03*
X123259999Y-169350001D03*
D14*
X123259999Y-174430001D03*
D15*
X116540000Y-99000000D03*
X126700000Y-99000000D03*
D14*
X121620000Y-99000000D03*
D15*
X135540000Y-42000000D03*
X145700000Y-42000000D03*
D14*
X140620000Y-42000000D03*
D12*
X73044999Y-263880000D03*
X73044999Y-266980000D03*
X105449999Y-263880000D03*
X105449999Y-266980000D03*
D13*
X154070000Y-62800000D03*
X157170000Y-62800000D03*
D12*
X95339999Y-271880001D03*
X95339999Y-274980001D03*
D14*
X64620000Y-42000000D03*
D15*
X59540000Y-42000000D03*
X69700000Y-42000000D03*
D14*
X104259999Y-193430001D03*
D15*
X104259999Y-198510001D03*
X104259999Y-188350001D03*
D12*
X92139999Y-263880000D03*
X92139999Y-266980000D03*
D13*
X154070000Y-34200000D03*
X157170000Y-34200000D03*
X154069999Y-87800000D03*
X157169999Y-87800000D03*
D14*
X140620000Y-80000000D03*
D15*
X145700000Y-80000000D03*
X135540000Y-80000000D03*
D16*
X213380000Y-36830000D03*
D17*
X210840000Y-36830000D03*
X213380000Y-39370000D03*
X210840000Y-39370000D03*
X213380000Y-41910000D03*
X210840000Y-41910000D03*
D30*
X110750000Y-275988752D03*
X110750000Y-279113752D03*
D31*
X113289999Y-305180001D03*
X113289999Y-302055001D03*
D13*
X154070000Y-100000000D03*
X157170000Y-100000000D03*
D27*
X166077500Y-33490000D03*
X169202500Y-33490000D03*
D14*
X85259999Y-155430001D03*
D15*
X85259999Y-160510001D03*
X85259999Y-150350001D03*
D14*
X45620000Y-99000000D03*
D15*
X40540000Y-99000000D03*
X50700000Y-99000000D03*
D30*
X53599999Y-275277501D03*
X53599999Y-278402501D03*
D21*
X36339999Y-148430000D03*
D12*
X42339999Y-263880000D03*
X42339999Y-266980000D03*
D15*
X66259999Y-245350001D03*
D14*
X66259999Y-250430001D03*
D15*
X66259999Y-255510001D03*
D16*
X181869999Y-287000001D03*
D17*
X179329999Y-287000001D03*
X176789999Y-287000001D03*
X174249999Y-287000001D03*
X171709999Y-287000001D03*
X169169999Y-287000001D03*
X166629999Y-287000001D03*
X164089999Y-287000001D03*
X161549999Y-287000001D03*
X159009999Y-287000001D03*
X156469999Y-287000001D03*
X153929999Y-287000001D03*
X151389999Y-287000001D03*
X148849999Y-287000001D03*
D13*
X154070000Y-72800000D03*
X157170000Y-72800000D03*
X154070000Y-120490000D03*
X157170000Y-120490000D03*
X154070000Y-81800000D03*
X157170000Y-81800000D03*
D15*
X88700000Y-42000000D03*
X78540000Y-42000000D03*
D14*
X83620000Y-42000000D03*
D16*
X185420000Y-100330000D03*
D17*
X185420000Y-102870000D03*
X185420000Y-105410000D03*
X185420000Y-107950000D03*
X185420000Y-110490000D03*
X185420000Y-113030000D03*
X185420000Y-115570000D03*
X185420000Y-118110000D03*
X185420000Y-120650000D03*
X185420000Y-123190000D03*
D21*
X191339999Y-323430001D03*
D13*
X154070000Y-111490000D03*
X157170000Y-111490000D03*
D12*
X123539999Y-263880000D03*
X123539999Y-266980000D03*
D14*
X123259999Y-240905000D03*
D15*
X123259999Y-235825000D03*
X123259999Y-245985000D03*
D14*
X45620000Y-80000000D03*
D15*
X50700000Y-80000000D03*
X40540000Y-80000000D03*
D19*
X164045000Y-37555000D03*
X164045000Y-38825000D03*
X164045000Y-40095000D03*
X164045000Y-41365000D03*
X164045000Y-42635000D03*
X164045000Y-43905000D03*
X164045000Y-45175000D03*
X164045000Y-46445000D03*
X169195000Y-46445000D03*
X169195000Y-45175000D03*
X169195000Y-43905000D03*
X169195000Y-42635000D03*
X169195000Y-41365000D03*
X169195000Y-40095000D03*
X169195000Y-38825000D03*
X169195000Y-37555000D03*
D14*
X83620000Y-80000000D03*
D15*
X78540000Y-80000000D03*
X88700000Y-80000000D03*
D27*
X192747500Y-90170000D03*
X195872500Y-90170000D03*
D14*
X104259999Y-174430001D03*
D15*
X104259999Y-169350001D03*
X104259999Y-179510001D03*
X66259999Y-236510001D03*
X66259999Y-226350001D03*
D14*
X66259999Y-231430001D03*
D12*
X83139999Y-263880000D03*
X83139999Y-266980000D03*
D14*
X85259999Y-250430001D03*
D15*
X85259999Y-245350001D03*
X85259999Y-255510001D03*
D19*
X164045000Y-57235000D03*
X164045000Y-58505000D03*
X164045000Y-59775000D03*
X164045000Y-61045000D03*
X164045000Y-62315000D03*
X164045000Y-63585000D03*
X164045000Y-64855000D03*
X164045000Y-66125000D03*
X169195000Y-66125000D03*
X169195000Y-64855000D03*
X169195000Y-63585000D03*
X169195000Y-62315000D03*
X169195000Y-61045000D03*
X169195000Y-59775000D03*
X169195000Y-58505000D03*
X169195000Y-57235000D03*
D12*
X86139999Y-263880000D03*
X86139999Y-266980000D03*
D14*
X121620000Y-42000000D03*
D15*
X126700000Y-42000000D03*
X116540000Y-42000000D03*
D14*
X123259999Y-212430001D03*
D15*
X123259999Y-217510001D03*
X123259999Y-207350001D03*
D16*
X42169999Y-321290001D03*
D17*
X42169999Y-323830001D03*
X44709999Y-321290001D03*
X44709999Y-323830001D03*
X47249999Y-321290001D03*
X47249999Y-323830001D03*
D12*
X45340000Y-263880000D03*
X45340000Y-266980000D03*
D13*
X162070000Y-70000000D03*
X165170000Y-70000000D03*
D14*
X131095000Y-118000000D03*
D15*
X126015000Y-118000000D03*
X136175000Y-118000000D03*
D31*
X90429999Y-283145001D03*
X90429999Y-280020001D03*
D14*
X121620000Y-80000000D03*
D15*
X126700000Y-80000000D03*
X116540000Y-80000000D03*
D12*
X108450000Y-263880000D03*
X108450000Y-266980000D03*
D15*
X104259999Y-207270000D03*
D14*
X104259999Y-212350000D03*
D15*
X104259999Y-217430000D03*
D12*
X54340000Y-263880000D03*
X54340000Y-266980000D03*
D15*
X66259999Y-207350000D03*
D14*
X66259999Y-212430000D03*
D15*
X66259999Y-217510000D03*
D21*
X142000000Y-186064466D03*
D15*
X59540000Y-61000000D03*
D14*
X64620000Y-61000000D03*
D15*
X69700000Y-61000000D03*
D21*
X37339999Y-323430001D03*
D12*
X64339999Y-263880001D03*
X64339999Y-266980001D03*
D15*
X78540000Y-118000000D03*
D14*
X83620000Y-118000000D03*
D15*
X88700000Y-118000000D03*
D12*
X80140000Y-263880000D03*
X80140000Y-266980000D03*
D13*
X154070000Y-91000001D03*
X157170000Y-91000001D03*
X154070000Y-46200000D03*
X157170000Y-46200000D03*
D14*
X64620000Y-118000000D03*
D15*
X59540000Y-118000000D03*
X69700000Y-118000000D03*
D13*
X154070000Y-114490000D03*
X157170000Y-114490000D03*
D21*
X129758939Y-148932711D03*
D15*
X47259999Y-226350001D03*
D14*
X47259999Y-231430001D03*
D15*
X47259999Y-236510001D03*
D13*
X154070000Y-56800000D03*
X157170000Y-56800000D03*
D26*
X99895000Y-306005001D03*
X101165000Y-306005001D03*
X102435000Y-306005001D03*
X103705000Y-306005001D03*
X104975000Y-306005001D03*
X106245000Y-306005001D03*
X107515000Y-306005001D03*
X108785000Y-306005001D03*
X108785000Y-300855001D03*
X107515000Y-300855001D03*
X106245000Y-300855001D03*
X104975000Y-300855001D03*
X103705000Y-300855001D03*
X102435000Y-300855001D03*
X101165000Y-300855001D03*
X99895000Y-300855001D03*
D10*
X205750000Y-115000000D03*
X212750000Y-115000000D03*
D32*
X208150000Y-118250000D03*
X211150000Y-118250000D03*
X203050000Y-111750000D03*
X204150000Y-118250000D03*
D12*
X67340000Y-263880000D03*
X67340000Y-266980000D03*
D13*
X154070000Y-40200000D03*
X157170000Y-40200000D03*
D15*
X135540000Y-61000000D03*
X145700000Y-61000000D03*
D14*
X140620000Y-61000000D03*
D31*
X97249999Y-305072501D03*
X97249999Y-301947501D03*
D21*
X213000000Y-32000000D03*
D16*
X99045000Y-312400000D03*
D17*
X99045000Y-314940000D03*
X101585000Y-312400000D03*
X101585000Y-314940000D03*
D15*
X107700000Y-118000000D03*
D14*
X102620000Y-118000000D03*
D15*
X97540000Y-118000000D03*
D13*
X154070000Y-37200000D03*
X157170000Y-37200000D03*
D21*
X39000000Y-32000000D03*
D13*
X154070000Y-103000000D03*
X157170000Y-103000000D03*
D15*
X85259999Y-179510001D03*
D14*
X85259999Y-174430001D03*
D15*
X85259999Y-169350001D03*
D28*
X107784999Y-273855001D03*
X106514999Y-273855001D03*
X105244999Y-273855001D03*
X103974999Y-273855001D03*
X102704999Y-273855001D03*
X101434999Y-273855001D03*
X100164999Y-273855001D03*
X98894999Y-273855001D03*
X98894999Y-279005001D03*
X100164999Y-279005001D03*
X101434999Y-279005001D03*
X102704999Y-279005001D03*
X103974999Y-279005001D03*
X105244999Y-279005001D03*
X106514999Y-279005001D03*
X107784999Y-279005001D03*
D15*
X97540000Y-61000000D03*
X107700000Y-61000000D03*
D14*
X102620000Y-61000000D03*
X104260000Y-231430001D03*
D15*
X104260000Y-236510001D03*
X104260000Y-226350001D03*
X85259999Y-198510000D03*
X85259999Y-188350000D03*
D14*
X85259999Y-193430000D03*
D27*
X166077500Y-53340000D03*
X169202500Y-53340000D03*
D12*
X51340000Y-263880001D03*
X51340000Y-266980001D03*
D15*
X145700000Y-99000000D03*
D14*
X140620000Y-99000000D03*
D15*
X135540000Y-99000000D03*
D19*
X164045000Y-114555000D03*
X164045000Y-115825000D03*
X164045000Y-117095000D03*
X164045000Y-118365000D03*
X164045000Y-119635000D03*
X164045000Y-120905000D03*
X164045000Y-122175000D03*
X164045000Y-123445000D03*
X169195000Y-123445000D03*
X169195000Y-122175000D03*
X169195000Y-120905000D03*
X169195000Y-119635000D03*
X169195000Y-118365000D03*
X169195000Y-117095000D03*
X169195000Y-115825000D03*
X169195000Y-114555000D03*
D16*
X213420000Y-91455000D03*
D17*
X210880000Y-91455000D03*
X213420000Y-93995000D03*
X210880000Y-93995000D03*
X213420000Y-96535000D03*
X210880000Y-96535000D03*
D13*
X154069999Y-106000000D03*
X157169999Y-106000000D03*
D15*
X123259999Y-150350000D03*
D14*
X123259999Y-155430000D03*
D15*
X123259999Y-160510000D03*
X47259999Y-255510001D03*
D14*
X47259999Y-250430001D03*
D15*
X47259999Y-245350001D03*
D13*
X154070000Y-43200000D03*
X157170000Y-43200000D03*
D12*
X39339999Y-263880000D03*
X39339999Y-266980000D03*
D28*
X50784999Y-273855000D03*
X49514999Y-273855000D03*
X48244999Y-273855000D03*
X46974999Y-273855000D03*
X45704999Y-273855000D03*
X44434999Y-273855000D03*
X43164999Y-273855000D03*
X41894999Y-273855000D03*
X41894999Y-279005000D03*
X43164999Y-279005000D03*
X44434999Y-279005000D03*
X45704999Y-279005000D03*
X46974999Y-279005000D03*
X48244999Y-279005000D03*
X49514999Y-279005000D03*
X50784999Y-279005000D03*
X126785000Y-273855001D03*
X125515000Y-273855001D03*
X124245000Y-273855001D03*
X122975000Y-273855001D03*
X121705000Y-273855001D03*
X120435000Y-273855001D03*
X119165000Y-273855001D03*
X117895000Y-273855001D03*
X117895000Y-279005001D03*
X119165000Y-279005001D03*
X120435000Y-279005001D03*
X121705000Y-279005001D03*
X122975000Y-279005001D03*
X124245000Y-279005001D03*
X125515000Y-279005001D03*
X126785000Y-279005001D03*
D15*
X97540000Y-99000000D03*
D14*
X102620000Y-99000000D03*
D15*
X107700000Y-99000000D03*
D13*
X154070000Y-53800000D03*
X157170000Y-53800000D03*
D21*
X191340000Y-198430001D03*
D13*
X154070000Y-68800000D03*
X157170000Y-68800000D03*
D12*
X96339999Y-263880001D03*
X96339999Y-266980001D03*
D15*
X123259999Y-198510001D03*
D14*
X123259999Y-193430001D03*
D15*
X123259999Y-188350001D03*
D23*
X36339999Y-307155001D03*
X36339999Y-301705001D03*
D22*
X39369999Y-306855001D03*
X39369999Y-302005001D03*
D17*
X36209999Y-295540001D03*
X38749999Y-295540001D03*
D16*
X41289999Y-295540001D03*
D17*
X43829999Y-295540001D03*
X46369999Y-295540001D03*
X48909999Y-295540001D03*
X51449999Y-295540001D03*
D16*
X53989999Y-295540001D03*
D17*
X56529999Y-295540001D03*
X59069999Y-295540001D03*
X61609999Y-295540001D03*
X64149999Y-295540001D03*
D16*
X66689999Y-295540001D03*
D17*
X69229999Y-295540001D03*
X71769999Y-295540001D03*
X74309999Y-295540001D03*
X76849999Y-295540001D03*
D16*
X79389999Y-295540001D03*
D17*
X81929999Y-295540001D03*
X84469999Y-295540001D03*
X84469999Y-313320001D03*
X81929999Y-313320001D03*
D16*
X79389999Y-313320001D03*
D17*
X76849999Y-313320001D03*
X74309999Y-313320001D03*
X71769999Y-313320001D03*
X69229999Y-313320001D03*
D16*
X66689999Y-313320001D03*
D17*
X64149999Y-313320001D03*
X61609999Y-313320001D03*
X59069999Y-313320001D03*
X56529999Y-313320001D03*
D16*
X53989999Y-313320001D03*
D17*
X51449999Y-313320001D03*
X48909999Y-313320001D03*
X46369999Y-313320001D03*
X43829999Y-313320001D03*
D16*
X41289999Y-313320001D03*
D17*
X38749999Y-313320001D03*
X36209999Y-313320001D03*
X84239999Y-301890001D03*
D16*
X84239999Y-304430001D03*
D17*
X84239999Y-306970001D03*
M02*
