G04 #@! TF.GenerationSoftware,KiCad,Pcbnew,(6.0.10)*
G04 #@! TF.CreationDate,2023-02-21T21:24:37+01:00*
G04 #@! TF.ProjectId,kicad,6b696361-642e-46b6-9963-61645f706362,rev?*
G04 #@! TF.SameCoordinates,Original*
G04 #@! TF.FileFunction,Soldermask,Bot*
G04 #@! TF.FilePolarity,Negative*
%FSLAX46Y46*%
G04 Gerber Fmt 4.6, Leading zero omitted, Abs format (unit mm)*
G04 Created by KiCad (PCBNEW (6.0.10)) date 2023-02-21 21:24:37*
%MOMM*%
%LPD*%
G01*
G04 APERTURE LIST*
G04 Aperture macros list*
%AMRoundRect*
0 Rectangle with rounded corners*
0 $1 Rounding radius*
0 $2 $3 $4 $5 $6 $7 $8 $9 X,Y pos of 4 corners*
0 Add a 4 corners polygon primitive as box body*
4,1,4,$2,$3,$4,$5,$6,$7,$8,$9,$2,$3,0*
0 Add four circle primitives for the rounded corners*
1,1,$1+$1,$2,$3*
1,1,$1+$1,$4,$5*
1,1,$1+$1,$6,$7*
1,1,$1+$1,$8,$9*
0 Add four rect primitives between the rounded corners*
20,1,$1+$1,$2,$3,$4,$5,0*
20,1,$1+$1,$4,$5,$6,$7,0*
20,1,$1+$1,$6,$7,$8,$9,0*
20,1,$1+$1,$8,$9,$2,$3,0*%
%AMFreePoly0*
4,1,18,-0.410000,0.593000,-0.403758,0.624380,-0.385983,0.650983,-0.359380,0.668758,-0.328000,0.675000,0.328000,0.675000,0.359380,0.668758,0.385983,0.650983,0.403758,0.624380,0.410000,0.593000,0.410000,-0.593000,0.403758,-0.624380,0.385983,-0.650983,0.359380,-0.668758,0.328000,-0.675000,0.000000,-0.675000,-0.410000,-0.265000,-0.410000,0.593000,-0.410000,0.593000,$1*%
G04 Aperture macros list end*
%ADD10C,1.600000*%
%ADD11C,3.987800*%
%ADD12C,1.750000*%
%ADD13C,2.300000*%
%ADD14R,1.700000X1.700000*%
%ADD15O,1.700000X1.700000*%
%ADD16C,2.200000*%
%ADD17O,1.500000X1.500000*%
%ADD18O,1.800000X1.800000*%
%ADD19RoundRect,0.082000X0.593000X-0.328000X0.593000X0.328000X-0.593000X0.328000X-0.593000X-0.328000X0*%
%ADD20FreePoly0,90.000000*%
%ADD21RoundRect,0.082000X0.328000X0.593000X-0.328000X0.593000X-0.328000X-0.593000X0.328000X-0.593000X0*%
%ADD22FreePoly0,180.000000*%
%ADD23RoundRect,0.250000X0.412500X0.650000X-0.412500X0.650000X-0.412500X-0.650000X0.412500X-0.650000X0*%
%ADD24RoundRect,0.250000X0.650000X-0.412500X0.650000X0.412500X-0.650000X0.412500X-0.650000X-0.412500X0*%
%ADD25R,1.700000X3.500000*%
%ADD26R,3.500000X1.700000*%
G04 APERTURE END LIST*
D10*
X120340000Y-323180001D03*
X120340000Y-316180001D03*
D11*
X45620000Y-42000000D03*
D12*
X50700000Y-42000000D03*
X40540000Y-42000000D03*
D13*
X41810000Y-39460000D03*
X48160000Y-36920000D03*
D12*
X85259999Y-217510000D03*
D11*
X85259999Y-212430000D03*
D12*
X85259999Y-207350000D03*
D13*
X82719999Y-216240000D03*
X80179999Y-209890000D03*
D14*
X205740000Y-93980000D03*
D15*
X203200000Y-93980000D03*
X205740000Y-96520000D03*
X203200000Y-96520000D03*
D12*
X104260000Y-245350001D03*
D11*
X104260000Y-250430001D03*
D12*
X104260000Y-255510001D03*
D13*
X101720000Y-254240001D03*
X99180000Y-247890001D03*
D16*
X134340000Y-195430001D03*
D12*
X116540000Y-61000000D03*
D11*
X121620000Y-61000000D03*
D12*
X126700000Y-61000000D03*
D13*
X117810000Y-58460000D03*
X124160000Y-55920000D03*
D14*
X152059999Y-318435001D03*
D15*
X152059999Y-315895001D03*
X152059999Y-313355001D03*
X152059999Y-310815001D03*
X152059999Y-308275001D03*
X152059999Y-305735001D03*
X152059999Y-303195001D03*
X152059999Y-300655001D03*
D17*
X197045000Y-34030000D03*
D18*
X191895000Y-31000000D03*
X197345000Y-31000000D03*
D17*
X192195000Y-34030000D03*
D15*
X185730000Y-30870000D03*
X185730000Y-33410000D03*
D14*
X185730000Y-35950000D03*
D15*
X185730000Y-38490000D03*
X185730000Y-41030000D03*
X185730000Y-43570000D03*
X185730000Y-46110000D03*
D14*
X185730000Y-48650000D03*
D15*
X185730000Y-51190000D03*
X185730000Y-53730000D03*
X185730000Y-56270000D03*
X185730000Y-58810000D03*
D14*
X185730000Y-61350000D03*
D15*
X185730000Y-63890000D03*
X185730000Y-66430000D03*
X185730000Y-68970000D03*
X185730000Y-71510000D03*
D14*
X185730000Y-74050000D03*
D15*
X185730000Y-76590000D03*
X185730000Y-79130000D03*
X203510000Y-79130000D03*
X203510000Y-76590000D03*
D14*
X203510000Y-74050000D03*
D15*
X203510000Y-71510000D03*
X203510000Y-68970000D03*
X203510000Y-66430000D03*
X203510000Y-63890000D03*
D14*
X203510000Y-61350000D03*
D15*
X203510000Y-58810000D03*
X203510000Y-56270000D03*
X203510000Y-53730000D03*
X203510000Y-51190000D03*
D14*
X203510000Y-48650000D03*
D15*
X203510000Y-46110000D03*
X203510000Y-43570000D03*
X203510000Y-41030000D03*
X203510000Y-38490000D03*
D14*
X203510000Y-35950000D03*
D15*
X203510000Y-33410000D03*
X203510000Y-30870000D03*
X192080000Y-78900000D03*
D14*
X194620000Y-78900000D03*
D15*
X197160000Y-78900000D03*
D11*
X47260000Y-174430001D03*
D12*
X47260000Y-169350001D03*
X47260000Y-179510001D03*
D13*
X44720000Y-178240001D03*
X42180000Y-171890001D03*
D11*
X64620000Y-80000000D03*
D12*
X59540000Y-80000000D03*
X69700000Y-80000000D03*
D13*
X60810000Y-77460000D03*
X67160000Y-74920000D03*
D12*
X47260000Y-198510001D03*
D11*
X47260000Y-193430001D03*
D12*
X47260000Y-188350001D03*
D13*
X44720000Y-197240001D03*
X42180000Y-190890001D03*
D12*
X50700000Y-118000000D03*
X40540000Y-118000000D03*
D11*
X45620000Y-118000000D03*
D13*
X41810000Y-115460000D03*
X48160000Y-112920000D03*
D12*
X97540000Y-80000000D03*
X107700000Y-80000000D03*
D11*
X102620000Y-80000000D03*
D13*
X98810000Y-77460000D03*
X105160000Y-74920000D03*
D11*
X83620000Y-61000000D03*
D12*
X88700000Y-61000000D03*
X78540000Y-61000000D03*
D13*
X79810000Y-58460000D03*
X86160000Y-55920000D03*
D12*
X47259999Y-207350000D03*
D11*
X47259999Y-212430000D03*
D12*
X47259999Y-217510000D03*
D13*
X44719999Y-216240000D03*
X42179999Y-209890000D03*
D11*
X64620000Y-99000000D03*
D12*
X59540000Y-99000000D03*
X69700000Y-99000000D03*
D13*
X60810000Y-96460000D03*
X67160000Y-93920000D03*
D11*
X66259999Y-155430001D03*
D12*
X66259999Y-160510001D03*
X66259999Y-150350001D03*
D13*
X63719999Y-159240001D03*
X61179999Y-152890001D03*
D16*
X38000000Y-126000000D03*
D12*
X47260000Y-150350000D03*
D11*
X47260000Y-155430000D03*
D12*
X47260000Y-160510000D03*
D13*
X44720000Y-159240000D03*
X42180000Y-152890000D03*
D12*
X66259999Y-179590001D03*
D11*
X66259999Y-174510001D03*
D12*
X66259999Y-169430001D03*
D13*
X63719999Y-178320001D03*
X61179999Y-171970001D03*
D14*
X192405000Y-133410000D03*
D15*
X189865000Y-133410000D03*
X187325000Y-133410000D03*
X184785000Y-133410000D03*
X182245000Y-133410000D03*
X179705000Y-133410000D03*
X177165000Y-133410000D03*
X174625000Y-133410000D03*
X172085000Y-133410000D03*
X169545000Y-133410000D03*
X167005000Y-133410000D03*
X164465000Y-133410000D03*
X161925000Y-133410000D03*
D12*
X97540000Y-42000000D03*
D11*
X102620000Y-42000000D03*
D12*
X107700000Y-42000000D03*
D13*
X98810000Y-39460000D03*
X105160000Y-36920000D03*
D14*
X212090000Y-46027500D03*
D15*
X212090000Y-48567500D03*
X212090000Y-51107500D03*
X212090000Y-53647500D03*
X212090000Y-56187500D03*
X212090000Y-58727500D03*
X212090000Y-61267500D03*
X212090000Y-63807500D03*
X212090000Y-66347500D03*
X212090000Y-68887500D03*
X212090000Y-71427500D03*
X212090000Y-73967500D03*
X212090000Y-76507500D03*
X212090000Y-79047500D03*
X212090000Y-81587500D03*
X212090000Y-84127500D03*
D12*
X85259999Y-226350001D03*
D11*
X85259999Y-231430001D03*
D12*
X85259999Y-236510001D03*
D13*
X82719999Y-235240001D03*
X80179999Y-228890001D03*
D16*
X213000000Y-186000000D03*
D12*
X50700000Y-61000000D03*
D11*
X45620000Y-61000000D03*
D12*
X40540000Y-61000000D03*
D13*
X41810000Y-58460000D03*
X48160000Y-55920000D03*
D11*
X104259999Y-155430000D03*
D12*
X104259999Y-150350000D03*
X104259999Y-160510000D03*
D13*
X101719999Y-159240000D03*
X99179999Y-152890000D03*
D14*
X51367499Y-322560001D03*
D15*
X53907499Y-322560001D03*
X56447499Y-322560001D03*
X58987499Y-322560001D03*
X61527499Y-322560001D03*
X64067499Y-322560001D03*
X66607499Y-322560001D03*
X69147499Y-322560001D03*
X71687499Y-322560001D03*
X74227499Y-322560001D03*
X76767499Y-322560001D03*
X79307499Y-322560001D03*
X81847499Y-322560001D03*
X84387499Y-322560001D03*
X86927499Y-322560001D03*
X89467499Y-322560001D03*
D16*
X144000000Y-128270000D03*
D11*
X83620000Y-99000000D03*
D12*
X78540000Y-99000000D03*
X88700000Y-99000000D03*
D13*
X79810000Y-96460000D03*
X86160000Y-93920000D03*
D12*
X66259999Y-198510000D03*
X66259999Y-188350000D03*
D11*
X66259999Y-193430000D03*
D13*
X63719999Y-197240000D03*
X61179999Y-190890000D03*
D14*
X96794999Y-321270001D03*
D15*
X96794999Y-323810001D03*
X99334999Y-321270001D03*
X99334999Y-323810001D03*
X101874999Y-321270001D03*
X101874999Y-323810001D03*
D12*
X123259999Y-179510001D03*
X123259999Y-169350001D03*
D11*
X123259999Y-174430001D03*
D13*
X120719999Y-178240001D03*
X118179999Y-171890001D03*
D12*
X116540000Y-99000000D03*
X126700000Y-99000000D03*
D11*
X121620000Y-99000000D03*
D13*
X117810000Y-96460000D03*
X124160000Y-93920000D03*
D12*
X135540000Y-42000000D03*
X145700000Y-42000000D03*
D11*
X140620000Y-42000000D03*
D13*
X136810000Y-39460000D03*
X143160000Y-36920000D03*
D11*
X64620000Y-42000000D03*
D12*
X59540000Y-42000000D03*
X69700000Y-42000000D03*
D13*
X60810000Y-39460000D03*
X67160000Y-36920000D03*
D11*
X104259999Y-193430001D03*
D12*
X104259999Y-198510001D03*
X104259999Y-188350001D03*
D13*
X101719999Y-197240001D03*
X99179999Y-190890001D03*
D11*
X140620000Y-80000000D03*
D12*
X145700000Y-80000000D03*
X135540000Y-80000000D03*
D13*
X136810000Y-77460000D03*
X143160000Y-74920000D03*
D14*
X213380000Y-36830000D03*
D15*
X210840000Y-36830000D03*
X213380000Y-39370000D03*
X210840000Y-39370000D03*
X213380000Y-41910000D03*
X210840000Y-41910000D03*
D11*
X85259999Y-155430001D03*
D12*
X85259999Y-160510001D03*
X85259999Y-150350001D03*
D13*
X82719999Y-159240001D03*
X80179999Y-152890001D03*
D11*
X45620000Y-99000000D03*
D12*
X40540000Y-99000000D03*
X50700000Y-99000000D03*
D13*
X41810000Y-96460000D03*
X48160000Y-93920000D03*
D16*
X36339999Y-148430000D03*
D12*
X66259999Y-245350001D03*
D11*
X66259999Y-250430001D03*
D12*
X66259999Y-255510001D03*
D13*
X63719999Y-254240001D03*
X61179999Y-247890001D03*
D14*
X181869999Y-287000001D03*
D15*
X179329999Y-287000001D03*
X176789999Y-287000001D03*
X174249999Y-287000001D03*
X171709999Y-287000001D03*
X169169999Y-287000001D03*
X166629999Y-287000001D03*
X164089999Y-287000001D03*
X161549999Y-287000001D03*
X159009999Y-287000001D03*
X156469999Y-287000001D03*
X153929999Y-287000001D03*
X151389999Y-287000001D03*
X148849999Y-287000001D03*
D12*
X88700000Y-42000000D03*
X78540000Y-42000000D03*
D11*
X83620000Y-42000000D03*
D13*
X79810000Y-39460000D03*
X86160000Y-36920000D03*
D14*
X185420000Y-100330000D03*
D15*
X185420000Y-102870000D03*
X185420000Y-105410000D03*
X185420000Y-107950000D03*
X185420000Y-110490000D03*
X185420000Y-113030000D03*
X185420000Y-115570000D03*
X185420000Y-118110000D03*
X185420000Y-120650000D03*
X185420000Y-123190000D03*
D16*
X191339999Y-323430001D03*
D11*
X123259999Y-240905000D03*
D12*
X123259999Y-235825000D03*
X123259999Y-245985000D03*
D13*
X120719999Y-244715000D03*
X118179999Y-238365000D03*
D11*
X45620000Y-80000000D03*
D12*
X50700000Y-80000000D03*
X40540000Y-80000000D03*
D13*
X41810000Y-77460000D03*
X48160000Y-74920000D03*
D11*
X83620000Y-80000000D03*
D12*
X78540000Y-80000000D03*
X88700000Y-80000000D03*
D13*
X79810000Y-77460000D03*
X86160000Y-74920000D03*
D11*
X104259999Y-174430001D03*
D12*
X104259999Y-169350001D03*
X104259999Y-179510001D03*
D13*
X101719999Y-178240001D03*
X99179999Y-171890001D03*
D12*
X66259999Y-236510001D03*
X66259999Y-226350001D03*
D11*
X66259999Y-231430001D03*
D13*
X63719999Y-235240001D03*
X61179999Y-228890001D03*
D11*
X85259999Y-250430001D03*
D12*
X85259999Y-245350001D03*
X85259999Y-255510001D03*
D13*
X82719999Y-254240001D03*
X80179999Y-247890001D03*
D11*
X121620000Y-42000000D03*
D12*
X126700000Y-42000000D03*
X116540000Y-42000000D03*
D13*
X117810000Y-39460000D03*
X124160000Y-36920000D03*
D11*
X123259999Y-212430001D03*
D12*
X123259999Y-217510001D03*
X123259999Y-207350001D03*
D13*
X120719999Y-216240001D03*
X118179999Y-209890001D03*
D14*
X42169999Y-321290001D03*
D15*
X42169999Y-323830001D03*
X44709999Y-321290001D03*
X44709999Y-323830001D03*
X47249999Y-321290001D03*
X47249999Y-323830001D03*
D11*
X131095000Y-118000000D03*
D12*
X126015000Y-118000000D03*
X136175000Y-118000000D03*
D13*
X127285000Y-115460000D03*
X133635000Y-112920000D03*
D11*
X121620000Y-80000000D03*
D12*
X126700000Y-80000000D03*
X116540000Y-80000000D03*
D13*
X117810000Y-77460000D03*
X124160000Y-74920000D03*
D12*
X104259999Y-207270000D03*
D11*
X104259999Y-212350000D03*
D12*
X104259999Y-217430000D03*
D13*
X101719999Y-216160000D03*
X99179999Y-209810000D03*
D12*
X66259999Y-207350000D03*
D11*
X66259999Y-212430000D03*
D12*
X66259999Y-217510000D03*
D13*
X63719999Y-216240000D03*
X61179999Y-209890000D03*
D16*
X142000000Y-186064466D03*
D12*
X59540000Y-61000000D03*
D11*
X64620000Y-61000000D03*
D12*
X69700000Y-61000000D03*
D13*
X60810000Y-58460000D03*
X67160000Y-55920000D03*
D16*
X37339999Y-323430001D03*
D12*
X78540000Y-118000000D03*
D11*
X83620000Y-118000000D03*
D12*
X88700000Y-118000000D03*
D13*
X79810000Y-115460000D03*
X86160000Y-112920000D03*
D11*
X64620000Y-118000000D03*
D12*
X59540000Y-118000000D03*
X69700000Y-118000000D03*
D13*
X60810000Y-115460000D03*
X67160000Y-112920000D03*
D16*
X129758939Y-148932711D03*
D12*
X47259999Y-226350001D03*
D11*
X47259999Y-231430001D03*
D12*
X47259999Y-236510001D03*
D13*
X44719999Y-235240001D03*
X42179999Y-228890001D03*
D10*
X205750000Y-115000000D03*
X212750000Y-115000000D03*
D12*
X135540000Y-61000000D03*
X145700000Y-61000000D03*
D11*
X140620000Y-61000000D03*
D13*
X136810000Y-58460000D03*
X143160000Y-55920000D03*
D16*
X213000000Y-32000000D03*
D14*
X99045000Y-312400000D03*
D15*
X99045000Y-314940000D03*
X101585000Y-312400000D03*
X101585000Y-314940000D03*
D12*
X107700000Y-118000000D03*
D11*
X102620000Y-118000000D03*
D12*
X97540000Y-118000000D03*
D13*
X98810000Y-115460000D03*
X105160000Y-112920000D03*
D16*
X39000000Y-32000000D03*
D12*
X85259999Y-179510001D03*
D11*
X85259999Y-174430001D03*
D12*
X85259999Y-169350001D03*
D13*
X82719999Y-178240001D03*
X80179999Y-171890001D03*
D12*
X97540000Y-61000000D03*
X107700000Y-61000000D03*
D11*
X102620000Y-61000000D03*
D13*
X98810000Y-58460000D03*
X105160000Y-55920000D03*
D11*
X104260000Y-231430001D03*
D12*
X104260000Y-236510001D03*
X104260000Y-226350001D03*
D13*
X101720000Y-235240001D03*
X99180000Y-228890001D03*
D12*
X85259999Y-198510000D03*
X85259999Y-188350000D03*
D11*
X85259999Y-193430000D03*
D13*
X82719999Y-197240000D03*
X80179999Y-190890000D03*
D12*
X145700000Y-99000000D03*
D11*
X140620000Y-99000000D03*
D12*
X135540000Y-99000000D03*
D13*
X136810000Y-96460000D03*
X143160000Y-93920000D03*
D14*
X213420000Y-91455000D03*
D15*
X210880000Y-91455000D03*
X213420000Y-93995000D03*
X210880000Y-93995000D03*
X213420000Y-96535000D03*
X210880000Y-96535000D03*
D12*
X123259999Y-150350000D03*
D11*
X123259999Y-155430000D03*
D12*
X123259999Y-160510000D03*
D13*
X120719999Y-159240000D03*
X118179999Y-152890000D03*
D12*
X47259999Y-255510001D03*
D11*
X47259999Y-250430001D03*
D12*
X47259999Y-245350001D03*
D13*
X44719999Y-254240001D03*
X42179999Y-247890001D03*
D12*
X97540000Y-99000000D03*
D11*
X102620000Y-99000000D03*
D12*
X107700000Y-99000000D03*
D13*
X98810000Y-96460000D03*
X105160000Y-93920000D03*
D16*
X191340000Y-198430001D03*
D12*
X123259999Y-198510001D03*
D11*
X123259999Y-193430001D03*
D12*
X123259999Y-188350001D03*
D13*
X120719999Y-197240001D03*
X118179999Y-190890001D03*
D19*
X61895000Y-46330000D03*
X61895000Y-47830000D03*
X67345000Y-46330000D03*
D20*
X67345000Y-47830000D03*
D21*
X51589999Y-177155001D03*
X53089999Y-177155001D03*
X51589999Y-171705001D03*
D22*
X53089999Y-171705001D03*
D23*
X47282500Y-127000000D03*
X44157500Y-127000000D03*
D24*
X115070000Y-49000000D03*
X115070000Y-45875000D03*
D23*
X73274999Y-219690001D03*
X70149999Y-219690001D03*
D21*
X108589999Y-234155001D03*
X110089999Y-234155001D03*
X108589999Y-228705001D03*
D22*
X110089999Y-228705001D03*
D24*
X57920000Y-68012500D03*
X57920000Y-64887500D03*
X38870000Y-106150000D03*
X38870000Y-103025000D03*
X124595000Y-125200000D03*
X124595000Y-122075000D03*
D23*
X130462499Y-219690001D03*
X127337499Y-219690001D03*
D21*
X127589999Y-196155000D03*
X129089999Y-196155000D03*
X127589999Y-190705000D03*
D22*
X129089999Y-190705000D03*
D23*
X92287499Y-257790000D03*
X89162499Y-257790000D03*
D21*
X89589999Y-253155001D03*
X91089999Y-253155001D03*
X89589999Y-247705001D03*
D22*
X91089999Y-247705001D03*
D21*
X127715000Y-215030000D03*
X129215000Y-215030000D03*
X127715000Y-209580000D03*
D22*
X129215000Y-209580000D03*
D24*
X38870000Y-87100000D03*
X38870000Y-83975000D03*
D19*
X137895000Y-84330000D03*
X137895000Y-85830000D03*
X143345000Y-84330000D03*
D20*
X143345000Y-85830000D03*
D21*
X89589999Y-234155001D03*
X91089999Y-234155001D03*
X89589999Y-228705001D03*
D22*
X91089999Y-228705001D03*
D24*
X115070000Y-68050000D03*
X115070000Y-64925000D03*
D19*
X42895000Y-46330000D03*
X42895000Y-47830000D03*
X48345000Y-46330000D03*
D20*
X48345000Y-47830000D03*
D23*
X54337499Y-257790001D03*
X51212499Y-257790001D03*
X130462500Y-248265001D03*
X127337500Y-248265001D03*
X92324999Y-219690000D03*
X89199999Y-219690000D03*
X92324999Y-238740001D03*
X89199999Y-238740001D03*
D24*
X96020000Y-68050000D03*
X96020000Y-64925000D03*
D21*
X51509999Y-234155001D03*
X53009999Y-234155001D03*
X51509999Y-228705001D03*
D22*
X53009999Y-228705001D03*
D23*
X130462500Y-200640000D03*
X127337500Y-200640000D03*
D24*
X134120000Y-87100000D03*
X134120000Y-83975000D03*
X57920000Y-49000000D03*
X57920000Y-45875000D03*
X38870000Y-68012500D03*
X38870000Y-64887500D03*
X57920000Y-106150000D03*
X57920000Y-103025000D03*
X38870000Y-49000000D03*
X38870000Y-45875000D03*
D21*
X108589999Y-177030000D03*
X110089999Y-177030000D03*
X108589999Y-171580000D03*
D22*
X110089999Y-171580000D03*
D23*
X111337499Y-257790000D03*
X108212499Y-257790000D03*
D19*
X80895000Y-103330000D03*
X80895000Y-104830000D03*
X86345000Y-103330000D03*
D20*
X86345000Y-104830000D03*
D19*
X61895000Y-103330000D03*
X61895000Y-104830000D03*
X67345000Y-103330000D03*
D20*
X67345000Y-104830000D03*
D19*
X80895000Y-84330000D03*
X80895000Y-85830000D03*
X86345000Y-84330000D03*
D20*
X86345000Y-85830000D03*
D21*
X89510000Y-215155000D03*
X91010000Y-215155000D03*
X89510000Y-209705000D03*
D22*
X91010000Y-209705000D03*
D19*
X61895000Y-84330000D03*
X61895000Y-85830000D03*
X67345000Y-84330000D03*
D20*
X67345000Y-85830000D03*
D21*
X70544999Y-253280001D03*
X72044999Y-253280001D03*
X70544999Y-247830001D03*
D22*
X72044999Y-247830001D03*
D23*
X130462500Y-181590001D03*
X127337500Y-181590001D03*
D24*
X115070000Y-106150000D03*
X115070000Y-103025000D03*
D23*
X111337499Y-238740000D03*
X108212499Y-238740000D03*
D21*
X108589999Y-196030001D03*
X110089999Y-196030001D03*
X108589999Y-190580001D03*
D22*
X110089999Y-190580001D03*
D21*
X108589999Y-253155001D03*
X110089999Y-253155001D03*
X108589999Y-247705001D03*
D22*
X110089999Y-247705001D03*
D24*
X115070000Y-87100000D03*
X115070000Y-83975000D03*
D21*
X70589999Y-234155001D03*
X72089999Y-234155001D03*
X70589999Y-228705001D03*
D22*
X72089999Y-228705001D03*
D19*
X80895000Y-65330000D03*
X80895000Y-66830000D03*
X86345000Y-65330000D03*
D20*
X86345000Y-66830000D03*
D21*
X127589999Y-158030000D03*
X129089999Y-158030000D03*
X127589999Y-152580000D03*
D22*
X129089999Y-152580000D03*
D19*
X99895000Y-65330000D03*
X99895000Y-66830000D03*
X105345000Y-65330000D03*
D20*
X105345000Y-66830000D03*
D21*
X108589999Y-215030001D03*
X110089999Y-215030001D03*
X108589999Y-209580001D03*
D22*
X110089999Y-209580001D03*
D19*
X42895000Y-65330000D03*
X42895000Y-66830000D03*
X48345000Y-65330000D03*
D20*
X48345000Y-66830000D03*
D23*
X111374999Y-162540001D03*
X108249999Y-162540001D03*
D19*
X118895000Y-65330000D03*
X118895000Y-66830000D03*
X124345000Y-65330000D03*
D20*
X124345000Y-66830000D03*
D23*
X54300000Y-181590001D03*
X51175000Y-181590001D03*
D19*
X137895000Y-103330000D03*
X137895000Y-104830000D03*
X143345000Y-103330000D03*
D20*
X143345000Y-104830000D03*
D24*
X76970000Y-49000000D03*
X76970000Y-45875000D03*
X134120000Y-49000000D03*
X134120000Y-45875000D03*
D21*
X89590000Y-177155001D03*
X91090000Y-177155001D03*
X89590000Y-171705001D03*
D22*
X91090000Y-171705001D03*
D21*
X70589999Y-158155000D03*
X72089999Y-158155000D03*
X70589999Y-152705000D03*
D22*
X72089999Y-152705000D03*
D19*
X99895000Y-122330000D03*
X99895000Y-123830000D03*
X105345000Y-122330000D03*
D20*
X105345000Y-123830000D03*
D19*
X137895000Y-46250000D03*
X137895000Y-47750000D03*
X143345000Y-46250000D03*
D20*
X143345000Y-47750000D03*
D24*
X96020000Y-106150000D03*
X96020000Y-103025000D03*
D19*
X128370000Y-122330000D03*
X128370000Y-123830000D03*
X133820000Y-122330000D03*
D20*
X133820000Y-123830000D03*
D19*
X42895000Y-103330000D03*
X42895000Y-104830000D03*
X48345000Y-103330000D03*
D20*
X48345000Y-104830000D03*
D21*
X51590000Y-158280001D03*
X53090000Y-158280001D03*
X51590000Y-152830001D03*
D22*
X53090000Y-152830001D03*
D19*
X80895000Y-46330000D03*
X80895000Y-47830000D03*
X86345000Y-46330000D03*
D20*
X86345000Y-47830000D03*
D24*
X57920000Y-87100000D03*
X57920000Y-83975000D03*
X57920000Y-125200000D03*
X57920000Y-122075000D03*
D23*
X111374999Y-200640000D03*
X108249999Y-200640000D03*
D24*
X96020000Y-87100000D03*
X96020000Y-83975000D03*
X134120000Y-106150000D03*
X134120000Y-103025000D03*
D23*
X73312500Y-200640001D03*
X70187500Y-200640001D03*
D19*
X80895000Y-122330000D03*
X80895000Y-123830000D03*
X86345000Y-122330000D03*
D20*
X86345000Y-123830000D03*
D24*
X76970000Y-125200000D03*
X76970000Y-122075000D03*
D21*
X51509999Y-253280000D03*
X53009999Y-253280000D03*
X51509999Y-247830000D03*
D22*
X53009999Y-247830000D03*
D23*
X92362499Y-200640001D03*
X89237499Y-200640001D03*
D19*
X99895000Y-46330000D03*
X99895000Y-47830000D03*
X105345000Y-46330000D03*
D20*
X105345000Y-47830000D03*
D24*
X134120000Y-68050000D03*
X134120000Y-64925000D03*
D23*
X130462500Y-162540001D03*
X127337500Y-162540001D03*
X111374999Y-181590001D03*
X108249999Y-181590001D03*
D21*
X89590000Y-196155001D03*
X91090000Y-196155001D03*
X89590000Y-190705001D03*
D22*
X91090000Y-190705001D03*
D19*
X118895000Y-103250000D03*
X118895000Y-104750000D03*
X124345000Y-103250000D03*
D20*
X124345000Y-104750000D03*
D24*
X96020000Y-125200000D03*
X96020000Y-122075000D03*
D19*
X99895000Y-103330000D03*
X99895000Y-104830000D03*
X105345000Y-103330000D03*
D20*
X105345000Y-104830000D03*
D21*
X70589999Y-196155001D03*
X72089999Y-196155001D03*
X70589999Y-190705001D03*
D22*
X72089999Y-190705001D03*
D21*
X127589999Y-177030000D03*
X129089999Y-177030000D03*
X127589999Y-171580000D03*
D22*
X129089999Y-171580000D03*
D23*
X73312499Y-181590001D03*
X70187499Y-181590001D03*
D24*
X76970000Y-87100000D03*
X76970000Y-83975000D03*
D23*
X73312499Y-162540001D03*
X70187499Y-162540001D03*
D19*
X42895000Y-84330000D03*
X42895000Y-85830000D03*
X48345000Y-84330000D03*
D20*
X48345000Y-85830000D03*
D21*
X89590000Y-158155000D03*
X91090000Y-158155000D03*
X89590000Y-152705000D03*
D22*
X91090000Y-152705000D03*
D21*
X70589999Y-215155001D03*
X72089999Y-215155001D03*
X70589999Y-209705001D03*
D22*
X72089999Y-209705001D03*
D23*
X92362499Y-162540000D03*
X89237499Y-162540000D03*
X73274999Y-238740000D03*
X70149999Y-238740000D03*
D21*
X127589999Y-243630001D03*
X129089999Y-243630001D03*
X127589999Y-238180001D03*
D22*
X129089999Y-238180001D03*
D24*
X76970000Y-68012500D03*
X76970000Y-64887500D03*
D19*
X42895000Y-122330000D03*
X42895000Y-123830000D03*
X48345000Y-122330000D03*
D20*
X48345000Y-123830000D03*
D18*
X36339999Y-307155001D03*
X36339999Y-301705001D03*
D17*
X39369999Y-306855001D03*
X39369999Y-302005001D03*
D25*
X36209999Y-294640001D03*
D15*
X36209999Y-295540001D03*
D25*
X38749999Y-294640001D03*
D15*
X38749999Y-295540001D03*
D14*
X41289999Y-295540001D03*
D25*
X41289999Y-294640001D03*
X43829999Y-294640001D03*
D15*
X43829999Y-295540001D03*
D25*
X46369999Y-294640001D03*
D15*
X46369999Y-295540001D03*
D25*
X48909999Y-294640001D03*
D15*
X48909999Y-295540001D03*
X51449999Y-295540001D03*
D25*
X51449999Y-294640001D03*
X53989999Y-294640001D03*
D14*
X53989999Y-295540001D03*
D25*
X56529999Y-294640001D03*
D15*
X56529999Y-295540001D03*
D25*
X59069999Y-294640001D03*
D15*
X59069999Y-295540001D03*
D25*
X61609999Y-294640001D03*
D15*
X61609999Y-295540001D03*
X64149999Y-295540001D03*
D25*
X64149999Y-294640001D03*
X66689999Y-294640001D03*
D14*
X66689999Y-295540001D03*
D25*
X69229999Y-294640001D03*
D15*
X69229999Y-295540001D03*
X71769999Y-295540001D03*
D25*
X71769999Y-294640001D03*
D15*
X74309999Y-295540001D03*
D25*
X74309999Y-294640001D03*
X76849999Y-294640001D03*
D15*
X76849999Y-295540001D03*
D25*
X79389999Y-294640001D03*
D14*
X79389999Y-295540001D03*
D25*
X81929999Y-294640001D03*
D15*
X81929999Y-295540001D03*
D25*
X84469999Y-294640001D03*
D15*
X84469999Y-295540001D03*
D25*
X84469999Y-314220001D03*
D15*
X84469999Y-313320001D03*
X81929999Y-313320001D03*
D25*
X81929999Y-314220001D03*
X79389999Y-314220001D03*
D14*
X79389999Y-313320001D03*
D25*
X76849999Y-314220001D03*
D15*
X76849999Y-313320001D03*
D25*
X74309999Y-314220001D03*
D15*
X74309999Y-313320001D03*
X71769999Y-313320001D03*
D25*
X71769999Y-314220001D03*
X69229999Y-314220001D03*
D15*
X69229999Y-313320001D03*
D25*
X66689999Y-314220001D03*
D14*
X66689999Y-313320001D03*
D25*
X64149999Y-314220001D03*
D15*
X64149999Y-313320001D03*
X61609999Y-313320001D03*
D25*
X61609999Y-314220001D03*
X59069999Y-314220001D03*
D15*
X59069999Y-313320001D03*
X56529999Y-313320001D03*
D25*
X56529999Y-314220001D03*
X53989999Y-314220001D03*
D14*
X53989999Y-313320001D03*
D15*
X51449999Y-313320001D03*
D25*
X51449999Y-314220001D03*
X48909999Y-314220001D03*
D15*
X48909999Y-313320001D03*
X46369999Y-313320001D03*
D25*
X46369999Y-314220001D03*
D15*
X43829999Y-313320001D03*
D25*
X43829999Y-314220001D03*
D14*
X41289999Y-313320001D03*
D25*
X41289999Y-314220001D03*
D15*
X38749999Y-313320001D03*
D25*
X38749999Y-314220001D03*
D15*
X36209999Y-313320001D03*
D25*
X36209999Y-314220001D03*
D26*
X85139999Y-301890001D03*
D15*
X84239999Y-301890001D03*
D14*
X84239999Y-304430001D03*
D26*
X85139999Y-304430001D03*
X85139999Y-306970001D03*
D15*
X84239999Y-306970001D03*
D19*
X99895000Y-84330000D03*
X99895000Y-85830000D03*
X105345000Y-84330000D03*
D20*
X105345000Y-85830000D03*
D23*
X92362499Y-181590001D03*
X89237499Y-181590001D03*
D19*
X118895000Y-84330000D03*
X118895000Y-85830000D03*
X124345000Y-84330000D03*
D20*
X124345000Y-85830000D03*
D21*
X51589999Y-215155001D03*
X53089999Y-215155001D03*
X51589999Y-209705001D03*
D22*
X53089999Y-209705001D03*
D23*
X54299999Y-200640001D03*
X51174999Y-200640001D03*
X73275000Y-257790001D03*
X70150000Y-257790001D03*
D24*
X76970000Y-106150000D03*
X76970000Y-103025000D03*
D23*
X54300000Y-162540001D03*
X51175000Y-162540001D03*
X111375000Y-219690001D03*
X108250000Y-219690001D03*
D19*
X61895000Y-65330000D03*
X61895000Y-66830000D03*
X67345000Y-65330000D03*
D20*
X67345000Y-66830000D03*
D21*
X51589999Y-196155001D03*
X53089999Y-196155001D03*
X51589999Y-190705001D03*
D22*
X53089999Y-190705001D03*
D19*
X61895000Y-122330000D03*
X61895000Y-123830000D03*
X67345000Y-122330000D03*
D20*
X67345000Y-123830000D03*
D24*
X96020000Y-49000000D03*
X96020000Y-45875000D03*
D19*
X118895000Y-46330000D03*
X118895000Y-47830000D03*
X124345000Y-46330000D03*
D20*
X124345000Y-47830000D03*
D21*
X70589999Y-177155001D03*
X72089999Y-177155001D03*
X70589999Y-171705001D03*
D22*
X72089999Y-171705001D03*
D21*
X108590000Y-158030001D03*
X110090000Y-158030001D03*
X108590000Y-152580001D03*
D22*
X110090000Y-152580001D03*
D23*
X54337500Y-238740000D03*
X51212500Y-238740000D03*
D19*
X137895000Y-65330000D03*
X137895000Y-66830000D03*
X143345000Y-65330000D03*
D20*
X143345000Y-66830000D03*
D23*
X54299999Y-219690001D03*
X51174999Y-219690001D03*
M02*
