M48
; DRILL file {KiCad (6.0.10)} date Wed Mar  1 01:55:47 2023
; FORMAT={-:-/ absolute / metric / decimal}
; #@! TF.CreationDate,2023-03-01T01:55:47+01:00
; #@! TF.GenerationSoftware,Kicad,Pcbnew,(6.0.10)
; #@! TF.FileFunction,Plated,1,2,PTH
FMAT,2
METRIC
; #@! TA.AperFunction,Plated,PTH,ViaDrill
T1C0.400
; #@! TA.AperFunction,Plated,PTH,ComponentDrill
T2C1.000
; #@! TA.AperFunction,Plated,PTH,ComponentDrill
T3C1.020
; #@! TA.AperFunction,Plated,PTH,ComponentDrill
T4C1.524
%
G90
G05
T1
X39.34Y-265.41
X41.84Y-281.93
X42.895Y-49.53
X42.895Y-68.58
X42.895Y-87.63
X42.895Y-104.83
X43.565Y-268.205
X43.828Y-281.43
X45.34Y-285.43
X46.34Y-282.43
X46.975Y-269.065
X48.245Y-270.335
X49.515Y-271.43
X49.515Y-280.65
X49.79Y-283.19
X49.79Y-298.43
X50.785Y-272.43
X50.8Y-47.83
X50.8Y-66.83
X50.8Y-85.83
X50.8Y-104.83
X50.8Y-123.83
X51.59Y-149.84
X53.01Y-226.04
X53.01Y-245.09
X53.09Y-206.99
X53.09Y-149.84
X53.09Y-168.89
X53.09Y-187.94
X53.6Y-255.25
X54.265Y-252.693
X58.54Y-265.41
X62.34Y-281.43
X62.565Y-268.205
X64.34Y-282.43
X65.975Y-269.065
X67.245Y-270.335
X68.515Y-271.43
X68.55Y-280.615
X68.84Y-283.19
X69.34Y-302.24
X69.785Y-271.76
X69.785Y-280.65
X69.85Y-47.83
X69.85Y-66.83
X69.85Y-85.83
X69.85Y-104.83
X69.85Y-123.83
X70.59Y-149.84
X71.77Y-302.17
X72.09Y-149.84
X72.09Y-187.94
X72.09Y-206.99
X72.09Y-226.04
X72.09Y-245.09
X72.09Y-168.89
X72.65Y-255.25
X73.365Y-252.71
X77.14Y-265.41
X80.34Y-281.43
X81.402Y-268.243
X82.34Y-282.43
X83.975Y-269.065
X85.245Y-269.22
X86.515Y-270.49
X86.55Y-280.615
X87.785Y-271.335
X87.785Y-280.65
X88.9Y-47.83
X88.9Y-66.83
X88.9Y-85.83
X88.9Y-104.83
X88.9Y-123.83
X89.59Y-151.11
X90.43Y-255.25
X91.01Y-208.26
X91.09Y-151.11
X91.09Y-170.16
X91.09Y-189.21
X91.09Y-227.31
X91.09Y-245.09
X92.265Y-255.25
X92.34Y-275.57
X92.97Y-271.76
X96.34Y-265.41
X99.895Y-297.706
X100.34Y-281.43
X100.62Y-268.15
X101.889Y-298.43
X102.34Y-293.43
X102.34Y-282.43
X103.975Y-269.065
X104.975Y-299.065
X105.245Y-269.22
X106.515Y-270.49
X106.55Y-280.615
X107.515Y-298.43
X107.785Y-271.335
X107.785Y-280.65
X107.95Y-47.83
X107.95Y-66.83
X107.95Y-85.83
X107.95Y-104.83
X107.95Y-123.83
X108.59Y-149.84
X110.09Y-168.89
X110.09Y-187.94
X110.09Y-149.84
X110.09Y-206.99
X110.09Y-226.04
X110.09Y-245.09
X110.75Y-255.25
X112.02Y-252.71
X115.31Y-312.155
X115.895Y-298.43
X117.54Y-265.41
X119.121Y-303.156
X119.34Y-281.43
X120.34Y-282.43
X122.078Y-268.518
X123.45Y-280.65
X123.515Y-298.43
X124.245Y-269.335
X125.515Y-270.43
X126.295Y-149.535
X126.785Y-271.43
X126.785Y-280.65
X127.0Y-47.83
X127.0Y-66.83
X127.0Y-85.83
X127.0Y-104.75
X129.09Y-168.89
X129.09Y-187.94
X129.09Y-236.2
X129.215Y-206.99
X131.07Y-152.38
X135.89Y-122.33
X135.89Y-123.83
X143.345Y-103.33
X146.05Y-46.25
X146.05Y-47.75
X146.05Y-65.33
X146.05Y-66.83
X146.05Y-84.33
X146.05Y-85.83
X146.05Y-104.83
X148.34Y-297.43
X155.32Y-34.29
X155.32Y-91.0
X155.32Y-111.49
X155.66Y-53.724
X155.91Y-72.724
X158.495Y-58.125
X158.505Y-115.825
X158.795Y-38.825
X158.795Y-76.825
X158.895Y-95.725
X159.525Y-40.095
X159.525Y-78.095
X159.525Y-97.095
X159.525Y-117.095
X159.845Y-59.775
X160.255Y-41.365
X160.255Y-79.365
X160.255Y-98.365
X160.255Y-118.365
X160.575Y-61.045
X161.29Y-42.635
X161.29Y-99.635
X161.305Y-62.315
X161.335Y-80.635
X161.985Y-119.635
X162.24Y-44.13
X162.265Y-100.905
X162.385Y-63.585
X162.455Y-82.515
X163.83Y-72.39
X166.37Y-119.38
X167.64Y-116.84
X169.195Y-35.845
X169.195Y-92.425
X169.202Y-55.587
X170.18Y-73.66
X170.18Y-111.76
X170.905Y-100.905
X171.0Y-82.0
X171.0Y-91.44
X171.0Y-121.0
X171.035Y-63.585
X171.095Y-39.095
X171.095Y-43.905
X171.725Y-73.66
X171.81Y-64.81
X171.81Y-83.19
X171.825Y-45.175
X171.825Y-122.175
X172.0Y-34.0
X172.0Y-102.0
X172.445Y-123.445
X172.725Y-60.81
X172.725Y-84.0
X173.0Y-98.0
X173.449Y-41.0
X173.449Y-65.31
X173.81Y-79.0
X173.81Y-102.81
X182.0Y-72.0
X188.78Y-90.62
X193.0Y-92.75
X196.85Y-109.22
X198.12Y-93.98
X198.12Y-99.635
X198.12Y-102.175
X198.12Y-114.3
X198.12Y-118.175
X201.0Y-108.0
T2
X42.17Y-321.29
X42.17Y-323.83
X44.71Y-321.29
X44.71Y-323.83
X47.25Y-321.29
X47.25Y-323.83
X51.367Y-322.56
X53.907Y-322.56
X56.447Y-322.56
X58.987Y-322.56
X61.527Y-322.56
X64.067Y-322.56
X66.607Y-322.56
X69.147Y-322.56
X71.687Y-322.56
X74.227Y-322.56
X76.767Y-322.56
X79.307Y-322.56
X81.847Y-322.56
X84.387Y-322.56
X86.927Y-322.56
X89.467Y-322.56
X96.795Y-321.27
X96.795Y-323.81
X99.045Y-312.4
X99.045Y-314.94
X99.335Y-321.27
X99.335Y-323.81
X101.585Y-312.4
X101.585Y-314.94
X101.875Y-321.27
X101.875Y-323.81
X148.85Y-287.0
X151.39Y-287.0
X152.06Y-300.655
X152.06Y-303.195
X152.06Y-305.735
X152.06Y-308.275
X152.06Y-310.815
X152.06Y-313.355
X152.06Y-315.895
X152.06Y-318.435
X153.93Y-287.0
X156.47Y-287.0
X159.01Y-287.0
X161.55Y-287.0
X161.925Y-133.41
X164.09Y-287.0
X164.465Y-133.41
X166.63Y-287.0
X167.005Y-133.41
X169.17Y-287.0
X169.545Y-133.41
X171.71Y-287.0
X172.085Y-133.41
X174.25Y-287.0
X174.625Y-133.41
X176.79Y-287.0
X177.165Y-133.41
X179.33Y-287.0
X179.705Y-133.41
X181.87Y-287.0
X182.245Y-133.41
X184.785Y-133.41
X185.42Y-100.33
X185.42Y-102.87
X185.42Y-105.41
X185.42Y-107.95
X185.42Y-110.49
X185.42Y-113.03
X185.42Y-115.57
X185.42Y-118.11
X185.42Y-120.65
X185.42Y-123.19
X187.325Y-133.41
X189.865Y-133.41
X192.405Y-133.41
X203.2Y-93.98
X203.2Y-96.52
X205.74Y-93.98
X205.74Y-96.52
X210.84Y-36.83
X210.84Y-39.37
X210.84Y-41.91
X210.88Y-91.455
X210.88Y-93.995
X210.88Y-96.535
X212.09Y-46.027
X212.09Y-48.567
X212.09Y-51.107
X212.09Y-53.648
X212.09Y-56.188
X212.09Y-58.727
X212.09Y-61.267
X212.09Y-63.807
X212.09Y-66.347
X212.09Y-68.888
X212.09Y-71.427
X212.09Y-73.968
X212.09Y-76.507
X212.09Y-79.047
X212.09Y-81.587
X212.09Y-84.127
X213.38Y-36.83
X213.38Y-39.37
X213.38Y-41.91
X213.42Y-91.455
X213.42Y-93.995
X213.42Y-96.535
T3
X36.21Y-295.54
X36.21Y-313.32
X38.75Y-295.54
X38.75Y-313.32
X41.29Y-295.54
X41.29Y-313.32
X43.83Y-295.54
X43.83Y-313.32
X46.37Y-295.54
X46.37Y-313.32
X48.91Y-295.54
X48.91Y-313.32
X51.45Y-295.54
X51.45Y-313.32
X53.99Y-295.54
X53.99Y-313.32
X56.53Y-295.54
X56.53Y-313.32
X59.07Y-295.54
X59.07Y-313.32
X61.61Y-295.54
X61.61Y-313.32
X64.15Y-295.54
X64.15Y-313.32
X66.69Y-295.54
X66.69Y-313.32
X69.23Y-295.54
X69.23Y-313.32
X71.77Y-295.54
X71.77Y-313.32
X74.31Y-295.54
X74.31Y-313.32
X76.85Y-295.54
X76.85Y-313.32
X79.39Y-295.54
X79.39Y-313.32
X81.93Y-295.54
X81.93Y-313.32
X84.24Y-301.89
X84.24Y-304.43
X84.24Y-306.97
X84.47Y-295.54
X84.47Y-313.32
X185.73Y-30.87
X185.73Y-33.41
X185.73Y-35.95
X185.73Y-38.49
X185.73Y-41.03
X185.73Y-43.57
X185.73Y-46.11
X185.73Y-48.65
X185.73Y-51.19
X185.73Y-53.73
X185.73Y-56.27
X185.73Y-58.81
X185.73Y-61.35
X185.73Y-63.89
X185.73Y-66.43
X185.73Y-68.97
X185.73Y-71.51
X185.73Y-74.05
X185.73Y-76.59
X185.73Y-79.13
X192.08Y-78.9
X194.62Y-78.9
X197.16Y-78.9
X203.51Y-30.87
X203.51Y-33.41
X203.51Y-35.95
X203.51Y-38.49
X203.51Y-41.03
X203.51Y-43.57
X203.51Y-46.11
X203.51Y-48.65
X203.51Y-51.19
X203.51Y-53.73
X203.51Y-56.27
X203.51Y-58.81
X203.51Y-61.35
X203.51Y-63.89
X203.51Y-66.43
X203.51Y-68.97
X203.51Y-71.51
X203.51Y-74.05
X203.51Y-76.59
X203.51Y-79.13
T4
X41.81Y-39.46
X41.81Y-58.46
X41.81Y-77.46
X41.81Y-96.46
X41.81Y-115.46
X42.18Y-209.89
X42.18Y-228.89
X42.18Y-247.89
X42.18Y-152.89
X42.18Y-171.89
X42.18Y-190.89
X44.72Y-216.24
X44.72Y-235.24
X44.72Y-254.24
X44.72Y-159.24
X44.72Y-178.24
X44.72Y-197.24
X48.16Y-36.92
X48.16Y-55.92
X48.16Y-74.92
X48.16Y-93.92
X48.16Y-112.92
X60.81Y-39.46
X60.81Y-58.46
X60.81Y-77.46
X60.81Y-96.46
X60.81Y-115.46
X61.18Y-152.89
X61.18Y-171.97
X61.18Y-190.89
X61.18Y-209.89
X61.18Y-228.89
X61.18Y-247.89
X63.72Y-159.24
X63.72Y-178.32
X63.72Y-197.24
X63.72Y-216.24
X63.72Y-235.24
X63.72Y-254.24
X67.16Y-36.92
X67.16Y-55.92
X67.16Y-74.92
X67.16Y-93.92
X67.16Y-112.92
X79.81Y-39.46
X79.81Y-58.46
X79.81Y-77.46
X79.81Y-96.46
X79.81Y-115.46
X80.18Y-152.89
X80.18Y-171.89
X80.18Y-190.89
X80.18Y-209.89
X80.18Y-228.89
X80.18Y-247.89
X82.72Y-159.24
X82.72Y-178.24
X82.72Y-197.24
X82.72Y-216.24
X82.72Y-235.24
X82.72Y-254.24
X86.16Y-36.92
X86.16Y-55.92
X86.16Y-74.92
X86.16Y-93.92
X86.16Y-112.92
X98.81Y-39.46
X98.81Y-58.46
X98.81Y-77.46
X98.81Y-96.46
X98.81Y-115.46
X99.18Y-152.89
X99.18Y-171.89
X99.18Y-190.89
X99.18Y-209.81
X99.18Y-228.89
X99.18Y-247.89
X101.72Y-159.24
X101.72Y-178.24
X101.72Y-197.24
X101.72Y-216.16
X101.72Y-235.24
X101.72Y-254.24
X105.16Y-36.92
X105.16Y-55.92
X105.16Y-74.92
X105.16Y-93.92
X105.16Y-112.92
X117.81Y-39.46
X117.81Y-58.46
X117.81Y-77.46
X117.81Y-96.46
X118.18Y-152.89
X118.18Y-171.89
X118.18Y-190.89
X118.18Y-209.89
X118.18Y-238.365
X120.72Y-159.24
X120.72Y-178.24
X120.72Y-197.24
X120.72Y-216.24
X120.72Y-244.715
X124.16Y-36.92
X124.16Y-55.92
X124.16Y-74.92
X124.16Y-93.92
X127.285Y-115.46
X133.635Y-112.92
X136.81Y-39.46
X136.81Y-58.46
X136.81Y-77.46
X136.81Y-96.46
X143.16Y-36.92
X143.16Y-55.92
X143.16Y-74.92
X143.16Y-93.92
T0
M30
